#N canvas 359 153 1195 873 10;
#X msg 77 346 start;
#X msg 28 346 stop;
#X msg 814 396 1;
#X obj 200 550 fexpr~ $y1 + $x7 * ($x2 * ($y2 - $y1 - $y4)) * $x8 \; $y2 + $x7 * ($y1 - $y2 + $y3) * $x8 \; $y3 + $x7 * (-$x3 * $y2 - $x4 * $y3) * $x8 \; if ($y1>=1 \, $x6*$y1+($x5-$x6) \, if ($y1>=-1 \, $x5*$y1 \, $x6*$y1-($x5-$x6))), f 120;
#X obj 200 607 *~ 0.4;
#X obj 814 351 t b b;
#X obj 814 417 +;
#X obj 712 242 t b b;
#X obj 712 349 +;
#X msg 712 264 -0.714286;
#X floatatom 739 328 5 0 0 0 - - - 0;
#X obj 609 310 t b b;
#X obj 609 417 +;
#X floatatom 636 396 5 0 0 0 - - - 0;
#X msg 609 332 -1.14286;
#X obj 507 222 t b b;
#X obj 507 288 +;
#X msg 507 267 0;
#X obj 404 392 t b b;
#X obj 404 458 +;
#X msg 404 437 28.58;
#X obj 302 305 t b b;
#X obj 302 371 +;
#X msg 302 350 15.6;
#X obj 302 284 r \$0randomise;
#X obj 404 371 r \$0randomise;
#X obj 507 201 r \$0randomise;
#X obj 609 289 r \$0randomise;
#X obj 712 221 r \$0randomise;
#X obj 814 330 r \$0randomise;
#X msg 241 444 15.6;
#X msg 343 437 28.58;
#X msg 444 288 0;
#X msg 546 353 -1.14286;
#X msg 676 417 -0.714286;
#X msg 752 418 1;
#X obj 262 201 r \$0randomise;
#X obj 82 16 inlet;
#X obj 82 37 s \$0randomise;
#X obj 236 15 inlet;
#X obj 236 36 s \$0stop;
#X obj 28 324 r \$0stop;
#X text 16 56 Freq: values 0-~0.02 work best.;
#X text 195 142 When the patch loads \, paramters for alpha \, beta \, gamma \, a \, b and k are set according to those specified in (Yadegari \, 2003). When second inlet is banged \, all parameters are randomised slightly \, for a new oscillator sound.;
#X obj 200 727 outlet~;
#X obj 17 37 s~ \$0freq;
#X obj 17 16 inlet~;
#X obj 917 430 r~ \$0freq;
#X obj 344 328 random 61;
#X obj 344 349 expr ($f1 - 30) * 0.1;
#X obj 446 415 random 61;
#X obj 446 436 expr ($f1 - 30) * 0.1;
#X obj 539 245 random 61;
#X obj 539 266 expr ($f1 - 30) * 0.01;
#X obj 636 354 random 51;
#X obj 636 375 expr ($f1 - 25) * 0.001;
#X obj 739 286 random 61;
#X obj 739 307 expr ($f1 - 30) * 0.001;
#X obj 846 374 random 61;
#X obj 846 395 expr ($f1 - 30) * 0.01;
#X obj 200 201 r \$0start;
#X obj 241 423 r \$0start;
#X obj 343 416 r \$0start;
#X obj 444 267 r \$0start;
#X obj 546 332 r \$0start;
#X obj 676 396 r \$0start;
#X obj 752 397 r \$0start;
#X obj 171 16 inlet;
#X obj 171 37 s \$0start;
#X msg 200 255 set 1.16346 -0.0972335 -0.905656 0;
#X obj 262 222 t b b;
#X obj 200 705 clip~ -1 1;
#X obj 211 674 s \$0start;
#X obj 439 607 *~ 0.4;
#X obj 439 727 outlet~;
#X obj 439 705 clip~ -1 1;
#X obj 450 674 s \$0start;
#X obj 678 607 *~ 0.4;
#X obj 678 727 outlet~;
#X obj 678 705 clip~ -1 1;
#X obj 689 674 s \$0start;
#X obj 917 607 *~ 0.4;
#X obj 917 727 outlet~;
#X obj 917 705 clip~ -1 1;
#X obj 928 674 s \$0start;
#X obj 211 634 threshold~ 1 5 -1 5;
#X obj 450 634 threshold~ 1 5 -1 5;
#X obj 689 634 threshold~ 1 5 -1 5;
#X obj 928 634 threshold~ 1 5 -1 5;
#X connect 0 0 3 0;
#X connect 1 0 3 0;
#X connect 2 0 6 0;
#X connect 3 0 4 0;
#X connect 3 1 73 0;
#X connect 3 2 77 0;
#X connect 3 3 81 0;
#X connect 4 0 71 0;
#X connect 4 0 85 0;
#X connect 5 0 2 0;
#X connect 5 1 58 0;
#X connect 6 0 3 6;
#X connect 7 0 9 0;
#X connect 7 1 56 0;
#X connect 8 0 3 5;
#X connect 9 0 8 0;
#X connect 10 0 8 1;
#X connect 11 0 14 0;
#X connect 11 1 54 0;
#X connect 12 0 3 4;
#X connect 13 0 12 1;
#X connect 14 0 12 0;
#X connect 15 0 17 0;
#X connect 15 1 52 0;
#X connect 16 0 3 3;
#X connect 17 0 16 0;
#X connect 18 0 20 0;
#X connect 18 1 50 0;
#X connect 19 0 3 2;
#X connect 20 0 19 0;
#X connect 21 0 23 0;
#X connect 21 1 48 0;
#X connect 22 0 3 1;
#X connect 23 0 22 0;
#X connect 24 0 21 0;
#X connect 25 0 18 0;
#X connect 26 0 15 0;
#X connect 27 0 11 0;
#X connect 28 0 7 0;
#X connect 29 0 5 0;
#X connect 30 0 3 1;
#X connect 31 0 3 2;
#X connect 32 0 3 3;
#X connect 33 0 3 4;
#X connect 34 0 3 5;
#X connect 35 0 3 6;
#X connect 36 0 70 0;
#X connect 37 0 38 0;
#X connect 39 0 40 0;
#X connect 41 0 1 0;
#X connect 46 0 45 0;
#X connect 47 0 3 7;
#X connect 48 0 49 0;
#X connect 49 0 22 1;
#X connect 50 0 51 0;
#X connect 51 0 19 1;
#X connect 52 0 53 0;
#X connect 53 0 16 1;
#X connect 54 0 55 0;
#X connect 55 0 13 0;
#X connect 56 0 57 0;
#X connect 57 0 10 0;
#X connect 58 0 59 0;
#X connect 59 0 6 1;
#X connect 60 0 0 0;
#X connect 60 0 69 0;
#X connect 61 0 30 0;
#X connect 62 0 31 0;
#X connect 63 0 32 0;
#X connect 64 0 33 0;
#X connect 65 0 34 0;
#X connect 66 0 35 0;
#X connect 67 0 68 0;
#X connect 69 0 3 0;
#X connect 70 0 0 0;
#X connect 70 1 69 0;
#X connect 71 0 44 0;
#X connect 73 0 75 0;
#X connect 73 0 86 0;
#X connect 75 0 74 0;
#X connect 77 0 79 0;
#X connect 77 0 87 0;
#X connect 79 0 78 0;
#X connect 81 0 83 0;
#X connect 81 0 88 0;
#X connect 83 0 82 0;
#X connect 85 0 72 0;
#X connect 85 1 72 0;
#X connect 86 0 76 0;
#X connect 86 1 76 0;
#X connect 87 0 80 0;
#X connect 87 1 80 0;
#X connect 88 0 84 0;
#X connect 88 1 84 0;
