#N canvas 273 191 1175 692 10;
#X obj 21 69 r \$0start;
#X obj 131 70 r \$0randomise;
#X msg 21 126 start;
#X obj 114 203 r \$0stop;
#X msg 114 224 stop;
#X msg 169 153 set y1 0.2 0.1;
#X msg 322 241 0;
#X msg 353 199 0.3;
#X msg 473 178 -1;
#X msg 533 296 1;
#X msg 695 234 0.6;
#X msg 820 262 0.01;
#X obj 322 221 r \$0start;
#X obj 353 178 r \$0start;
#X obj 473 157 r \$0start;
#X obj 533 275 r \$0start;
#X obj 695 213 r \$0start;
#X obj 820 241 r \$0start;
#X obj 21 16 inlet;
#X obj 216 17 inlet;
#X obj 216 38 s \$0randomise;
#X obj 307 17 inlet;
#X obj 371 17 inlet;
#X obj 307 38 s \$0start;
#X obj 371 38 s \$0stop;
#X obj 477 32 loadbang;
#X obj 477 53 s \$0start;
#X obj 386 199 r \$0randomise;
#X obj 386 220 random 100;
#X obj 386 262 + 0.3;
#X text 346 104 Initialises a Duffing osciallator \, using default values specified in Yadegari \, 2003 \, p.4. These values can be randomised slightly \, creating a unique waveform.;
#X obj 507 178 r \$0randomise;
#X obj 507 199 random 100;
#X obj 603 258 r \$0randomise;
#X obj 603 279 random 100;
#X obj 603 321 + 1;
#X obj 726 234 r \$0randomise;
#X obj 726 255 random 100;
#X obj 726 297 + 0.6;
#X obj 820 385 *~ 0.4;
#X obj 820 406 outlet~;
#X obj 603 300 / 100;
#X obj 726 276 / 100;
#X obj 864 262 r \$0dt;
#X obj 21 37 s \$0dt;
#X obj 70 16 inlet;
#X obj 70 37 s \$0freq;
#X obj 277 195 r \$0freq;
#X obj 277 262 osc~ 82;
#X obj 386 241 / 100;
#X obj 507 220 / 10;
#X obj 507 241 expr $f1 - 5;
#X obj 727 39 inlet;
#X obj 727 60 route k alpha beta gamma, f 41;
#X obj 727 81 s \$0k;
#X obj 787 81 s \$0alpha;
#X obj 921 81 s \$0gamma;
#X obj 858 81 s \$0beta;
#X obj 401 291 r \$0k;
#X obj 449 291 r \$0alpha;
#X obj 644 300 r \$0beta;
#X obj 733 317 r \$0gamma;
#X obj 993 59 v duff\$0;
#X obj 131 91 t b b;
#X obj 21 90 t b b;
#X obj 169 342 fexpr~ duff\$0 = ($f7 * $f7 * ($f6 * $x2 - $f5 * $y2*$y2*$y2) + $y2*($f7 * $f3 - $f4 * $f7 * $f7 + 2)- $y2[-2])/(1+$f3*$f7) \; if(isnan(duff\$0) \, 0 \, duff\$0), f 109;
#X connect 0 0 64 0;
#X connect 1 0 63 0;
#X connect 2 0 65 0;
#X connect 3 0 4 0;
#X connect 4 0 65 0;
#X connect 5 0 65 0;
#X connect 6 0 48 1;
#X connect 7 0 65 2;
#X connect 8 0 65 3;
#X connect 9 0 65 4;
#X connect 10 0 65 5;
#X connect 11 0 65 6;
#X connect 12 0 6 0;
#X connect 13 0 7 0;
#X connect 14 0 8 0;
#X connect 15 0 9 0;
#X connect 16 0 10 0;
#X connect 17 0 11 0;
#X connect 18 0 44 0;
#X connect 19 0 20 0;
#X connect 21 0 23 0;
#X connect 22 0 24 0;
#X connect 25 0 26 0;
#X connect 27 0 28 0;
#X connect 28 0 49 0;
#X connect 29 0 65 2;
#X connect 31 0 32 0;
#X connect 32 0 50 0;
#X connect 33 0 34 0;
#X connect 34 0 41 0;
#X connect 35 0 65 4;
#X connect 36 0 37 0;
#X connect 37 0 42 0;
#X connect 38 0 65 5;
#X connect 39 0 40 0;
#X connect 41 0 35 0;
#X connect 42 0 38 0;
#X connect 43 0 65 6;
#X connect 45 0 46 0;
#X connect 47 0 48 0;
#X connect 48 0 65 1;
#X connect 49 0 29 0;
#X connect 50 0 51 0;
#X connect 51 0 65 3;
#X connect 52 0 53 0;
#X connect 53 0 54 0;
#X connect 53 1 55 0;
#X connect 53 2 57 0;
#X connect 53 3 56 0;
#X connect 58 0 65 2;
#X connect 59 0 65 3;
#X connect 60 0 65 4;
#X connect 61 0 65 5;
#X connect 63 0 2 0;
#X connect 63 1 5 0;
#X connect 64 0 2 0;
#X connect 64 1 5 0;
#X connect 65 1 39 0;
