#N canvas 622 416 1017 576 10;
#X floatatom 280 250 5 0 0 0 - - - 0;
#X floatatom 660 250 5 0 0 0 - - - 0;
#X msg 216 166 10;
#X floatatom 470 250 7 0 0 0 - - - 0;
#X floatatom 850 250 5 0 0 0 - - - 0;
#X msg 596 166 18;
#X obj 406 187 expr 8./3;
#X msg 118 165 stop;
#X msg 18 169 start;
#X msg 91 228 set 0.1 0 0;
#X obj 21 26 inlet;
#X obj 21 47 s \$0freq;
#X obj 81 26 inlet;
#X obj 81 47 s \$0randomise;
#X obj 172 26 inlet;
#X obj 172 47 s \$0start;
#X obj 240 26 inlet;
#X obj 240 47 s \$0stop;
#X obj 91 270 fexpr~ $y1 + $x2*($y2 - $y1) * $x5 \; $y2 + ($y1*($x4
- $y3) - $y2) * $x5 \; $y3 + ($y1*$y2 - $x3*$y3) * $x5, f 127;
#X obj 216 145 r \$0start;
#X obj 406 166 r \$0start;
#X obj 596 145 r \$0start;
#X obj 850 208 r \$0start;
#X obj 894 229 r \$0freq;
#X obj 280 145 r \$0randomise;
#X obj 470 166 r \$0randomise;
#X obj 470 187 random 100;
#X obj 470 208 / 1000;
#X obj 660 145 r \$0randomise;
#X obj 91 207 r \$0start;
#X obj 118 144 r \$0stop;
#X obj 18 83 r \$0start;
#X obj 27 143 r \$0randomise;
#X obj 342 25 loadbang;
#X obj 342 46 s \$0start;
#X msg 850 229 0.007;
#X obj 91 313 *~ 0.07;
#X obj 91 334 clip~ -1 1;
#X obj 91 355 outlet~;
#X obj 470 334 clip~ -1 1;
#X obj 470 355 outlet~;
#X obj 470 313 *~ 0.05;
#X obj 850 334 clip~ -1 1;
#X obj 850 355 outlet~;
#X obj 850 313 *~ 0.05;
#X floatatom 381 218 5 0 0 0 - - - 0;
#X obj 470 229 + 2.666;
#X obj 280 229 + 10;
#X obj 660 229 + 18;
#X obj 18 104 t b b;
#X obj 660 166 random 500;
#X obj 660 187 / 50;
#X obj 660 208 - 7.5;
#X obj 280 166 random 500;
#X obj 280 187 / 50;
#X obj 280 208 - 2.5;
#X obj 405 21 bng 15 250 50 0 empty empty empty 17 7 0 10 #fcfcfc #000000
#000000;
#X connect 0 0 18 1;
#X connect 1 0 18 3;
#X connect 2 0 0 0;
#X connect 3 0 18 2;
#X connect 4 0 18 4;
#X connect 5 0 1 0;
#X connect 6 0 3 0;
#X connect 6 0 45 0;
#X connect 7 0 18 0;
#X connect 8 0 18 0;
#X connect 9 0 18 0;
#X connect 10 0 11 0;
#X connect 12 0 13 0;
#X connect 14 0 15 0;
#X connect 16 0 17 0;
#X connect 18 0 36 0;
#X connect 18 1 41 0;
#X connect 18 2 44 0;
#X connect 19 0 2 0;
#X connect 20 0 6 0;
#X connect 21 0 5 0;
#X connect 22 0 35 0;
#X connect 23 0 4 0;
#X connect 24 0 53 0;
#X connect 25 0 26 0;
#X connect 26 0 27 0;
#X connect 27 0 46 0;
#X connect 28 0 50 0;
#X connect 29 0 9 0;
#X connect 30 0 7 0;
#X connect 31 0 49 0;
#X connect 32 0 8 0;
#X connect 33 0 34 0;
#X connect 35 0 4 0;
#X connect 36 0 37 0;
#X connect 37 0 38 0;
#X connect 39 0 40 0;
#X connect 41 0 39 0;
#X connect 42 0 43 0;
#X connect 44 0 42 0;
#X connect 46 0 3 0;
#X connect 47 0 0 0;
#X connect 48 0 1 0;
#X connect 49 0 8 0;
#X connect 49 1 7 0;
#X connect 50 0 51 0;
#X connect 51 0 52 0;
#X connect 52 0 48 0;
#X connect 53 0 54 0;
#X connect 54 0 55 0;
#X connect 55 0 47 0;
#X connect 56 0 34 0;
#X coords 0 576 1 575 200 120 0;
