#N canvas 226 317 1092 772 10;
#X floatatom 319 256 5 0 0 0 - - - 0;
#X floatatom 705 256 5 0 0 0 - - - 0;
#X floatatom 512 256 7 0 0 0 - - - 0;
#X floatatom 898 256 5 0 0 0 - - - 0;
#X msg 96 196 stop;
#X msg 17 142 start;
#X msg 449 193 0.1;
#X msg 641 172 14;
#X msg 127 244 set 0.1 0 0;
#X msg 253 193 0.1;
#X obj 127 276 fexpr~ $y1 + (-$y3 - $y2) * $f5 \; $y2 + ($y1 + $f2
* $y2) * $f5 \; $y3 + ($f3 + $y3 * ($y1 - $f4)) * $f5, f 129;
#X obj 19 21 inlet;
#X obj 19 42 s \$0freq;
#X obj 79 21 inlet;
#X obj 79 42 s \$0randomise;
#X obj 170 21 inlet;
#X obj 170 42 s \$0start;
#X obj 238 21 inlet;
#X obj 238 42 s \$0stop;
#X obj 253 172 r \$0start;
#X obj 449 172 r \$0start;
#X obj 641 151 r \$0start;
#X obj 898 214 r \$0start;
#X obj 96 175 r \$0stop;
#X obj 17 121 r \$0start;
#X obj 127 223 r \$0start;
#X obj 939 235 r \$0freq;
#X obj 319 172 r \$0randomise;
#X obj 319 193 random 100;
#X obj 319 214 / 1000;
#X obj 319 235 + 0.1;
#X obj 512 172 r \$0randomise;
#X obj 512 193 random 100;
#X obj 512 214 / 1000;
#X obj 512 235 + 0.1;
#X obj 705 151 r \$0randomise;
#X obj 705 172 random 1000;
#X obj 705 193 / 100;
#X obj 705 214 - 5;
#X obj 705 235 + 14;
#X obj 512 319 *~ 0.05;
#X obj 127 340 clip~ -1 1;
#X obj 127 361 outlet~;
#X obj 512 340 clip~ -1 1;
#X obj 512 361 outlet~;
#X obj 898 340 clip~ -1 1;
#X obj 898 361 outlet~;
#X text 16 71 Initialises a Rossler attractor with commonly used values
for a \, b and c. Randomise slightly changes these values for a unique
soudning attractor.;
#X msg 898 235 0.001;
#X obj 437 36 loadbang;
#X obj 127 319 *~ 0.05;
#X obj 898 319 *~ 0.05;
#X obj 437 57 s \$0start;
#X obj 82 121 r \$0randomise;
#X connect 0 0 10 1;
#X connect 1 0 10 3;
#X connect 2 0 10 2;
#X connect 3 0 10 4;
#X connect 4 0 10 0;
#X connect 5 0 10 0;
#X connect 6 0 2 0;
#X connect 7 0 1 0;
#X connect 8 0 10 0;
#X connect 9 0 0 0;
#X connect 10 0 50 0;
#X connect 10 1 40 0;
#X connect 10 2 51 0;
#X connect 11 0 12 0;
#X connect 13 0 14 0;
#X connect 15 0 16 0;
#X connect 17 0 18 0;
#X connect 19 0 9 0;
#X connect 20 0 6 0;
#X connect 21 0 7 0;
#X connect 22 0 48 0;
#X connect 23 0 4 0;
#X connect 24 0 5 0;
#X connect 25 0 8 0;
#X connect 26 0 3 0;
#X connect 27 0 28 0;
#X connect 28 0 29 0;
#X connect 29 0 30 0;
#X connect 30 0 0 0;
#X connect 31 0 32 0;
#X connect 32 0 33 0;
#X connect 33 0 34 0;
#X connect 34 0 2 0;
#X connect 35 0 36 0;
#X connect 36 0 37 0;
#X connect 37 0 38 0;
#X connect 38 0 39 0;
#X connect 39 0 1 0;
#X connect 40 0 43 0;
#X connect 41 0 42 0;
#X connect 43 0 44 0;
#X connect 45 0 46 0;
#X connect 48 0 3 0;
#X connect 49 0 52 0;
#X connect 50 0 41 0;
#X connect 51 0 45 0;
#X connect 53 0 5 0;
#X coords 0 772 1 771 200 120 0;
