#N canvas 489 323 266 300 10;
#X obj 26 55 phasor~;
#X obj 26 76 expr~ $v1 > $v2;
#X obj 26 34 inlet~;
#X obj 113 21 inlet~;
#X obj 162 21 loadbang;
#X msg 162 42 0.5;
#X obj 26 97 *~ 2;
#X obj 26 118 -~ 1;
#X obj 26 139 outlet~;
#X connect 0 0 1 0;
#X connect 1 0 6 0;
#X connect 2 0 0 0;
#X connect 3 0 1 1;
#X connect 4 0 5 0;
#X connect 5 0 1 1;
#X connect 6 0 7 0;
#X connect 7 0 8 0;
