#N canvas 386 233 389 374 10;
#X obj 26 21 inlet~;
#X obj 26 42 phasor~ 110;
#X obj 26 63 expr~ if($v1<0.5 \, $v1 \, ($v1*-1)+1);
#X obj 26 84 *~ 4;
#X obj 26 105 -~ 1;
#X obj 26 126 outlet~;
#X obj 89 21 inlet;
#X connect 0 0 1 0;
#X connect 1 0 2 0;
#X connect 2 0 3 0;
#X connect 3 0 4 0;
#X connect 4 0 5 0;
#X connect 6 0 1 1;
