#N struct scorer float x float y array system1 wave-element array system2 wave-element array system3 wave-element array system4 wave-element array system5 wave-element array system6 wave-element float label1 float label2 float label3 float label4 float label5 float label6 float sys1play float sys2play float sys3play float sys4play float sys5play float sys6play;
#N struct wave-element float y float w;
#N canvas 550 95 729 875 10;
#X obj 39 300 loadbang;
#X obj 313 502 loadbang;
#X msg 39 321 freq 0.02 \, shaper_amt 0.5 \, dry/wet 0.3 \, gain 10 \, vol 1;
#X msg 300 278 lo_cut \$1;
#X text 322 688 This is an example patch using two sound-generating modules ([chuapet~] and [feedbacker1~] \, and a control module ([choreographer]). Default values are loaded into each module to make sound straight away - simply turn up the [out~] volume to hear it. You can click 'new all' on [choreographer] to generate a new score \, then hit play to begin modulating the modules. Values have already been matched to the modules for appropriate modulation. Have fun!;
#X obj 433 236 * 0.3;
#X obj 433 257 + 0.3;
#X msg 433 278 dry/wet \$1;
#X obj 300 257 + 10000;
#X obj 300 236 * 5000;
#X msg 208 278 freq \$1;
#X obj 208 236 * 0.03;
#X obj 208 257 + 0.01;
#X obj 39 834 dac~;
#X obj 39 358 w.chuapet~;
#X obj 39 589 w.feedbacker1~;
#X obj 313 523 delay 5;
#X obj 208 16 w.choreographer;
#X msg 313 544 in 1 \, fdbck 2.1 \, delay 15 \, gain 1 \, glide 5 \, vibrato 0.1 \, vol 0.5;
#X connect 0 0 2 0;
#X connect 1 0 16 0;
#X connect 2 0 14 0;
#X connect 3 0 15 2;
#X connect 5 0 6 0;
#X connect 6 0 7 0;
#X connect 7 0 14 0;
#X connect 8 0 3 0;
#X connect 9 0 8 0;
#X connect 10 0 14 0;
#X connect 11 0 12 0;
#X connect 12 0 10 0;
#X connect 14 0 15 0;
#X connect 14 1 15 1;
#X connect 15 0 13 0;
#X connect 15 1 13 1;
#X connect 16 0 18 0;
#X connect 17 0 11 0;
#X connect 17 1 9 0;
#X connect 17 3 5 0;
#X connect 18 0 15 2;
