#N canvas 0 44 1798 930 10;
#X obj 935 17 v bit1\$0;
#X obj 935 38 v bit2\$0;
#X obj 935 59 v bit3\$0;
#X obj 935 80 v bit4\$0;
#X obj 997 17 v bit5\$0;
#X obj 997 38 v bit6\$0;
#X obj 997 59 v bit7\$0;
#X obj 997 80 v bit8\$0;
#X obj 1058 17 v rungler\$0;
#X obj 1058 38 v cv\$0;
#X obj 327 21 r~ cv\$0;
#X obj 671 327 s~ cv\$0;
#X obj 251 41 expr~ ($v2*($v3/1000))+$v1;
#X obj 684 21 r~ cv\$0;
#X obj 608 41 expr~ ($v2*($v3/1000))+$v1;
#X obj 294 558 expr~ $v1 > $v2;
#X text 390 559 PWM;
#X text 684 160 I think this is a rungler?;
#X text 684 223 ($x2[-8]<0)&&($x2[-7]>0);
#X text 684 240 and when this impulse is received \, it causes each bit in the register to take the value of the last - the last bit changes immediately \, and the first bit has its change delayed by 8 samples \, so all bits after can take the previous one's bit before it changes. The rungler itself converts all 8 bits to a floating point number \, whilst the cv\$0 output scales this to MIDI note values \, 0-127.;
#X obj 1135 17 v xor\$0;
#X text 414 41 Controlling CV Mod;
#X obj 742 474 r~ cv\$0;
#X obj 666 494 expr~ ($v2*($v3/1000))+$v1;
#X obj 294 621 s~ \$0pwm;
#X obj 251 115 s~ \$0tri1;
#X obj 324 142 s~ \$0sqr1;
#X obj 541 136 s~ \$0tri2;
#X obj 684 136 s~ \$0sqr2;
#X obj 314 361 s~ \$0xor;
#X obj 72 385 r~ \$0tri1;
#X obj 235 383 r~ \$0tri2;
#X obj 154 384 r~ \$0sqr1;
#X obj 398 383 r~ \$0pwm;
#X obj 473 383 r~ \$0xor;
#X obj 635 327 *~ 2;
#X obj 635 348 -~ 1;
#X obj 635 369 s~ \$0rungler;
#X obj 548 383 r~ \$0rungler;
#X obj 443 94 sig~ 0.5;
#X obj 800 95 sig~ 0.5;
#X obj 641 534 bob~, f 9;
#X msg 641 453 oversample 4;
#X obj 641 555 hip~ 20;
#X obj 641 576 hip~ 20;
#X obj 641 597 hip~ 20;
#X obj 641 432 loadbang;
#N canvas 1138 324 501 560 oversample 0;
#X obj 37 81 inlet~;
#X obj 37 349 *~ 0.125;
#X obj 37 374 rzero~ -1;
#X obj 37 399 rzero~ -1;
#X obj 37 424 rzero~ -1;
#X obj 37 458 outlet~;
#X obj 37 229 rpole~ 0.87467;
#X obj 37 203 *~ 0.12532;
#X obj 37 255 *~ 0.01668;
#X obj 37 282 cpole~ 0.9293 0.10812;
#X obj 37 318 cpole~ 0.9293 -0.10812;
#X obj 135 114 / 22050;
#N canvas 767 232 789 686 buttercoef3 0;
#X obj 119 96 inlet;
#X floatatom 582 159 5 0 0 0 - - - 0;
#X obj 159 199 t f f, f 7;
#X msg 159 151 0.667;
#X msg 139 329 0;
#X obj 575 316 loadbang;
#X obj 586 344 inlet;
#X obj 575 368 f;
#X obj 575 392 expr 1 - 2*$f1;
#X obj 119 124 t b b b f;
#X obj 266 277 * -1;
#X obj 221 277 t f f;
#X obj 119 437 f;
#X obj 66 533 outlet;
#X text 573 283 1 to normalize at Nyquist;
#X text 115 75 characteristic frequency \, 0(DC) to 1(Nyquist);
#X obj 341 533 outlet;
#X obj 497 533 outlet;
#X text 497 557 imag2a;
#X text 341 557 real1;
#X text 432 557 real2;
#X obj 558 533 outlet;
#X text 558 557 imag2b;
#X obj 431 533 outlet;
#X text 63 557 normalizer1;
#X obj 231 533 outlet;
#X text 228 557 normalizer2;
#X obj 231 482 expr (($f2-$f1)*($f2-$f1)+$f3*$f3);
#X obj 119 458 t f f;
#X obj 159 222 expr (1 - $f2*$f2) / (1 + $f2*$f2 + 2*$f2*cos($f1));
#X obj 221 250 expr 2*$f2*sin($f1) / (1 + $f2*$f2 + 2*$f2*cos($f1));
#X obj 139 353 expr (1 - $f2*$f2) / (1 + $f2*$f2 + 2*$f2*cos($f1));
#X obj 582 114 clip 0 1;
#X obj 582 136 expr tan($f1*1.57);
#X obj 159 176 expr $f1*1.5708;
#X text 573 297 0 to normalize at DC;
#X text 175 23 3-pole (or zero) Butterworth filter coefficient calculator;
#X text 203 152 "theta" in units of pi/2;
#X text 269 183 conjugate pair of pole/zero locations:;
#X text 255 200 real part: (1-r*r)/(1+r*r-2rcos(th));
#X text 306 275 imaginary part: 2rsin(th)/(...);
#X text 328 328 real-valued one \, theta=0;
#X obj 66 505 expr abs($f1-$f2);
#X text 55 624 Taken from Pd Help File 'J07.oversampling.pd';
#X connect 0 0 9 0;
#X connect 1 0 29 1;
#X connect 1 0 30 1;
#X connect 1 0 31 1;
#X connect 2 0 29 0;
#X connect 2 1 30 0;
#X connect 3 0 34 0;
#X connect 4 0 31 0;
#X connect 5 0 7 0;
#X connect 6 0 7 0;
#X connect 7 0 8 0;
#X connect 8 0 12 1;
#X connect 9 0 12 0;
#X connect 9 1 4 0;
#X connect 9 2 3 0;
#X connect 9 3 32 0;
#X connect 10 0 21 0;
#X connect 11 0 17 0;
#X connect 11 0 27 2;
#X connect 11 1 10 0;
#X connect 12 0 28 0;
#X connect 27 0 25 0;
#X connect 28 0 42 0;
#X connect 28 1 27 0;
#X connect 29 0 23 0;
#X connect 29 0 27 1;
#X connect 30 0 11 0;
#X connect 31 0 16 0;
#X connect 31 0 42 1;
#X connect 32 0 33 0;
#X connect 33 0 1 0;
#X connect 34 0 2 0;
#X connect 42 0 13 0;
#X restore 135 155 pd buttercoef3;
#X obj 182 6 loadbang;
#X obj 182 71 samplerate~;
#X obj 319 77 block~ 256 1 8;
#X text 251 251 Oversampling x8 for any sample rate;
#X obj 182 92 / 2;
#X obj 182 27 t b b;
#X obj 135 135 / 8;
#X msg 135 92 50000;
#X connect 0 0 7 0;
#X connect 1 0 2 0;
#X connect 2 0 3 0;
#X connect 3 0 4 0;
#X connect 4 0 5 0;
#X connect 6 0 8 0;
#X connect 7 0 6 0;
#X connect 8 0 9 0;
#X connect 9 0 10 0;
#X connect 9 1 10 1;
#X connect 10 0 1 0;
#X connect 11 0 19 0;
#X connect 12 0 7 1;
#X connect 12 0 1 1;
#X connect 12 1 8 1;
#X connect 12 2 6 1;
#X connect 12 3 9 2;
#X connect 12 3 10 2;
#X connect 12 4 9 3;
#X connect 12 5 10 3;
#X connect 13 0 18 0;
#X connect 14 0 17 0;
#X connect 17 0 11 1;
#X connect 18 0 20 0;
#X connect 18 1 14 0;
#X connect 19 0 12 0;
#X connect 20 0 11 0;
#X restore 641 662 pd oversample;
#X obj 641 734 *~;
#X obj 641 796 outlet~;
#X obj 656 692 r \$0vol;
#X obj 656 713 sig~;
#X obj 294 537 r~ \$0tri1;
#X obj 381 537 r~ \$0tri2;
#X obj 21 23 cnv 16 106 16 empty empty w.benjolin~ 4 8 1 12 #551312 #ffffff 0;
#X obj 24 55 hsl 136 16 0.001 20000 1 0 \$0osc1 \$0osc1In osc1:\ 51.9Hz 16 7 1 10 #ffffff #000000 #ff0400 0 1;
#X obj 24 71 hsl 136 16 0.001 20000 1 0 \$0osc2 \$0osc2In osc2:\ 48.9Hz 16 7 1 10 #ffffff #000000 #0400ff 0 1;
#X obj 165 55 hsl 72 16 0 1000 0 0 \$0r1 \$0r1In r1:\ x0 15 7 1 10 #fcfcfc #000000 #ff0400 0 1;
#X obj 165 71 hsl 72 16 0 1000 0 0 \$0r2 \$0r2In r2:\ x0 15 7 1 10 #fcfcfc #000000 #0400ff 0 1;
#X obj 24 87 hsl 104 16 0.1 0.9 0 0 \$0pwm1 \$0pwm1In pw1:\ x0.4 15 7 1 10 #ffffff #000000 #ff0400 0 1;
#X obj 133 87 hsl 104 16 0.1 0.9 0 0 \$0pwm2 \$0pwm2In pw2:\ x0.5 15 7 1 10 #ffffff #000000 #0400ff 0 1;
#X obj 165 119 hsl 72 16 0 5 0 0 \$0q \$0qIn Q:\ 0 15 7 1 10 #fcfcfc #000000 #000000 0 1;
#X obj 24 202 tgl 16 0 \$0tri1On \$0tri1OnIn tri1 2 -8 1 10 #fcfcfc #000000 #000000 0 1;
#X obj 50 202 tgl 16 0 \$0sqr1On \$0sqr1OnIn sqr1 0 -8 1 10 #fcfcfc #000000 #000000 0 1;
#X obj 76 202 tgl 16 0 \$0tri2On \$0tri2OnIn tri2 2 -8 1 10 #fcfcfc #000000 #000000 0 1;
#X obj 102 202 tgl 16 0 \$0sqr2On \$0sqr2OnIn sqr2 0 -8 1 10 #fcfcfc #000000 #000000 0 1;
#X obj 128 202 tgl 16 0 \$0pwmOn \$0pwmOnIn pwm -2 -8 1 10 #fcfcfc #000000 #000000 0 1;
#X obj 154 202 tgl 16 0 \$0xorOn \$0xorOnIn xor 2 -8 1 10 #fcfcfc #000000 #000000 0 1;
#X obj 180 202 tgl 16 0 \$0rungOn \$0rungOnIn rung -1 -8 1 10 #fcfcfc #000000 #000000 0 1;
#N canvas 0 22 450 278 (subpatch) 0;
#X array \$0graph 441 float 0;
#X coords 0 2 440 -2 218 50 1 0 0;
#X restore 21 135 graph;
#X obj 24 103 hsl 136 16 0.001 20000 1 0 \$0cutoff \$0cutoffIn cutoff:\ 611.9Hz 16 7 1 10 #ffffff #000000 #000000 0 1;
#X obj 693 734 loadbang;
#X msg 693 755 1;
#X obj 693 797 tabwrite~ \$0graph;
#X obj 693 776 metro 100;
#X obj 72 448 *~;
#X obj 87 406 r \$0tri1On;
#X obj 87 427 line~ 5;
#X obj 154 447 *~;
#X obj 169 426 line~ 5;
#X obj 169 405 r \$0sqr1On;
#X obj 235 446 *~;
#X obj 250 425 line~ 5;
#X obj 250 404 r \$0tri2On;
#X obj 314 319 *~ 2;
#X obj 314 340 -~ 1;
#X obj 251 21 r \$0osc1;
#X obj 608 21 r \$0osc2;
#X obj 404 21 r \$0r1;
#X obj 761 21 r \$0r2;
#X obj 316 446 *~;
#X obj 331 425 line~ 5;
#X obj 331 404 r \$0sqr2On;
#X text 684 173 Data input is on left \, a square wave is made unipolar and XOR'd with bit 8 Clock is on the right \, another square wave. An impulse is created when the wave changes polarity from negative to positive:;
#X obj 398 446 *~;
#X obj 413 425 line~ 5;
#X obj 413 404 r \$0pwmOn;
#X obj 473 446 *~;
#X obj 488 425 line~ 5;
#X obj 488 404 r \$0xorOn;
#X obj 548 446 *~;
#X obj 563 425 line~ 5;
#X obj 563 404 r \$0rungOn;
#X obj 165 103 hsl 72 16 0 1000 0 0 \$0filtR \$0filtRIn filt_r:\ x0 10 7 1 10 #ffffff #000000 #000000 0 1;
#X obj 666 474 r \$0cutoff;
#X obj 819 474 r \$0filtR;
#X obj 692 514 r \$0q;
#N canvas 383 278 679 644 sliderdisplay 0;
#X msg 22 115 label \$1;
#X obj 22 53 int;
#X msg 203 124 label \$1;
#X obj 203 61 int;
#X obj 22 32 * 10;
#X obj 22 74 / 10;
#X msg 22 263 label \$1;
#X obj 22 201 int;
#X obj 22 180 * 10;
#X obj 22 222 / 10;
#X msg 22 414 label \$1;
#X obj 22 352 int;
#X obj 22 331 * 10;
#X obj 22 373 / 10;
#X obj 22 310 r \$0cutoff;
#X msg 22 393 symbol cutoff:\\\ \$1Hz;
#X obj 22 435 s \$0cutoffIn;
#X msg 353 124 label \$1;
#X obj 353 61 int;
#X obj 353 39 * 100;
#X obj 353 82 / 100;
#X msg 365 455 label \$1;
#X obj 365 392 int;
#X obj 365 370 * 100;
#X obj 365 413 / 100;
#X msg 365 434 symbol Q:\\\ \$1;
#X obj 365 349 r \$0q;
#X obj 365 476 s \$0qIn;
#X msg 73 573 label \$1;
#X obj 73 510 int;
#X obj 73 488 * 100;
#X obj 73 531 / 100;
#X obj 73 467 r \$0vol;
#X msg 73 552 symbol vol:\\\ \$1;
#X obj 73 594 s \$0volIn;
#X obj 22 11 r \$0osc1;
#X msg 22 94 symbol osc1:\\\ \$1Hz;
#X obj 22 136 s \$0osc1In;
#X obj 22 159 r \$0osc2;
#X msg 22 242 symbol osc2:\\\ \$1Hz;
#X obj 22 284 s \$0osc2In;
#X obj 203 19 r \$0r1;
#X obj 203 145 s \$0r1In;
#X msg 203 103 symbol r1:\\\ x\$1;
#X msg 199 292 label \$1;
#X obj 199 228 int;
#X obj 199 186 r \$0r2;
#X obj 199 313 s \$0r2In;
#X msg 199 271 symbol r2:\\\ x\$1;
#X obj 353 18 r \$0pwm1;
#X obj 353 145 s \$0pwm1In;
#X msg 201 478 label \$1;
#X obj 201 415 int;
#X obj 201 373 r \$0filtR;
#X obj 201 499 s \$0filtRIn;
#X msg 201 457 symbol filt_r:\\\ x\$1;
#X obj 203 82 / 100;
#X obj 203 40 / 10;
#X obj 199 207 / 10;
#X obj 199 249 / 100;
#X obj 201 394 / 10;
#X obj 201 436 / 100;
#X msg 353 103 symbol pw1:\\\ x\$1;
#X msg 466 265 label \$1;
#X obj 466 202 int;
#X obj 466 180 * 100;
#X obj 466 223 / 100;
#X obj 466 159 r \$0pwm2;
#X obj 466 286 s \$0pwm2In;
#X msg 466 244 symbol pw2:\\\ x\$1;
#X connect 0 0 37 0;
#X connect 1 0 5 0;
#X connect 2 0 42 0;
#X connect 3 0 56 0;
#X connect 4 0 1 0;
#X connect 5 0 36 0;
#X connect 6 0 40 0;
#X connect 7 0 9 0;
#X connect 8 0 7 0;
#X connect 9 0 39 0;
#X connect 10 0 16 0;
#X connect 11 0 13 0;
#X connect 12 0 11 0;
#X connect 13 0 15 0;
#X connect 14 0 12 0;
#X connect 15 0 10 0;
#X connect 17 0 50 0;
#X connect 18 0 20 0;
#X connect 19 0 18 0;
#X connect 20 0 62 0;
#X connect 21 0 27 0;
#X connect 22 0 24 0;
#X connect 23 0 22 0;
#X connect 24 0 25 0;
#X connect 25 0 21 0;
#X connect 26 0 23 0;
#X connect 28 0 34 0;
#X connect 29 0 31 0;
#X connect 30 0 29 0;
#X connect 31 0 33 0;
#X connect 32 0 30 0;
#X connect 33 0 28 0;
#X connect 35 0 4 0;
#X connect 36 0 0 0;
#X connect 38 0 8 0;
#X connect 39 0 6 0;
#X connect 41 0 57 0;
#X connect 43 0 2 0;
#X connect 44 0 47 0;
#X connect 45 0 59 0;
#X connect 46 0 58 0;
#X connect 48 0 44 0;
#X connect 49 0 19 0;
#X connect 51 0 54 0;
#X connect 52 0 61 0;
#X connect 53 0 60 0;
#X connect 55 0 51 0;
#X connect 56 0 43 0;
#X connect 57 0 3 0;
#X connect 58 0 45 0;
#X connect 59 0 48 0;
#X connect 60 0 52 0;
#X connect 61 0 55 0;
#X connect 62 0 17 0;
#X connect 63 0 68 0;
#X connect 64 0 66 0;
#X connect 65 0 64 0;
#X connect 66 0 69 0;
#X connect 67 0 65 0;
#X connect 69 0 63 0;
#X restore 187 508 pd sliderdisplay;
#X obj 443 73 r \$0pwm1;
#X obj 800 74 r \$0pwm1;
#X obj 294 579 *~ 2;
#X obj 294 600 -~ 1;
#X obj 314 166 fexpr~ xor\$0 = (($x1+1)*0.5) ^ bit8\$0 \; bit1\$0 = if(($x2[-8]<0)&&($x2[-7]>0) \, xor\$0 \, bit1\$0) \; bit2\$0 = if(($x2[-7]<0)&&($x2[-6]>0) \, bit1\$0 \, bit2\$0) \; bit3\$0 = if(($x2[-6]<0)&&($x2[-5]>0) \, bit2\$0 \, bit3\$0) \; bit4\$0 = if(($x2[-5]<0)&&($x2[-4]>0) \, bit3\$0 \, bit4\$0) \; bit5\$0 = if(($x2[-4]<0)&&($x2[-3]>0) \, bit4\$0 \, bit5\$0) \; bit6\$0 = if(($x2[-3]<0)&&($x2[-2]>0) \, bit5\$0 \, bit6\$0) \; bit7\$0 = if(($x2[-2]<0)&&($x2[-1]>0) \, bit6\$0 \, bit7\$0) \; bit8\$0 = if(($x2[-1]<0)&&($x2>0) \, bit7\$0 \, bit8\$0) \; rungler\$0 = (bit1\$0/256)+(bit2\$0/128)+(bit3\$0/64)+(bit4\$0/32)+(bit5\$0/16)+(bit6\$0/8)+(bit7\$0/4)+(bit8\$0/2) \; cv\$0 = mtof(rungler\$0*127) \;;
#X obj 61 507 loadbang;
#X msg 61 601 20000;
#X obj 61 622 s \$0cutoffIn;
#X obj 641 618 fexpr~ tanh($x1);
#X msg 78 535 0.5;
#X obj 78 565 s \$0pwm1In;
#X obj 150 565 s \$0pwm2In;
#X obj 641 639 slop~ 22050 0.3 0 0.3 0;
#X obj 925 394 inlet;
#X obj 925 471 s \$0osc1In;
#X obj 945 492 s \$0osc2In;
#X obj 966 670 s \$0r1In;
#X obj 996 732 s \$0r2In;
#X obj 1032 556 s \$0pwm1In;
#X obj 1061 577 s \$0pwm2In;
#X obj 1090 598 s \$0cutoffIn;
#X obj 1119 620 s \$0filtRIn;
#X obj 1148 643 s \$0qIn;
#X obj 1177 665 s \$0volIn;
#N canvas 268 104 999 950 presetSave 0;
#X obj 126 397 r \$0preset;
#X obj 44 107 r \$0write;
#X obj 186 443 loadbang;
#X msg 186 545 0;
#X obj 246 543 f;
#X obj 246 500 r \$0load;
#X obj 261 521 r \$0preset;
#X obj 103 607 s \$0presetIn;
#X obj 44 128 t b b;
#X obj 186 515 t b b;
#X msg 44 149 write presets/benjolinPresets.txt;
#X msg 64 736 read presets/benjolinPresets.txt;
#X obj 258 628 s \$0osc1In;
#X obj 330 628 s \$0osc2In;
#X obj 402 628 s \$0r1In;
#X obj 475 628 s \$0r2In;
#X obj 547 628 s \$0pwm1In;
#X obj 619 628 s \$0pwm2In;
#X obj 692 628 s \$0cutoffIn;
#X obj 764 650 s \$0filtRIn;
#X obj 836 628 s \$0qIn;
#X obj 909 628 s \$0volIn;
#X obj 186 606 unpack f f f f f f f f f f f, f 121;
#X obj 167 333 r \$0osc1;
#X obj 233 333 r \$0osc2;
#X obj 299 333 r \$0r1;
#X obj 364 333 r \$0r2;
#X obj 430 333 r \$0pwm1;
#X obj 496 333 r \$0pwm2;
#X obj 562 333 r \$0cutoff;
#X obj 627 312 r \$0filtR;
#X obj 693 333 r \$0q;
#X obj 759 333 r \$0vol;
#X obj 71 374 pack f f f f f f f f f f f, f 121;
#X obj 186 585 text get \$0benjolinPresets;
#X obj 71 418 text set \$0benjolinPresets;
#X obj 44 766 text define \$0benjolinPresets;
#X obj 186 464 delay 5;
#X connect 0 0 35 1;
#X connect 1 0 8 0;
#X connect 2 0 37 0;
#X connect 3 0 7 0;
#X connect 3 0 34 0;
#X connect 4 0 34 0;
#X connect 5 0 4 0;
#X connect 6 0 4 1;
#X connect 8 0 10 0;
#X connect 8 1 33 0;
#X connect 9 0 3 0;
#X connect 9 1 11 0;
#X connect 10 0 36 0;
#X connect 11 0 36 0;
#X connect 22 1 12 0;
#X connect 22 2 13 0;
#X connect 22 3 14 0;
#X connect 22 4 15 0;
#X connect 22 5 16 0;
#X connect 22 6 17 0;
#X connect 22 7 18 0;
#X connect 22 8 19 0;
#X connect 22 9 20 0;
#X connect 22 10 21 0;
#X connect 23 0 33 1;
#X connect 24 0 33 2;
#X connect 25 0 33 3;
#X connect 26 0 33 4;
#X connect 27 0 33 5;
#X connect 28 0 33 6;
#X connect 29 0 33 7;
#X connect 30 0 33 8;
#X connect 31 0 33 9;
#X connect 32 0 33 10;
#X connect 33 0 35 0;
#X connect 34 0 22 0;
#X connect 37 0 9 0;
#X restore 129 692 pd presetSave;
#X obj 24 119 hsl 136 16 0 1 0 0 \$0vol \$0volIn vol:\ 0.57 15 7 1 10 #fcfcfc #000000 #000000 0 1;
#X obj 314 115 abstractions/w.square~;
#X obj 251 93 abstractions/w.tri~;
#X obj 541 115 abstractions/w.tri~;
#X obj 671 115 abstractions/w.square~;
#X obj 21 39 hradio 16 1 0 8 \$0preset \$0presetIn empty 0 -8 0 10 #fcfcfc #000000 #000000 0;
#X obj 150 39 bng 16 250 50 0 \$0write \$0writeIn wrt 19 3 1 10 #fcfcfc #000000 #000000;
#X obj 187 39 bng 16 250 50 0 \$0load \$0loadIn lod 19 3 1 10 #fcfcfc #000000 #000000;
#X obj 925 415 route osc1 osc2 r1 r2 pw1 pw2 cutoff filt_r Q vol tri1 sqr1 tri2 sqr2 pwm xor rung;
#X obj 1334 777 s \$0pwmOnIn;
#X obj 1360 799 s \$0xorOnIn;
#X obj 1396 822 s \$0rungOnIn;
#X obj 1232 709 s \$0sqr1OnIn;
#X obj 1203 687 s \$0tri1OnIn;
#X obj 966 650 * 1000;
#X obj 996 711 * 1000;
#X obj 316 383 r~ \$0sqr2;
#X obj 1264 732 s \$0tri2OnIn;
#X obj 1293 754 s \$0sqr2OnIn;
#X connect 10 0 12 1;
#X connect 12 0 134 0;
#X connect 12 0 135 0;
#X connect 13 0 14 1;
#X connect 14 0 136 0;
#X connect 14 0 137 0;
#X connect 15 0 110 0;
#X connect 22 0 23 1;
#X connect 23 0 41 1;
#X connect 30 0 75 0;
#X connect 31 0 81 0;
#X connect 32 0 78 0;
#X connect 33 0 94 0;
#X connect 34 0 97 0;
#X connect 35 0 36 0;
#X connect 36 0 37 0;
#X connect 38 0 100 0;
#X connect 39 0 134 1;
#X connect 40 0 137 1;
#X connect 41 0 43 0;
#X connect 42 0 41 0;
#X connect 43 0 44 0;
#X connect 44 0 45 0;
#X connect 45 0 116 0;
#X connect 46 0 42 0;
#X connect 47 0 48 0;
#X connect 48 0 49 0;
#X connect 48 0 73 0;
#X connect 50 0 51 0;
#X connect 51 0 48 1;
#X connect 52 0 15 0;
#X connect 53 0 15 1;
#X connect 71 0 72 0;
#X connect 72 0 74 0;
#X connect 74 0 73 0;
#X connect 75 0 41 0;
#X connect 76 0 77 0;
#X connect 77 0 75 1;
#X connect 78 0 41 0;
#X connect 79 0 78 1;
#X connect 80 0 79 0;
#X connect 81 0 41 0;
#X connect 82 0 81 1;
#X connect 83 0 82 0;
#X connect 84 0 85 0;
#X connect 85 0 29 0;
#X connect 86 0 12 0;
#X connect 87 0 14 0;
#X connect 88 0 12 2;
#X connect 89 0 14 2;
#X connect 90 0 41 0;
#X connect 91 0 90 1;
#X connect 92 0 91 0;
#X connect 94 0 41 0;
#X connect 95 0 94 1;
#X connect 96 0 95 0;
#X connect 97 0 41 0;
#X connect 98 0 97 1;
#X connect 99 0 98 0;
#X connect 100 0 41 0;
#X connect 101 0 100 1;
#X connect 102 0 101 0;
#X connect 104 0 23 0;
#X connect 105 0 23 2;
#X connect 106 0 41 2;
#X connect 108 0 39 0;
#X connect 109 0 40 0;
#X connect 110 0 111 0;
#X connect 111 0 24 0;
#X connect 112 0 84 0;
#X connect 112 9 35 0;
#X connect 112 10 11 0;
#X connect 113 0 114 0;
#X connect 113 0 117 0;
#X connect 114 0 115 0;
#X connect 116 0 120 0;
#X connect 117 0 118 0;
#X connect 117 0 119 0;
#X connect 120 0 47 0;
#X connect 121 0 141 0;
#X connect 134 0 26 0;
#X connect 134 0 112 0;
#X connect 135 0 25 0;
#X connect 136 0 27 0;
#X connect 137 0 28 0;
#X connect 137 0 112 1;
#X connect 141 0 122 0;
#X connect 141 1 123 0;
#X connect 141 2 147 0;
#X connect 141 3 148 0;
#X connect 141 4 126 0;
#X connect 141 5 127 0;
#X connect 141 6 128 0;
#X connect 141 7 129 0;
#X connect 141 8 130 0;
#X connect 141 9 131 0;
#X connect 141 10 146 0;
#X connect 141 11 145 0;
#X connect 141 12 150 0;
#X connect 141 13 151 0;
#X connect 141 14 142 0;
#X connect 141 15 143 0;
#X connect 141 16 144 0;
#X connect 147 0 124 0;
#X connect 148 0 125 0;
#X connect 149 0 90 0;
#X coords 0 -1 1 1 220 205 2 20 20;
