#N canvas 179 223 492 233 10;
#X obj 11 8 cnv 15 100 60 empty empty chuapet~\ Help 7 12 1 18 #ffffff #404040 0;
#X obj 0 38 cnv 15 250 160 empty empty empty 20 12 0 14 #e0e0e0 #404040 0;
#X text 7 94 Inlets:;
#X text 26 126 key-word + \$1 in *message* box);
#X text 8 160 1: (signal) left signal out;
#X text 8 174 2: (signal) right signal out;
#X text 7 146 Outlets:;
#X text 7 44 chaotic oscillator based on Chua's;
#X text 7 58 circuit. the circuit is waveshaped;
#X text 8 72 by it's own output.;
#X text 7 111 1: (control) modulation routing (slider;
#X msg 258 50 Q \$1;
#X obj 258 8 loadbang;
#X msg 258 29 2;
#X obj 258 71 w.chuapet~;
#X connect 11 0 14 0;
#X connect 12 0 13 0;
#X connect 13 0 11 0;
