#N canvas 447 172 618 288 10;
#X obj 11 40 cnv 15 100 60 empty empty feedbacker1~\ Help 7 12 1 18 #ffffff #404040 0;
#X obj 0 70 cnv 15 250 190 empty empty empty 20 12 0 14 #e0e0e0 #404040 0;
#X text 7 76 non-linear feedback loop. left side;
#X text 7 90 controls Perlin noise and line-in;
#X text 8 104 whilst right side controls the loop.;
#X text 7 128 Inlets:;
#X text 8 156 2: (signal) right line-in;
#X text 8 142 1: (signal) left line-in;
#X text 27 186 key-word + \$1 in *message* box);
#X text 8 221 1: (signal) left signal out;
#X text 8 235 2: (signal) right signal out;
#X text 7 207 Outlets:;
#X text 8 171 3: (control) modulation routing (slider;
#X obj 523 8 loadbang;
#X msg 523 29 2;
#X msg 523 50 fdbck_lvl \$1;
#X obj 262 71 w.feedbacker1~;
#X connect 13 0 14 0;
#X connect 14 0 15 0;
#X connect 15 0 16 2;
