#N canvas 364 44 1436 1043 10;
#X obj 24 69 hsl 128 16 0 1 0 0 \$0noiselvl \$0noiseLvlIn noise:\ 0 10 8 1 10 #ffffff #000000 #000000 0 1;
#X obj 24 117 hsl 128 16 20 20000 1 0 \$0noisecut \$0noiseCutIn noise_cut:\ 20000Hz 10 8 1 10 #ffffff #000000 #000000 0 1;
#X obj 24 133 hsl 128 16 1 6 0 0 \$0noiseres \$0noiseResIn noise_res:\ 1 10 8 1 10 #fcfcfc #000000 #000000 0 1;
#X obj 157 69 hsl 128 16 0 4 0 0 \$0fdbcklvl \$0fdbckLvlIn fdbck:\ 1.38 10 8 1 10 #fcfcfc #000000 #000000 0 1;
#X obj 157 85 hsl 128 16 20 20000 1 0 \$0fdbckcut \$0fdbckCutIn lo:\ 1928.77Hz 10 8 1 10 #fcfcfc #000000 #000000 0 1;
#X obj 157 101 hsl 128 16 0 5 0 0 \$0fdbckres \$0fdbckResIn fdbck_res:\ 0 10 8 1 10 #fcfcfc #000000 #000000 0 1;
#X obj 482 839 clip~ -1 1;
#X obj 482 481 fexpr~ tanh($x1 * $x2);
#X obj 611 338 r \$0fdbcklvl;
#X obj 482 640 bob~, f 7;
#X obj 501 612 sig~;
#X obj 501 503 r \$0fdbckcut;
#X obj 157 133 hsl 128 16 5 2048 1 0 \$0fdbckdelay \$0fdbckDelayIn delay:\ 12.29ms 10 8 1 10 #fcfcfc #000000 #000000 0 1;
#X obj 482 9 r \$0fdbckdelay;
#N canvas 0 22 450 278 (subpatch) 0;
#X array \$0-GRAPHER 441 float 5;
#A 0 0.00165884 0.00207858 0.00248886 0.00286233 0.00317374 0.00340067 0.00352409 0.00352889 0.00340422 0.00314377 0.00274584 0.00221333 0.00155352 0.00077778 -9.88562e-05 -0.00105827 -0.00207982 -0.00314108 -0.00421845 -0.00528791 -0.0063257 -0.007309 -0.00821648 -0.00902888 -0.0097294 -0.0103041 -0.0107421 -0.0110357 -0.0111806 -0.0111758 -0.0110236 -0.0107291 -0.0103006 -0.00974896 -0.00908738 -0.00833108 -0.00749697 -0.00660316 -0.00566863 -0.00471278 -0.00375505 -0.00281449 -0.00190938 -0.00105686 -0.000272588 0.000429595 0.00103786 0.00154257 0.00193641 0.00221441 0.002374 0.00241496 0.00233939 0.00215164 0.00185822 0.00146765 0.000990313 0.000438177 -0.000175457 -0.000836303 -0.00152946 -0.00223982 -0.00295241 -0.00365288 -0.00432779 -0.00496504 -0.00555418 -0.00608672 -0.00655637 -0.00695919 -0.00729377 -0.0075612 -0.00776502 -0.00791115 -0.00800761 -0.00806437 -0.00809296 -0.0081062 -0.00811775 -0.00814178 -0.00819257 -0.00828408 -0.00842963 -0.00864151 -0.00893065 -0.00930636 -0.00977602 -0.010345 -0.0110162 -0.0117906 -0.0126666 -0.0136401 -0.0147051 -0.0158533 -0.0170742 -0.0183559 -0.0196847 -0.0210456 -0.0224227 -0.0237993 -0.0251585 -0.0264835 -0.0277579 -0.0289666 -0.0300954 -0.031132 -0.0320663 -0.03289 -0.0335977 -0.0341863 -0.0346551 -0.0350062 -0.0352443 -0.0353763 -0.0354116 -0.0353616 -0.0352395 -0.03506 -0.0348391 -0.0345933 -0.0343395 -0.0340944 -0.033874 -0.0336936 -0.033567 -0.0335063 -0.0335215 -0.0336207 -0.0338093 -0.0340903 -0.0344643 -0.0349292 -0.0354806 -0.0361117 -0.0368138 -0.0375763 -0.038387 -0.0392328 -0.0400998 -0.0409736 -0.0418403 -0.0426863 -0.0434989 -0.0442666 -0.0449795 -0.0456294 -0.0462098 -0.0467167 -0.0471477 -0.0475032 -0.0477857 -0.0480005 -0.0481555 -0.0482612 -0.048331 -0.0483808 -0.0484291 -0.0484967 -0.0486063 -0.0487824 -0.0490505 -0.0494368 -0.0499677 -0.0506692 -0.0515662 -0.0526819 -0.0540378 -0.0556524 -0.0575417 -0.059718 -0.0621902 -0.0649633 -0.068038 -0.0714112 -0.0750756 -0.0790198 -0.0832285 -0.0876827 -0.0923602 -0.0972356 -0.102281 -0.107465 -0.112757 -0.118124 -0.123529 -0.128941 -0.134324 -0.139646 -0.144875 -0.149983 -0.154942 -0.159731 -0.164329 -0.168721 -0.172895 -0.176843 -0.180562 -0.184051 -0.187315 -0.19036 -0.193195 -0.195832 -0.198284 -0.200566 -0.202693 -0.204679 -0.206539 -0.208287 -0.209936 -0.211496 -0.212976 -0.214383 -0.215721 -0.216992 -0.218194 -0.219325 -0.220378 -0.221346 -0.222219 -0.222985 -0.223632 -0.224144 -0.224508 -0.224709 -0.224733 -0.224565 -0.224192 -0.223602 -0.222786 -0.221735 -0.220444 -0.218908 -0.217129 -0.21511 -0.212856 -0.210377 -0.207687 -0.204801 -0.20174 -0.198524 -0.19518 -0.191733 -0.188212 -0.184646 -0.181065 -0.177499 -0.173975 -0.170521 -0.167162 -0.163921 -0.160817 -0.157866 -0.15508 -0.152467 -0.150032 -0.147775 -0.145693 -0.143778 -0.14202 -0.140407 -0.138923 -0.137552 -0.136276 -0.135078 -0.13394 -0.132846 -0.13178 -0.13073 -0.129684 -0.128633 -0.127571 -0.126495 -0.125404 -0.1243 -0.123188 -0.122076 -0.120974 -0.119893 -0.118846 -0.117849 -0.116918 -0.116068 -0.115316 -0.114678 -0.114168 -0.1138 -0.113585 -0.113534 -0.113654 -0.113951 -0.114426 -0.11508 -0.115909 -0.116908 -0.118069 -0.11938 -0.120826 -0.122393 -0.12406 -0.125809 -0.127616 -0.12946 -0.131316 -0.133161 -0.134973 -0.13673 -0.138411 -0.139998 -0.141476 -0.142831 -0.144054 -0.145136 -0.146075 -0.146868 -0.147516 -0.148024 -0.148397 -0.148643 -0.14877 -0.148789 -0.148709 -0.148543 -0.148301 -0.147994 -0.147633 -0.147228 -0.146787 -0.146319 -0.145831 -0.145327 -0.14481 -0.144283 -0.143745 -0.143192 -0.142622 -0.142026 -0.141398 -0.140728 -0.140004 -0.139214 -0.138347 -0.137389 -0.136329 -0.135154 -0.133854 -0.132421 -0.130846 -0.129124 -0.127253 -0.12523 -0.123057 -0.120738 -0.118279 -0.115688 -0.112975 -0.110154 -0.107237 -0.104242 -0.101186 -0.0980879 -0.0949671 -0.0918441 -0.0887392 -0.0856726 -0.0826638 -0.0797312 -0.0768917 -0.0741601 -0.0715491 -0.0690684 -0.0667247 -0.0645217 -0.0624596 -0.0605357 -0.0587437 -0.057075 -0.0555181 -0.0540595 -0.0526841 -0.0513757 -0.0501177 -0.0488935 -0.0476873 -0.0464845 0.00452892 0.00353273 0.00264438 0.0018769 0.00124073 0.000743511 0.000389844 0.000181175 0.000115749 0.000188651 0.000391916 0.000714771 0.00114393 0.00166399 0.0022579 0.00290745 0.0035938 0.0042981 0.00500199 0.00568814 0.00634079 0.00694607 0.00749244 0.00797091 0.00837519 0.00870183 0.00895018 0.00912228 0.00922266 0.00925809 0.00923719 0.00917005 0.00906779 0.00894214 0.00880502 0.00866817 0.00854284 0.00843942 0.00836728 0.00833444 0.0083475 0.00841152 0.00852991 0.00870449 0.00893549 0.00922165 0.00956034 0.00994772 0.0103789 0.0108483 0.0113496 0.0118762 0.0124214 0.0129786 0.0135412 0.0141031 0.0146587;
#X coords 0 -1.5 440 1.5 133 40 1 0 0;
#X restore 21 181 graph;
#N canvas 449 280 450 300 grapher 0;
#X obj 16 21 inlet~;
#X obj 139 21 inlet~;
#X obj 16 42 expr~ ($v1 + $v2) / 2;
#X text 150 44 Average of two signals;
#X obj 16 194 tabwrite~ \$0-GRAPHER;
#X obj 138 84 loadbang;
#X msg 138 105 1;
#X obj 138 126 metro 10;
#X connect 0 0 2 0;
#X connect 1 0 2 1;
#X connect 2 0 4 0;
#X connect 5 0 6 0;
#X connect 6 0 7 0;
#X connect 7 0 4 0;
#X restore 531 861 pd grapher;
#X text 21 234 CURRENTLY: white noise is sent into the delay line \, through a moog-type filter. Noise controls are controlled by the left slider set. This is written into the 'fdbck1' buffer. A 'delread4~' is used to access this buffer: it is sent multiplied by the feedback level \, and sent through a 'tanh' in the sample-level 'fexpr~' (which sounds better than the more efficient 'expr~'). This signal is sent through another 'bob~' \, the fedback into the feedback loop \, as well as a 'clip~' to restrict amplitude \, followed by a grapher \, then finally into a 'dac~'.;
#X obj 719 842 clip~ -1 1;
#X obj 721 484 fexpr~ tanh($x1 * $x2);
#X obj 721 643 bob~, f 7;
#X obj 760 620 sig~;
#X obj 760 506 r \$0fdbckres;
#X obj 24 149 hsl 128 16 0 1 0 0 \$0linelvl \$0lineLvlIn in:\ 1 10 8 1 10 #ffffff #000000 #000000 0 1;
#X obj 30 381 inlet~;
#X obj 482 436 +~;
#X obj 518 369 *~;
#X obj 533 233 r \$0fdbckvib;
#X obj 533 348 sig~;
#X obj 721 439 +~;
#X obj 757 366 *~;
#X obj 772 345 sig~;
#X obj 157 165 hsl 128 16 0 3 0 0 \$0fdbckvib \$0fdbckVibIn vibrato:\ 0.07 10 8 1 10 #fcfcfc #000000 #000000 0 1;
#X obj 299 20 loadbang;
#X msg 299 81 20000;
#X msg 356 81 1;
#X obj 87 381 inlet~;
#N canvas 1329 427 450 300 line-in 0;
#X obj 26 27 inlet~;
#X obj 201 27 inlet~;
#X obj 26 202 *~;
#X obj 42 63 r \$0linelvl;
#X obj 41 172 sig~;
#X obj 201 203 *~;
#X obj 26 223 throw~ \$0inloopL;
#X obj 201 224 throw~ \$0inloopR;
#X obj 42 130 +;
#X obj 54 84 r \$0linelvlmod;
#X obj 54 105 t b f;
#X obj 42 151 clip 0 1;
#X connect 0 0 2 0;
#X connect 1 0 5 0;
#X connect 2 0 6 0;
#X connect 3 0 8 0;
#X connect 4 0 2 1;
#X connect 4 0 5 1;
#X connect 5 0 7 0;
#X connect 8 0 11 0;
#X connect 9 0 10 0;
#X connect 10 0 8 0;
#X connect 10 1 8 1;
#X connect 11 0 4 0;
#X restore 30 403 pd line-in;
#N canvas 1327 418 473 614 noise 0;
#X obj 21 367 *~;
#X obj 21 535 bob~, f 7;
#X obj 40 389 r \$0noisecut;
#X obj 40 498 sig~;
#X obj 244 466 sig~;
#X obj 244 349 r \$0noiseres;
#X obj 21 144 perlin~/perlin~;
#X obj 21 8 r \$0noisefreq;
#X obj 21 165 hip~ 5;
#X obj 21 186 hip~ 5;
#X obj 21 207 hip~ 5;
#X obj 154 8 r \$0noisemaxslope;
#X text 20 581 Matt Barber's Perlin Noise abstraction;
#X obj 108 165 hip~ 5;
#X obj 108 186 hip~ 5;
#X obj 108 207 hip~ 5;
#X obj 205 366 *~;
#X obj 36 234 r \$0noiselvl;
#X obj 36 339 sig~;
#X obj 205 534 bob~, f 7;
#X obj 21 557 throw~ \$0inloopL;
#X obj 205 555 throw~ \$0inloopR;
#X obj 52 255 r \$0noiselvlmod;
#X obj 52 276 t b f;
#X obj 36 297 +;
#X obj 21 85 +;
#X obj 34 33 r \$0noisefreqmod;
#X obj 34 54 t b f;
#X obj 154 89 +;
#X obj 171 29 r \$0noisemaxslopemod;
#X obj 171 50 t b f;
#X obj 40 456 +;
#X obj 49 411 r \$0noisecutmod;
#X obj 49 432 t b f;
#X obj 244 424 +;
#X obj 269 372 r $noiseresmod;
#X obj 269 393 t b f;
#X obj 36 318 clip 0 1;
#X obj 21 106 clip 20 20000;
#X obj 154 110 clip 1 10;
#X obj 40 477 clip 20 20000;
#X obj 244 445 clip 1 6;
#X connect 0 0 1 0;
#X connect 1 0 20 0;
#X connect 2 0 31 0;
#X connect 3 0 1 1;
#X connect 3 0 19 1;
#X connect 4 0 1 2;
#X connect 4 0 19 2;
#X connect 5 0 34 0;
#X connect 6 0 8 0;
#X connect 6 1 13 0;
#X connect 7 0 25 0;
#X connect 8 0 9 0;
#X connect 9 0 10 0;
#X connect 10 0 0 0;
#X connect 11 0 28 0;
#X connect 13 0 14 0;
#X connect 14 0 15 0;
#X connect 15 0 16 0;
#X connect 16 0 19 0;
#X connect 17 0 24 0;
#X connect 18 0 16 1;
#X connect 18 0 0 1;
#X connect 19 0 21 0;
#X connect 22 0 23 0;
#X connect 23 0 24 0;
#X connect 23 1 24 1;
#X connect 24 0 37 0;
#X connect 25 0 38 0;
#X connect 26 0 27 0;
#X connect 27 0 25 0;
#X connect 27 1 25 1;
#X connect 28 0 39 0;
#X connect 29 0 30 0;
#X connect 30 0 28 0;
#X connect 30 1 28 1;
#X connect 31 0 40 0;
#X connect 32 0 33 0;
#X connect 33 0 31 0;
#X connect 33 1 31 1;
#X connect 34 0 41 0;
#X connect 35 0 36 0;
#X connect 36 0 34 0;
#X connect 36 1 34 1;
#X connect 37 0 18 0;
#X connect 38 0 6 0;
#X connect 39 0 6 1;
#X connect 40 0 3 0;
#X connect 41 0 4 0;
#X restore 30 426 pd noise;
#X obj 157 117 hsl 128 16 20 20000 1 0 \$0fdbckhicut \$0fdbckHiCutIn hi:\ 0Hz 10 8 1 10 #fcfcfc #000000 #000000 0 1;
#N canvas 1331 435 450 300 hicascade 0;
#X obj 17 18 inlet~;
#X obj 17 135 hip~;
#X obj 17 156 hip~;
#X obj 17 177 hip~;
#X obj 17 198 outlet~;
#X obj 185 16 inlet~;
#X obj 185 133 hip~;
#X obj 185 154 hip~;
#X obj 185 175 hip~;
#X obj 185 196 outlet~;
#X obj 77 18 r \$0fdbckhicut;
#X obj 77 94 +;
#X obj 89 39 r \$0fdbckhicutmod;
#X obj 89 60 t b f;
#X connect 0 0 1 0;
#X connect 1 0 2 0;
#X connect 2 0 3 0;
#X connect 3 0 4 0;
#X connect 5 0 6 0;
#X connect 6 0 7 0;
#X connect 7 0 8 0;
#X connect 8 0 9 0;
#X connect 10 0 11 0;
#X connect 11 0 1 1;
#X connect 11 0 2 1;
#X connect 11 0 3 1;
#X connect 11 0 6 1;
#X connect 11 0 7 1;
#X connect 11 0 8 1;
#X connect 12 0 13 0;
#X connect 13 0 11 0;
#X connect 13 1 11 1;
#X restore 482 664 pd hicascade;
#X f 40;
#X obj 482 714 *~;
#X obj 719 718 *~;
#X obj 157 181 hsl 128 16 1 10 1 1 \$0fdbckclipgain \$0fdbckClipGainIn gain:\ x1.09 10 8 1 10 #fcfcfc #000000 #000000 500 1;
#X obj 918 552 r \$0fdbckclipgain;
#X obj 918 661 sig~;
#X text 910 762 Cubic Nonlinearity \, found on reddit.;
#X obj 24 85 hsl 128 16 20 20000 1 0 \$0noisefreq \$0noiseFreqIn perlin_freq:\ 231.21Hz 10 8 1 10 #ffffff #000000 #000000 0 1;
#X obj 24 101 hsl 128 16 1 10 0 0 \$0noisemaxslope \$0noiseMaxSlopeIn max_slope:\ 7.803 10 8 1 10 #ffffff #000000 #000000 0 1;
#X obj 21 23 cnv 15 100 15 empty empty feedbacker1~ 2 8 1 12 #000000 #ffffff 0;
#X obj 757 209 delread~ \$0fdbck1 5;
#X obj 518 212 delread~ \$0fdbck2 5;
#X obj 21 54 cnv 15 65 15 empty empty perlin\ noise 2 7 1 12 #000000 #ffffff 0;
#X obj 154 54 cnv 15 75 15 empty empty feedback\ line 2 7 1 12 #000000 #ffffff 0;
#X obj 482 938 outlet~;
#X obj 719 940 outlet~;
#X obj 157 149 hsl 128 16 1 2048 1 0 \$0fdbckglide \$0fdbckGlideIn glide:\ 16.8ms 10 8 1 10 #fcfcfc #000000 #000000 0 1;
#X obj 527 190 f;
#X obj 482 112 t f b;
#X obj 542 51 r \$0fdbckglide;
#X obj 482 411 vline~;
#X obj 721 415 vline~;
#X obj 511 781 catch~ \$0inloopL;
#X obj 754 785 catch~ \$0inloopR;
#X obj 500 816 delwrite~ \$0fdbck1 2048;
#X obj 742 820 delwrite~ \$0fdbck2 2048;
#X obj 482 457 delread4~ \$0fdbck1 1;
#X obj 721 460 delread4~ \$0fdbck2 1;
#X obj 299 152 s \$0fdbckCutIn;
#X obj 356 101 s \$0noiseResIn;
#X obj 936 21 inlet;
#X text 973 22 Modulation;
#X obj 719 762 fexpr~ $x1 - 1/3 * pow($x1 \, 3);
#X obj 482 758 fexpr~ $x1 - 1/3 * pow($x1 \, 3);
#X obj 611 406 +;
#X obj 623 360 r \$0fdbcklvlmod;
#X obj 623 381 t b f;
#X obj 501 570 +;
#X obj 512 546 t b f;
#X obj 512 525 r \$0fdbckcutmod;
#X obj 760 574 +;
#X obj 771 527 r \$0fdbckresmod;
#X obj 771 548 t b f;
#X obj 482 70 +;
#X obj 492 30 r \$0fdbckdelaymod;
#X obj 492 51 t b f;
#X obj 542 120 +;
#X obj 560 73 r \$0fdbckglidemode;
#X obj 560 94 t b f;
#X obj 721 10 r \$0fdbckdelay;
#X obj 766 191 f;
#X obj 721 113 t f b;
#X obj 781 52 r \$0fdbckglide;
#X obj 721 71 +;
#X obj 731 31 r \$0fdbckdelaymod;
#X obj 731 52 t b f;
#X obj 781 121 +;
#X obj 799 74 r \$0fdbckglidemode;
#X obj 799 95 t b f;
#X obj 533 298 +;
#X obj 545 276 t b f;
#X obj 545 255 r \$0fdbckvibmod;
#X obj 772 230 r \$0fdbckvib;
#X obj 772 295 +;
#X obj 784 273 t b f;
#X obj 784 252 r \$0fdbckvibmod;
#X obj 918 619 +;
#X obj 928 576 r \$0fdbckclipgainmod;
#X obj 928 597 t b f;
#X obj 611 427 clip 0 4;
#X obj 501 591 clip 20 20000;
#X obj 760 595 clip 1 5;
#X obj 482 91 clip 0 2048;
#X obj 721 92 clip 0 2048;
#X obj 542 141 clip 0 2048;
#X obj 781 142 clip 0 2048;
#X obj 533 319 clip 0 10;
#X obj 772 316 clip 0 10;
#X obj 918 640 clip 1 10;
#X obj 310 175 s \$0noiseCutIn;
#X obj 366 122 s \$0fdbckResIn;
#X obj 157 197 hsl 128 16 0.001 1 1 1 \$0vol \$0volIn vol:\ 1 10 8 1 10 #fcfcfc #000000 #000000 12700 1;
#X obj 936 85 s \$0noiseLvlIn;
#X obj 958 106 s \$0noiseFreqIn;
#X obj 980 127 s \$0noiseMaxSlopeIn;
#X obj 1002 148 s \$0noiseCutIn;
#X obj 1024 170 s \$0noiseResIn;
#X obj 1046 192 s \$0lineLvlIn;
#X obj 1068 214 s \$0fdbckLvlIn;
#X obj 1090 235 s \$0fdbckCutIn;
#X obj 1112 257 s \$0fdbckResIn;
#X obj 1134 278 s \$0fdbckHiCutIn;
#X obj 1178 322 s \$0fdbckGlideIn;
#X obj 1200 343 s \$0fdbckVibIn;
#X obj 1222 364 s \$0fdbckClipGainIn;
#X obj 1156 300 s \$0fdbckDelayIn;
#X obj 482 917 *~;
#X obj 719 919 *~;
#X obj 616 868 r \$0vol;
#X obj 616 889 sig~;
#N canvas 757 109 703 935 sliderdisplay 0;
#X msg 22 116 label \$1;
#X obj 22 32 * 100;
#X obj 22 53 int;
#X obj 22 74 / 100;
#X msg 238 115 label \$1;
#X obj 238 31 * 100;
#X obj 238 52 int;
#X obj 238 73 / 100;
#X msg 442 132 label \$1;
#X obj 442 69 int;
#X obj 442 48 * 1000;
#X obj 442 90 / 1000;
#X msg 23 271 label \$1;
#X obj 23 208 int;
#X msg 239 274 label \$1;
#X obj 239 190 * 100;
#X obj 239 211 int;
#X obj 239 232 / 100;
#X msg 442 285 label \$1;
#X obj 442 201 * 100;
#X obj 442 222 int;
#X obj 442 243 / 100;
#X obj 22 137 s \$0noiseLvlIn;
#X obj 22 11 r \$0noiselvl;
#X obj 238 10 r \$0noisefreq;
#X obj 238 136 s \$0noiseFreqIn;
#X msg 238 94 symbol perlin_freq:\\\ \$1Hz;
#X obj 442 27 r \$0noisemaxslope;
#X obj 442 153 s \$0noiseMaxSlopeIn;
#X msg 442 111 symbol max_slope:\\\ \$1;
#X obj 23 166 r \$0noisecut;
#X obj 23 187 * 100;
#X obj 23 229 / 100;
#X obj 23 292 s \$0noiseCutIn;
#X obj 239 169 r \$0noiseres;
#X obj 239 295 s \$0noiseResIn;
#X obj 442 180 r \$0fdbcklvl;
#X obj 442 306 s \$0fdbckLvlIn;
#X msg 23 443 label \$1;
#X obj 23 380 int;
#X obj 23 359 * 100;
#X obj 23 401 / 100;
#X obj 23 338 r \$0fdbckcut;
#X obj 23 464 s \$0fdbckCutIn;
#X msg 239 253 symbol noise_res:\\\ \$1;
#X msg 240 444 label \$1;
#X obj 240 360 * 100;
#X obj 240 381 int;
#X obj 240 402 / 100;
#X obj 240 339 r \$0fdbckres;
#X obj 240 465 s \$0fdbckResIn;
#X msg 240 423 symbol fdbck_res:\\\ \$1;
#X msg 429 450 label \$1;
#X obj 429 387 int;
#X obj 429 366 * 100;
#X obj 429 408 / 100;
#X obj 429 345 r \$0fdbckhicut;
#X obj 429 471 s \$0fdbckHiCutIn;
#X msg 31 625 label \$1;
#X obj 31 562 int;
#X obj 31 541 * 100;
#X obj 31 583 / 100;
#X obj 31 520 r \$0fdbckdelay;
#X obj 31 646 s \$0fdbckDelayIn;
#X msg 192 620 label \$1;
#X obj 192 557 int;
#X obj 192 536 * 100;
#X obj 192 578 / 100;
#X obj 192 515 r \$0fdbckglide;
#X msg 192 599 symbol glide:\\\ \$1ms;
#X obj 192 641 s \$0fdbckGlideIn;
#X msg 378 626 label \$1;
#X obj 378 563 int;
#X obj 378 542 * 100;
#X obj 378 584 / 100;
#X obj 378 521 r \$0fdbckvib;
#X msg 378 605 symbol vibrato:\\\ \$1;
#X obj 378 647 s \$0fdbckVibIn;
#X msg 533 636 label \$1;
#X obj 533 573 int;
#X obj 533 552 * 100;
#X obj 533 594 / 100;
#X obj 533 531 r \$0fdbckclipgain;
#X obj 533 657 s \$0fdbckClipGainIn;
#X msg 533 615 symbol gain:\\\ x\$1;
#X msg 31 802 label \$1;
#X obj 31 718 * 100;
#X obj 31 739 int;
#X obj 31 760 / 100;
#X obj 31 697 r \$0vol;
#X obj 31 823 s \$0volIn;
#X msg 31 781 symbol vol:\\\ \$1;
#X msg 194 823 label \$1;
#X obj 194 739 * 100;
#X obj 194 760 int;
#X obj 194 781 / 100;
#X obj 194 718 r \$0linelvl;
#X obj 194 844 s \$0lineLvlIn;
#X msg 22 95 symbol noise:\\\ \$1;
#X msg 23 250 symbol noise_cut:\\\ \$1Hz;
#X msg 23 422 symbol lo:\\\ \$1Hz;
#X msg 31 604 symbol delay:\\\ \$1ms;
#X msg 194 802 symbol in:\\\ \$1;
#X msg 442 264 symbol fdbck:\\\ \$1;
#X msg 429 429 symbol hi:\\\ \$1Hz;
#X connect 0 0 22 0;
#X connect 1 0 2 0;
#X connect 2 0 3 0;
#X connect 3 0 98 0;
#X connect 4 0 25 0;
#X connect 5 0 6 0;
#X connect 6 0 7 0;
#X connect 7 0 26 0;
#X connect 8 0 28 0;
#X connect 9 0 11 0;
#X connect 10 0 9 0;
#X connect 11 0 29 0;
#X connect 12 0 33 0;
#X connect 13 0 32 0;
#X connect 14 0 35 0;
#X connect 15 0 16 0;
#X connect 16 0 17 0;
#X connect 17 0 44 0;
#X connect 18 0 37 0;
#X connect 19 0 20 0;
#X connect 20 0 21 0;
#X connect 21 0 103 0;
#X connect 23 0 1 0;
#X connect 24 0 5 0;
#X connect 26 0 4 0;
#X connect 27 0 10 0;
#X connect 29 0 8 0;
#X connect 30 0 31 0;
#X connect 31 0 13 0;
#X connect 32 0 99 0;
#X connect 34 0 15 0;
#X connect 36 0 19 0;
#X connect 38 0 43 0;
#X connect 39 0 41 0;
#X connect 40 0 39 0;
#X connect 41 0 100 0;
#X connect 42 0 40 0;
#X connect 44 0 14 0;
#X connect 45 0 50 0;
#X connect 46 0 47 0;
#X connect 47 0 48 0;
#X connect 48 0 51 0;
#X connect 49 0 46 0;
#X connect 51 0 45 0;
#X connect 52 0 57 0;
#X connect 53 0 55 0;
#X connect 54 0 53 0;
#X connect 55 0 104 0;
#X connect 56 0 54 0;
#X connect 58 0 63 0;
#X connect 59 0 61 0;
#X connect 60 0 59 0;
#X connect 61 0 101 0;
#X connect 62 0 60 0;
#X connect 64 0 70 0;
#X connect 65 0 67 0;
#X connect 66 0 65 0;
#X connect 67 0 69 0;
#X connect 68 0 66 0;
#X connect 69 0 64 0;
#X connect 71 0 77 0;
#X connect 72 0 74 0;
#X connect 73 0 72 0;
#X connect 74 0 76 0;
#X connect 75 0 73 0;
#X connect 76 0 71 0;
#X connect 78 0 83 0;
#X connect 79 0 81 0;
#X connect 80 0 79 0;
#X connect 81 0 84 0;
#X connect 82 0 80 0;
#X connect 84 0 78 0;
#X connect 85 0 90 0;
#X connect 86 0 87 0;
#X connect 87 0 88 0;
#X connect 88 0 91 0;
#X connect 89 0 86 0;
#X connect 91 0 85 0;
#X connect 92 0 97 0;
#X connect 93 0 94 0;
#X connect 94 0 95 0;
#X connect 95 0 102 0;
#X connect 96 0 93 0;
#X connect 98 0 0 0;
#X connect 99 0 12 0;
#X connect 100 0 38 0;
#X connect 101 0 58 0;
#X connect 102 0 92 0;
#X connect 103 0 18 0;
#X connect 104 0 52 0;
#X restore 30 462 pd sliderdisplay;
#X msg 348 40 5;
#X obj 348 61 s \$0fdbckDelayIn;
#X obj 1246 136 s \$0volIn;
#X obj 482 736 fexpr~ tanh($x1);
#X obj 719 740 fexpr~ tanh($x1);
#X obj 21 38 hradio 16 1 0 8 \$0preset \$0presetIn empty 0 -8 0 10 #fcfcfc #000000 #000000 0;
#X obj 150 38 bng 16 250 50 0 \$0write \$0writeIn wrt 19 3 1 10 #fcfcfc #000000 #000000;
#X obj 187 38 bng 16 250 50 0 \$0load \$0loadIn lod 19 3 1 10 #fcfcfc #000000 #000000;
#X obj 936 42 route noise perlin_freq max_slope noise_cut noise_res in fdbck lo fdbck_res hi delay glide vibrato gain vol;
#N canvas 57 138 999 950 presetSave 1;
#X obj 126 397 r \$0preset;
#X obj 44 107 r \$0write;
#X obj 186 443 loadbang;
#X msg 186 513 0;
#X obj 246 511 f;
#X obj 246 468 r \$0load;
#X obj 261 489 r \$0preset;
#X obj 71 375 pack f f f f f f f f f f f f f f f f, f 108;
#X obj 186 574 unpack f f f f f f f f f f f f f f f f, f 121;
#X obj 234 608 s \$0noiseLvlIn;
#X obj 256 629 s \$0noiseFreqIn;
#X obj 278 650 s \$0noiseMaxSlopeIn;
#X obj 300 671 s \$0noiseCutIn;
#X obj 322 693 s \$0noiseResIn;
#X obj 344 715 s \$0lineLvlIn;
#X obj 366 737 s \$0fdbckLvlIn;
#X obj 388 758 s \$0fdbckCutIn;
#X obj 410 780 s \$0fdbckResIn;
#X obj 432 801 s \$0fdbckHiCutIn;
#X obj 476 845 s \$0fdbckGlideIn;
#X obj 498 866 s \$0fdbckVibIn;
#X obj 520 887 s \$0fdbckClipGainIn;
#X obj 454 823 s \$0fdbckDelayIn;
#X obj 591 910 s \$0volIn;
#X obj 716 344 r \$0vol;
#X obj 103 575 s \$0presetIn;
#X obj 114 37 r \$0noiselvl;
#X obj 157 59 r \$0noisefreq;
#X obj 200 81 r \$0noisemaxslope;
#X obj 243 103 r \$0noisecut;
#X obj 286 125 r \$0noiseres;
#X obj 329 147 r \$0linelvl;
#X obj 372 169 r \$0fdbcklvl;
#X obj 415 191 r \$0fdbckcut;
#X obj 458 213 r \$0fdbckres;
#X obj 501 235 r \$0fdbckhicut;
#X obj 544 257 r \$0fdbckdelay;
#X obj 587 279 r \$0fdbckglide;
#X obj 630 301 r \$0fdbckvib;
#X obj 673 322 r \$0fdbckclipgain;
#X obj 44 128 t b b;
#X obj 186 493 t b b;
#X msg 44 149 write presets/feedbackerPresets.txt;
#X msg 64 704 read presets/feedbackerPresets.txt;
#X obj 71 418 text set \$0feedbackerPresets;
#X obj 186 553 text get \$0feedbackerPresets;
#X obj 44 734 text define \$0feedbackerPresets;
#X obj 186 464 delay 5;
#X connect 0 0 44 1;
#X connect 1 0 40 0;
#X connect 2 0 47 0;
#X connect 3 0 25 0;
#X connect 3 0 45 0;
#X connect 4 0 45 0;
#X connect 5 0 4 0;
#X connect 6 0 4 1;
#X connect 7 0 44 0;
#X connect 8 1 9 0;
#X connect 8 2 10 0;
#X connect 8 3 11 0;
#X connect 8 4 12 0;
#X connect 8 5 13 0;
#X connect 8 6 14 0;
#X connect 8 7 15 0;
#X connect 8 8 16 0;
#X connect 8 9 17 0;
#X connect 8 10 18 0;
#X connect 8 11 22 0;
#X connect 8 12 19 0;
#X connect 8 13 20 0;
#X connect 8 14 21 0;
#X connect 8 15 23 0;
#X connect 24 0 7 15;
#X connect 26 0 7 1;
#X connect 27 0 7 2;
#X connect 28 0 7 3;
#X connect 29 0 7 4;
#X connect 30 0 7 5;
#X connect 31 0 7 6;
#X connect 32 0 7 7;
#X connect 33 0 7 8;
#X connect 34 0 7 9;
#X connect 35 0 7 10;
#X connect 36 0 7 11;
#X connect 37 0 7 12;
#X connect 38 0 7 13;
#X connect 39 0 7 14;
#X connect 40 0 42 0;
#X connect 40 1 7 0;
#X connect 41 0 3 0;
#X connect 41 1 43 0;
#X connect 42 0 46 0;
#X connect 43 0 46 0;
#X connect 45 0 8 0;
#X connect 47 0 41 0;
#X restore 214 471 pd presetSave;
#X connect 6 0 15 0;
#X connect 6 0 135 0;
#X connect 7 0 9 0;
#X connect 8 0 73 0;
#X connect 9 0 39 0;
#X connect 10 0 9 1;
#X connect 10 0 19 1;
#X connect 11 0 76 0;
#X connect 13 0 82 0;
#X connect 17 0 15 1;
#X connect 17 0 136 0;
#X connect 18 0 19 0;
#X connect 19 0 39 1;
#X connect 20 0 9 2;
#X connect 20 0 19 2;
#X connect 21 0 79 0;
#X connect 23 0 36 0;
#X connect 24 0 65 0;
#X connect 25 0 24 1;
#X connect 26 0 98 0;
#X connect 27 0 25 1;
#X connect 28 0 66 0;
#X connect 29 0 28 1;
#X connect 30 0 29 1;
#X connect 32 0 33 0;
#X connect 32 0 34 0;
#X connect 32 0 140 0;
#X connect 33 0 67 0;
#X connect 33 0 118 0;
#X connect 34 0 68 0;
#X connect 34 0 119 0;
#X connect 35 0 36 1;
#X connect 39 0 40 0;
#X connect 39 1 41 0;
#X connect 40 0 143 0;
#X connect 41 0 144 0;
#X connect 43 0 105 0;
#X connect 44 0 40 1;
#X connect 44 0 41 1;
#X connect 49 0 29 0;
#X connect 50 0 25 0;
#X connect 56 0 59 1;
#X connect 57 0 59 0;
#X connect 57 1 56 0;
#X connect 58 0 85 0;
#X connect 59 0 24 0;
#X connect 60 0 28 0;
#X connect 61 0 63 0;
#X connect 62 0 64 0;
#X connect 65 0 7 0;
#X connect 66 0 18 0;
#X connect 69 0 148 0;
#X connect 71 0 17 0;
#X connect 71 0 64 0;
#X connect 72 0 6 0;
#X connect 72 0 63 0;
#X connect 73 0 108 0;
#X connect 74 0 75 0;
#X connect 75 0 73 0;
#X connect 75 1 73 1;
#X connect 76 0 109 0;
#X connect 77 0 76 0;
#X connect 77 1 76 1;
#X connect 78 0 77 0;
#X connect 79 0 110 0;
#X connect 80 0 81 0;
#X connect 81 0 79 0;
#X connect 81 1 79 1;
#X connect 82 0 111 0;
#X connect 83 0 84 0;
#X connect 84 0 82 0;
#X connect 84 1 82 1;
#X connect 85 0 113 0;
#X connect 86 0 87 0;
#X connect 87 0 85 0;
#X connect 87 1 85 1;
#X connect 88 0 92 0;
#X connect 89 0 60 1;
#X connect 90 0 60 0;
#X connect 90 1 89 0;
#X connect 91 0 95 0;
#X connect 92 0 112 0;
#X connect 93 0 94 0;
#X connect 94 0 92 0;
#X connect 94 1 92 1;
#X connect 95 0 114 0;
#X connect 96 0 97 0;
#X connect 97 0 95 0;
#X connect 97 1 95 1;
#X connect 98 0 115 0;
#X connect 99 0 98 0;
#X connect 99 1 98 1;
#X connect 100 0 99 0;
#X connect 101 0 102 0;
#X connect 102 0 116 0;
#X connect 103 0 102 0;
#X connect 103 1 102 1;
#X connect 104 0 103 0;
#X connect 105 0 117 0;
#X connect 106 0 107 0;
#X connect 107 0 105 0;
#X connect 107 1 105 1;
#X connect 108 0 7 1;
#X connect 108 0 18 1;
#X connect 109 0 10 0;
#X connect 110 0 20 0;
#X connect 111 0 57 0;
#X connect 112 0 90 0;
#X connect 113 0 56 1;
#X connect 113 0 56 0;
#X connect 114 0 89 0;
#X connect 114 0 89 1;
#X connect 115 0 27 0;
#X connect 116 0 30 0;
#X connect 117 0 44 0;
#X connect 135 0 53 0;
#X connect 136 0 54 0;
#X connect 137 0 138 0;
#X connect 138 0 135 1;
#X connect 138 0 136 1;
#X connect 140 0 141 0;
#X connect 143 0 72 0;
#X connect 144 0 71 0;
#X connect 148 0 121 0;
#X connect 148 1 122 0;
#X connect 148 2 123 0;
#X connect 148 3 124 0;
#X connect 148 4 125 0;
#X connect 148 5 126 0;
#X connect 148 6 127 0;
#X connect 148 7 128 0;
#X connect 148 8 129 0;
#X connect 148 9 130 0;
#X connect 148 10 134 0;
#X connect 148 11 131 0;
#X connect 148 12 132 0;
#X connect 148 13 133 0;
#X connect 148 14 142 0;
#X coords 0 -1 1 1 268 205 2 20 20;
