#N canvas 682 174 972 884 10;
#X obj 144 477 loadbang;
#N canvas 137 295 1631 624 bandpassfilts 0;
#X obj 23 23 inlet~;
#X obj 42 555 outlet~;
#X obj 243 554 outlet~;
#X obj 55 262 expr~ 50 + $v1;
#X obj 72 283 r \$0Q;
#X obj 191 283 r \$0Q;
#X obj 174 262 expr~ 250 + $v1;
#X obj 100 555 delwrite~ \$0fdbck1;
#X obj 300 554 delwrite~ \$0fdbck2;
#X obj 39 325 *~ 0.6;
#X obj 39 408 throw~ \$0odd;
#X obj 158 325 *~ 0.6;
#X obj 158 408 throw~ \$0even;
#X obj 39 241 r~ \$0signal;
#X obj 23 171 s~ \$0signal;
#X obj 158 240 r~ \$0signal;
#X obj 42 524 catch~ \$0odd;
#X obj 243 524 catch~ \$0even;
#X obj 767 90 *~;
#X obj 767 153 s~ \$0oddCross;
#X obj 782 68 r \$0fdbckMult;
#X obj 905 91 *~;
#X obj 920 69 r \$0fdbckMult;
#X obj 905 154 s~ \$0evenCross;
#X obj 55 220 r~ \$0oddCross;
#X obj 174 220 r~ \$0evenCross;
#X obj 317 282 r \$0Q;
#X obj 436 282 r \$0Q;
#X obj 284 324 *~ 0.6;
#X obj 284 407 throw~ \$0odd;
#X obj 403 324 *~ 0.6;
#X obj 403 407 throw~ \$0even;
#X obj 284 240 r~ \$0signal;
#X obj 403 239 r~ \$0signal;
#X obj 300 219 r~ \$0oddCross;
#X obj 419 219 r~ \$0evenCross;
#X obj 564 282 r \$0Q;
#X obj 683 282 r \$0Q;
#X obj 531 324 *~ 0.6;
#X obj 531 407 throw~ \$0odd;
#X obj 650 324 *~ 0.6;
#X obj 650 407 throw~ \$0even;
#X obj 531 240 r~ \$0signal;
#X obj 650 239 r~ \$0signal;
#X obj 547 219 r~ \$0oddCross;
#X obj 666 219 r~ \$0evenCross;
#X obj 809 281 r \$0Q;
#X obj 928 281 r \$0Q;
#X obj 776 323 *~ 0.6;
#X obj 776 406 throw~ \$0odd;
#X obj 895 323 *~ 0.6;
#X obj 895 406 throw~ \$0even;
#X obj 776 239 r~ \$0signal;
#X obj 895 238 r~ \$0signal;
#X obj 792 218 r~ \$0oddCross;
#X obj 911 218 r~ \$0evenCross;
#X obj 1059 283 r \$0Q;
#X obj 1178 283 r \$0Q;
#X obj 1026 325 *~ 0.6;
#X obj 1026 408 throw~ \$0odd;
#X obj 1145 325 *~ 0.6;
#X obj 1145 408 throw~ \$0even;
#X obj 1026 241 r~ \$0signal;
#X obj 1145 240 r~ \$0signal;
#X obj 1042 220 r~ \$0oddCross;
#X obj 1161 220 r~ \$0evenCross;
#X obj 1304 282 r \$0Q;
#X obj 1423 282 r \$0Q;
#X obj 1271 324 *~ 0.6;
#X obj 1271 407 throw~ \$0odd;
#X obj 1390 324 *~ 0.6;
#X obj 1390 407 throw~ \$0even;
#X obj 1271 240 r~ \$0signal;
#X obj 1390 239 r~ \$0signal;
#X obj 1287 219 r~ \$0oddCross;
#X obj 1406 219 r~ \$0evenCross;
#X obj 300 261 expr~ 450 + $v1;
#X obj 419 261 expr~ 700 + $v1;
#X obj 547 261 expr~ 1000 + $v1;
#X obj 666 261 expr~ 1370 + $v1;
#X obj 792 260 expr~ 1850 + $v1;
#X obj 911 260 expr~ 2500 + $v1;
#X obj 1042 262 expr~ 3400 + $v1;
#X obj 1161 262 expr~ 4800 + $v1;
#X obj 1287 261 expr~ 7000 + $v1;
#X obj 1406 261 expr~ 10500 + $v1;
#X obj 767 46 delread4~ \$0fdbck2 5;
#X obj 905 46 delread4~ \$0fdbck1 5;
#X obj 72 23 delread4~ \$0fdbck2 5;
#X obj 268 23 delread4~ \$0fdbck1 5;
#X obj 72 128 *~;
#X obj 156 128 *~;
#X obj 87 105 r \$0fdbckAmt;
#X obj 72 44 fexpr~ tanh($x1);
#X obj 268 44 fexpr~ tanh($x1);
#X obj 767 111 clip~ 20 20000;
#X obj 905 112 clip~ 20 20000;
#X obj 39 387 *~;
#X obj 158 387 *~;
#X obj 284 386 *~;
#X obj 403 386 *~;
#X obj 531 386 *~;
#X obj 650 386 *~;
#X obj 776 385 *~;
#X obj 895 385 *~;
#X obj 1026 387 *~;
#X obj 1145 387 *~;
#X obj 1271 386 *~;
#X obj 1390 386 *~;
#X obj 54 365 r \$0filt1;
#X obj 173 365 r \$0filt2;
#X obj 299 365 r \$0filt3;
#X obj 418 365 r \$0filt4;
#X obj 546 365 r \$0filt5;
#X obj 791 365 r \$0filt7;
#X obj 910 365 r \$0filt8;
#X obj 1041 366 r \$0filt9;
#X obj 1160 366 r \$0filt10;
#X obj 1286 365 r \$0filt11;
#X obj 1405 365 r \$0filt12;
#X obj 665 365 r \$0filt6;
#X obj 268 65 fexpr~ $x1 - 1/3 * pow($x1 \, 3);
#X obj 72 65 fexpr~ $x1 - 1/3 * pow($x1 \, 3);
#X obj 39 304 vcf~;
#X obj 158 304 vcf~;
#X obj 284 303 vcf~;
#X obj 403 303 vcf~;
#X obj 531 303 vcf~;
#X obj 650 303 vcf~;
#X obj 776 302 vcf~;
#X obj 895 302 vcf~;
#X obj 1026 304 vcf~;
#X obj 1145 304 vcf~;
#X obj 1271 303 vcf~;
#X obj 1390 303 vcf~;
#X connect 0 0 14 0;
#X connect 3 0 123 1;
#X connect 4 0 123 2;
#X connect 5 0 124 2;
#X connect 6 0 124 1;
#X connect 9 0 97 0;
#X connect 11 0 98 0;
#X connect 13 0 123 0;
#X connect 15 0 124 0;
#X connect 16 0 1 0;
#X connect 16 0 7 0;
#X connect 17 0 2 0;
#X connect 17 0 8 0;
#X connect 18 0 95 0;
#X connect 20 0 18 1;
#X connect 21 0 96 0;
#X connect 22 0 21 1;
#X connect 24 0 3 0;
#X connect 25 0 6 0;
#X connect 26 0 125 2;
#X connect 27 0 126 2;
#X connect 28 0 99 0;
#X connect 30 0 100 0;
#X connect 32 0 125 0;
#X connect 33 0 126 0;
#X connect 34 0 76 0;
#X connect 35 0 77 0;
#X connect 36 0 127 2;
#X connect 37 0 128 2;
#X connect 38 0 101 0;
#X connect 40 0 102 0;
#X connect 42 0 127 0;
#X connect 43 0 128 0;
#X connect 44 0 78 0;
#X connect 45 0 79 0;
#X connect 46 0 129 2;
#X connect 47 0 130 2;
#X connect 48 0 103 0;
#X connect 50 0 104 0;
#X connect 52 0 129 0;
#X connect 53 0 130 0;
#X connect 54 0 80 0;
#X connect 55 0 81 0;
#X connect 56 0 131 2;
#X connect 57 0 132 2;
#X connect 58 0 105 0;
#X connect 60 0 106 0;
#X connect 62 0 131 0;
#X connect 63 0 132 0;
#X connect 64 0 82 0;
#X connect 65 0 83 0;
#X connect 66 0 133 2;
#X connect 67 0 134 2;
#X connect 68 0 107 0;
#X connect 70 0 108 0;
#X connect 72 0 133 0;
#X connect 73 0 134 0;
#X connect 74 0 84 0;
#X connect 75 0 85 0;
#X connect 76 0 125 1;
#X connect 77 0 126 1;
#X connect 78 0 127 1;
#X connect 79 0 128 1;
#X connect 80 0 129 1;
#X connect 81 0 130 1;
#X connect 82 0 131 1;
#X connect 83 0 132 1;
#X connect 84 0 133 1;
#X connect 85 0 134 1;
#X connect 86 0 18 0;
#X connect 87 0 21 0;
#X connect 88 0 93 0;
#X connect 89 0 94 0;
#X connect 90 0 14 0;
#X connect 91 0 14 0;
#X connect 92 0 90 1;
#X connect 92 0 91 1;
#X connect 93 0 122 0;
#X connect 94 0 121 0;
#X connect 95 0 19 0;
#X connect 96 0 23 0;
#X connect 97 0 10 0;
#X connect 98 0 12 0;
#X connect 99 0 29 0;
#X connect 100 0 31 0;
#X connect 101 0 39 0;
#X connect 102 0 41 0;
#X connect 103 0 49 0;
#X connect 104 0 51 0;
#X connect 105 0 59 0;
#X connect 106 0 61 0;
#X connect 107 0 69 0;
#X connect 108 0 71 0;
#X connect 109 0 97 1;
#X connect 110 0 98 1;
#X connect 111 0 99 1;
#X connect 112 0 100 1;
#X connect 113 0 101 1;
#X connect 114 0 103 1;
#X connect 115 0 104 1;
#X connect 116 0 105 1;
#X connect 117 0 106 1;
#X connect 118 0 107 1;
#X connect 119 0 108 1;
#X connect 120 0 102 1;
#X connect 121 0 91 0;
#X connect 122 0 90 0;
#X connect 123 0 9 0;
#X connect 124 0 11 0;
#X connect 125 0 28 0;
#X connect 126 0 30 0;
#X connect 127 0 38 0;
#X connect 128 0 40 0;
#X connect 129 0 48 0;
#X connect 130 0 50 0;
#X connect 131 0 58 0;
#X connect 132 0 60 0;
#X connect 133 0 68 0;
#X connect 134 0 70 0;
#X restore 48 588 pd bandpassfilts;
#X f 21;
#X obj 21 86 vsl 15 100 0.01 1 1 0 \$0filt1 \$0filt1In 50 0 -9 1 10 #fcfcfc #000000 #000000 0 1;
#X obj 36 86 vsl 15 100 0.01 1 1 0 \$0filt2 \$0filt2In 250 0 109 1 10 #fcfcfc #000000 #000000 0 1;
#X obj 51 86 vsl 15 100 0.01 1 1 0 \$0filt3 \$0filt3In 450 0 -9 1 10 #fcfcfc #000000 #000000 0 1;
#X obj 66 86 vsl 15 100 0.01 1 1 0 \$0filt4 \$0filt4In 700 0 109 1 10 #fcfcfc #000000 #000000 0 1;
#X obj 81 86 vsl 15 100 0.01 1 1 0 \$0filt5 \$0filt5In 1000 0 -9 1 10 #fcfcfc #000000 #000000 0 1;
#X obj 96 86 vsl 15 100 0.01 1 1 0 \$0filt6 \$0filt6In 1370 0 109 1 10 #fcfcfc #000000 #000000 0 1;
#X obj 111 86 vsl 15 100 0.01 1 1 0 \$0filt7 \$0filt7In 1850 0 -9 1 10 #fcfcfc #000000 #000000 0 1;
#X obj 126 86 vsl 15 100 0.01 1 1 0 \$0filt8 \$0filt8In 2500 0 109 1 10 #fcfcfc #000000 #000000 0 1;
#X obj 141 86 vsl 15 100 0.01 1 1 0 \$0filt9 \$0filt9In 3400 0 -9 1 10 #fcfcfc #000000 #000000 0 1;
#X obj 156 86 vsl 15 100 0 1 0 0 \$0filt10 \$0filt10In 4800 0 109 1 10 #fcfcfc #000000 #000000 0 1;
#X obj 171 86 vsl 15 100 0.01 1 1 0 \$0filt11 \$0filt11In 7000 0 -9 1 10 #fcfcfc #000000 #000000 0 1;
#X obj 186 86 vsl 15 100 0.01 1 1 0 \$0filt12 \$0filt12In 10500 0 109 1 10 #fcfcfc #000000 #000000 0 1;
#X floatatom 207 55 5 0 0 1 - \$0fdbckMultIn \$0fdbckMult 0;
#X obj 244 56 cnv 15 20 15 empty empty cross-mod 0 7 1 12 #ffffff #404040 0;
#X obj 250 181 hsl 60 15 0 5000 0 0 \$0Q \$0QIn Q:\ 508.47 15 7 1 10 #fcfcfc #000000 #000000 0 1;
#X obj 21 23 cnv 15 100 15 empty empty hillary~ 2 8 1 12 #9c00ff #ffffff 0;
#X obj 137 23 hsl 128 15 0.001 1 1 0 \$0vol empty vol 10 7 1 10 #fcfcfc #000000 #000000 0 1;
#X obj 207 84 bng 15 250 50 0 \$0start empty start 19 7 1 10 #fcfcfc #000000 #000000;
#X obj 207 103 bng 15 250 50 0 \$0stop empty stop 19 7 1 10 #fcfcfc #000000 #000000;
#X obj 207 122 bng 15 250 50 0 \$0randomise empty randomise 19 7 1 10 #fcfcfc #000000 #000000;
#X obj 157 499 r \$0start;
#X obj 159 522 r \$0stop;
#X obj 129 455 r \$0randomise;
#X obj 24 55 hsl 85 15 0.00025 0.5 0 0 \$0rate \$0rateIn rate:\ 0.16dt 2 7 1 10 #fcfcfc #000000 #000000 0 1;
#X obj 210 201 hsl 100 15 0 2 0 0 \$0fdbckAmt \$0fdbckAmtIn feedback:\ 0 24 7 1 10 #fcfcfc #000000 #000000 0 1;
#X obj 48 661 clip~ -1 1;
#X obj 171 661 clip~ -1 1;
#X obj 48 719 *~;
#X obj 171 719 *~;
#X obj 186 684 r \$0vol;
#X text 471 18 Oscillator based around a Duffing oscialltor \, passed through an array of 12 bandpass filters \, tuned to the odd frequencies in the Bark scale (inspired by Verbos Bark Filter \, and Jamie Stewart's use of it (FIND REFS!!!)). The filter array incorporates two feedback loops: one to modulate the frequency of the filters \, and one to re-introduce the signal back through the filters.;
#N canvas 519 453 1041 300 startvals 0;
#X obj 27 28 loadbang;
#X msg 27 49 1;
#X obj 27 234 s \$0filt1In;
#X obj 108 234 s \$0filt2In;
#X obj 189 234 s \$0filt3In;
#X obj 270 234 s \$0filt4In;
#X obj 353 234 s \$0filt5In;
#X obj 434 234 s \$0filt6In;
#X obj 515 234 s \$0filt7In;
#X obj 596 234 s \$0filt8In;
#X obj 680 234 s \$0filt9In;
#X obj 757 233 s \$0filt10In;
#X obj 842 234 s \$0filt11In;
#X obj 923 234 s \$0filt12In;
#X obj 101 137 s \$0autoFreq;
#X connect 0 0 1 0;
#X connect 1 0 2 0;
#X connect 1 0 3 0;
#X connect 1 0 4 0;
#X connect 1 0 5 0;
#X connect 1 0 6 0;
#X connect 1 0 7 0;
#X connect 1 0 8 0;
#X connect 1 0 9 0;
#X connect 1 0 10 0;
#X connect 1 0 11 0;
#X connect 1 0 12 0;
#X connect 1 0 13 0;
#X connect 1 0 14 0;
#X restore 474 118 pd startvals;
#X obj 474 142 inlet;
#X obj 21 202 cnv 15 106 15 empty empty freq-lvl 3 8 1 12 #000000 #ffffff 0;
#X text 509 142 Automate filter-gains with *frequency-band*-lvl;
#X obj 494 227 s \$0fdbckMultIn;
#X obj 514 248 s \$0QIn;
#X obj 534 269 s \$0fdbckAmtIn;
#X obj 554 291 s \$0filt1In;
#X obj 48 740 outlet~;
#X obj 171 740 outlet~;
#X obj 48 609 expr~ tanh($v1);
#X obj 171 609 expr~ tanh($v1);
#X obj 574 313 s \$0filt2In;
#X obj 594 335 s \$0filt3In;
#X obj 614 357 s \$0filt4In;
#X obj 634 379 s \$0filt5In;
#X obj 654 401 s \$0filt6In;
#X obj 674 423 s \$0filt7In;
#X obj 694 445 s \$0filt8In;
#X obj 714 469 s \$0filt9In;
#X obj 754 513 s \$0filt11In;
#X obj 734 491 s \$0filt10In;
#X obj 774 535 s \$0filt12In;
#N canvas 1066 148 450 451 sliderdisplay 1;
#X msg 22 116 label \$1;
#X obj 22 32 * 100;
#X obj 22 53 int;
#X obj 22 74 / 100;
#X msg 177 115 label \$1;
#X obj 177 31 * 100;
#X obj 177 52 int;
#X obj 177 73 / 100;
#X obj 177 10 r \$0Q;
#X obj 177 136 s \$0QIn;
#X msg 177 94 symbol Q:\\\ \$1;
#X msg 279 113 label \$1;
#X obj 279 50 int;
#X obj 279 8 r \$0fdbckAmt;
#X obj 279 134 s \$0fdbckAmtIn;
#X msg 279 92 symbol feedback:\\\ \$1;
#X obj 279 29 * 1000;
#X obj 279 71 / 1000;
#X msg 23 271 label \$1;
#X obj 23 208 int;
#X obj 23 166 r \$0autoFreq;
#X obj 23 292 s \$0autoFreqIn;
#X msg 23 250 symbol freq:\\\ \$1Hz;
#X obj 23 187 * 1000;
#X obj 23 229 / 1000;
#X msg 22 95 symbol rate:\\\ \$1dt;
#X obj 22 11 r \$0rate;
#X obj 22 137 s \$0rateIn;
#X msg 182 276 label \$1;
#X obj 182 192 * 100;
#X obj 182 213 int;
#X obj 182 234 / 100;
#X obj 182 171 r \$0freq;
#X msg 182 255 symbol freq:\\\ \$1Hz;
#X obj 182 297 s \$0freqIn;
#X connect 0 0 27 0;
#X connect 1 0 2 0;
#X connect 2 0 3 0;
#X connect 3 0 25 0;
#X connect 4 0 9 0;
#X connect 5 0 6 0;
#X connect 6 0 7 0;
#X connect 7 0 10 0;
#X connect 8 0 5 0;
#X connect 10 0 4 0;
#X connect 11 0 14 0;
#X connect 12 0 17 0;
#X connect 13 0 16 0;
#X connect 15 0 11 0;
#X connect 16 0 12 0;
#X connect 17 0 15 0;
#X connect 18 0 21 0;
#X connect 19 0 24 0;
#X connect 20 0 23 0;
#X connect 22 0 18 0;
#X connect 23 0 19 0;
#X connect 24 0 22 0;
#X connect 25 0 0 0;
#X connect 26 0 1 0;
#X connect 28 0 34 0;
#X connect 29 0 30 0;
#X connect 30 0 31 0;
#X connect 31 0 33 0;
#X connect 32 0 29 0;
#X connect 33 0 28 0;
#X restore 49 422 pd sliderdisplay;
#X obj 207 142 tgl 15 0 \$0autoGainOn empty auto-gain 19 7 1 10 #fcfcfc #000000 #000000 0 1;
#N canvas 2 190 1798 541 auto-gain 0;
#X obj 18 41 expr (1 / $f1) * 1000;
#X text 152 42 Converting Hz to ms.;
#X obj 18 20 r \$0autoFreq;
#X obj 18 62 s \$0autoFreqMs;
#X obj 27 118 r \$0autoGainOn;
#X obj 27 210 metro, f 9;
#X obj 27 190 f;
#X obj 51 143 r \$0autoFreqMs;
#X obj 51 164 t b f;
#X obj 27 231 random 1000;
#X obj 27 252 / 1000;
#X obj 27 273 pack f f, f 9;
#X obj 27 294 line;
#X obj 27 315 s \$0filt1In;
#X obj 78 252 r \$0autoFreqMs;
#X obj 1747 115 r \$0autoGainOn;
#X obj 1747 207 metro, f 9;
#X obj 1747 187 f;
#X obj 1771 140 r \$0autoFreqMs;
#X obj 1771 161 t b f;
#X obj 1747 228 random 1000;
#X obj 1747 249 / 1000;
#X obj 1747 270 pack f f, f 9;
#X obj 1747 291 line;
#X obj 1798 249 r \$0autoFreqMs;
#X obj 183 118 r \$0autoGainOn;
#X obj 183 210 metro, f 9;
#X obj 183 190 f;
#X obj 207 143 r \$0autoFreqMs;
#X obj 207 164 t b f;
#X obj 183 231 random 1000;
#X obj 183 252 / 1000;
#X obj 183 273 pack f f, f 9;
#X obj 183 294 line;
#X obj 234 252 r \$0autoFreqMs;
#X obj 338 118 r \$0autoGainOn;
#X obj 338 210 metro, f 9;
#X obj 338 190 f;
#X obj 362 143 r \$0autoFreqMs;
#X obj 362 164 t b f;
#X obj 338 231 random 1000;
#X obj 338 252 / 1000;
#X obj 338 273 pack f f, f 9;
#X obj 338 294 line;
#X obj 389 252 r \$0autoFreqMs;
#X obj 495 117 r \$0autoGainOn;
#X obj 495 209 metro, f 9;
#X obj 495 189 f;
#X obj 519 142 r \$0autoFreqMs;
#X obj 519 163 t b f;
#X obj 495 230 random 1000;
#X obj 495 251 / 1000;
#X obj 495 272 pack f f, f 9;
#X obj 495 293 line;
#X obj 546 251 r \$0autoFreqMs;
#X obj 650 117 r \$0autoGainOn;
#X obj 650 209 metro, f 9;
#X obj 650 189 f;
#X obj 674 142 r \$0autoFreqMs;
#X obj 674 163 t b f;
#X obj 650 230 random 1000;
#X obj 650 251 / 1000;
#X obj 650 272 pack f f, f 9;
#X obj 650 293 line;
#X obj 701 251 r \$0autoFreqMs;
#X obj 810 117 r \$0autoGainOn;
#X obj 810 209 metro, f 9;
#X obj 810 189 f;
#X obj 834 142 r \$0autoFreqMs;
#X obj 834 163 t b f;
#X obj 810 230 random 1000;
#X obj 810 251 / 1000;
#X obj 810 272 pack f f, f 9;
#X obj 810 293 line;
#X obj 861 251 r \$0autoFreqMs;
#X obj 965 117 r \$0autoGainOn;
#X obj 965 209 metro, f 9;
#X obj 965 189 f;
#X obj 989 142 r \$0autoFreqMs;
#X obj 989 163 t b f;
#X obj 965 230 random 1000;
#X obj 965 251 / 1000;
#X obj 965 272 pack f f, f 9;
#X obj 965 293 line;
#X obj 1016 251 r \$0autoFreqMs;
#X obj 1122 116 r \$0autoGainOn;
#X obj 1122 208 metro, f 9;
#X obj 1122 188 f;
#X obj 1146 141 r \$0autoFreqMs;
#X obj 1146 162 t b f;
#X obj 1122 229 random 1000;
#X obj 1122 250 / 1000;
#X obj 1122 271 pack f f, f 9;
#X obj 1122 292 line;
#X obj 1173 250 r \$0autoFreqMs;
#X obj 1277 116 r \$0autoGainOn;
#X obj 1277 208 metro, f 9;
#X obj 1277 188 f;
#X obj 1301 141 r \$0autoFreqMs;
#X obj 1301 162 t b f;
#X obj 1277 229 random 1000;
#X obj 1277 250 / 1000;
#X obj 1277 271 pack f f, f 9;
#X obj 1277 292 line;
#X obj 1328 250 r \$0autoFreqMs;
#X obj 1437 116 r \$0autoGainOn;
#X obj 1437 208 metro, f 9;
#X obj 1437 188 f;
#X obj 1461 141 r \$0autoFreqMs;
#X obj 1461 162 t b f;
#X obj 1437 229 random 1000;
#X obj 1437 250 / 1000;
#X obj 1437 271 pack f f, f 9;
#X obj 1437 292 line;
#X obj 1488 250 r \$0autoFreqMs;
#X obj 1592 116 r \$0autoGainOn;
#X obj 1592 208 metro, f 9;
#X obj 1592 188 f;
#X obj 1616 141 r \$0autoFreqMs;
#X obj 1616 162 t b f;
#X obj 1592 229 random 1000;
#X obj 1592 250 / 1000;
#X obj 1592 271 pack f f, f 9;
#X obj 1592 292 line;
#X obj 1643 250 r \$0autoFreqMs;
#X obj 338 315 s \$0filt3In;
#X obj 495 314 s \$0filt4In;
#X obj 650 314 s \$0filt5In;
#X obj 810 314 s \$0filt6In;
#X obj 965 314 s \$0filt7In;
#X obj 1122 313 s \$0filt8In;
#X obj 1277 313 s \$0filt9In;
#X obj 1437 313 s \$0filt10In;
#X obj 1592 313 s \$0filt11In;
#X obj 183 315 s \$0filt2In;
#X obj 1747 312 s \$0filt12In;
#X connect 0 0 3 0;
#X connect 2 0 0 0;
#X connect 4 0 6 0;
#X connect 4 0 6 1;
#X connect 5 0 9 0;
#X connect 6 0 5 0;
#X connect 7 0 8 0;
#X connect 8 0 6 0;
#X connect 8 1 5 1;
#X connect 9 0 10 0;
#X connect 10 0 11 0;
#X connect 11 0 12 0;
#X connect 12 0 13 0;
#X connect 14 0 11 1;
#X connect 15 0 17 0;
#X connect 15 0 17 1;
#X connect 16 0 20 0;
#X connect 17 0 16 0;
#X connect 18 0 19 0;
#X connect 19 0 17 0;
#X connect 19 1 16 1;
#X connect 20 0 21 0;
#X connect 21 0 22 0;
#X connect 22 0 23 0;
#X connect 23 0 135 0;
#X connect 24 0 22 1;
#X connect 25 0 27 0;
#X connect 25 0 27 1;
#X connect 26 0 30 0;
#X connect 27 0 26 0;
#X connect 28 0 29 0;
#X connect 29 0 27 0;
#X connect 29 1 26 1;
#X connect 30 0 31 0;
#X connect 31 0 32 0;
#X connect 32 0 33 0;
#X connect 33 0 134 0;
#X connect 34 0 32 1;
#X connect 35 0 37 0;
#X connect 35 0 37 1;
#X connect 36 0 40 0;
#X connect 37 0 36 0;
#X connect 38 0 39 0;
#X connect 39 0 37 0;
#X connect 39 1 36 1;
#X connect 40 0 41 0;
#X connect 41 0 42 0;
#X connect 42 0 43 0;
#X connect 43 0 125 0;
#X connect 44 0 42 1;
#X connect 45 0 47 0;
#X connect 45 0 47 1;
#X connect 46 0 50 0;
#X connect 47 0 46 0;
#X connect 48 0 49 0;
#X connect 49 0 47 0;
#X connect 49 1 46 1;
#X connect 50 0 51 0;
#X connect 51 0 52 0;
#X connect 52 0 53 0;
#X connect 53 0 126 0;
#X connect 54 0 52 1;
#X connect 55 0 57 0;
#X connect 55 0 57 1;
#X connect 56 0 60 0;
#X connect 57 0 56 0;
#X connect 58 0 59 0;
#X connect 59 0 57 0;
#X connect 59 1 56 1;
#X connect 60 0 61 0;
#X connect 61 0 62 0;
#X connect 62 0 63 0;
#X connect 63 0 127 0;
#X connect 64 0 62 1;
#X connect 65 0 67 0;
#X connect 65 0 67 1;
#X connect 66 0 70 0;
#X connect 67 0 66 0;
#X connect 68 0 69 0;
#X connect 69 0 67 0;
#X connect 69 1 66 1;
#X connect 70 0 71 0;
#X connect 71 0 72 0;
#X connect 72 0 73 0;
#X connect 73 0 128 0;
#X connect 74 0 72 1;
#X connect 75 0 77 0;
#X connect 75 0 77 1;
#X connect 76 0 80 0;
#X connect 77 0 76 0;
#X connect 78 0 79 0;
#X connect 79 0 77 0;
#X connect 79 1 76 1;
#X connect 80 0 81 0;
#X connect 81 0 82 0;
#X connect 82 0 83 0;
#X connect 83 0 129 0;
#X connect 84 0 82 1;
#X connect 85 0 87 0;
#X connect 85 0 87 1;
#X connect 86 0 90 0;
#X connect 87 0 86 0;
#X connect 88 0 89 0;
#X connect 89 0 87 0;
#X connect 89 1 86 1;
#X connect 90 0 91 0;
#X connect 91 0 92 0;
#X connect 92 0 93 0;
#X connect 93 0 130 0;
#X connect 94 0 92 1;
#X connect 95 0 97 0;
#X connect 95 0 97 1;
#X connect 96 0 100 0;
#X connect 97 0 96 0;
#X connect 98 0 99 0;
#X connect 99 0 97 0;
#X connect 99 1 96 1;
#X connect 100 0 101 0;
#X connect 101 0 102 0;
#X connect 102 0 103 0;
#X connect 103 0 131 0;
#X connect 104 0 102 1;
#X connect 105 0 107 0;
#X connect 105 0 107 1;
#X connect 106 0 110 0;
#X connect 107 0 106 0;
#X connect 108 0 109 0;
#X connect 109 0 107 0;
#X connect 109 1 106 1;
#X connect 110 0 111 0;
#X connect 111 0 112 0;
#X connect 112 0 113 0;
#X connect 113 0 132 0;
#X connect 114 0 112 1;
#X connect 115 0 117 0;
#X connect 115 0 117 1;
#X connect 116 0 120 0;
#X connect 117 0 116 0;
#X connect 118 0 119 0;
#X connect 119 0 117 0;
#X connect 119 1 116 1;
#X connect 120 0 121 0;
#X connect 121 0 122 0;
#X connect 122 0 123 0;
#X connect 123 0 133 0;
#X connect 124 0 122 1;
#X restore 157 422 pd auto-gain;
#X obj 210 162 hsl 100 15 0.001 30 1 0 \$0autoFreq \$0autoFreqIn freq:\ 1Hz 6 7 1 10 #fcfcfc #000000 #000000 0 1;
#X obj 114 55 hsl 85 15 20 500 0 0 \$0freq \$0freqIn freq:\ 174.28Hz 2 7 1 10 #fcfcfc #000000 #000000 0 1;
#X obj 474 206 s \$0rateIn;
#X obj 474 163 route rate cross-mod Q feedback 50-lvl 250-lvl 450-lvl 700-lvl 1000-lvl 1370-lvl 1850-lvl 2500-lvl 3400-lvl 4800-lvl 7000-lvl 10500-lvl freq;
#X obj 48 456 r \$0rate;
#X obj 62 477 r \$0freq;
#X obj 802 557 s \$0freqIn;
#X obj 48 566 abstractions/duffing~;
#N canvas 268 104 999 950 presetSave 1;
#X obj 105 470 r \$0preset;
#X obj 23 9 r \$0write;
#X obj 165 516 loadbang;
#X msg 165 618 0;
#X obj 225 616 f;
#X obj 225 573 r \$0load;
#X obj 240 594 r \$0preset;
#X obj 82 680 s \$0presetIn;
#X obj 23 30 t b b;
#X obj 165 588 t b b;
#X obj 165 537 delay 5;
#X obj 165 679 unpack f f f f f f f f f f f f f f f f f f, f 121;
#X obj 250 721 s \$0fdbckMultIn;
#X obj 292 742 s \$0QIn;
#X obj 335 763 s \$0fdbckAmtIn;
#X obj 377 784 s \$0filt1In;
#X obj 420 805 s \$0filt2In;
#X obj 462 826 s \$0filt3In;
#X obj 505 847 s \$0filt4In;
#X obj 547 868 s \$0filt5In;
#X obj 590 889 s \$0filt6In;
#X obj 632 910 s \$0filt7In;
#X obj 675 931 s \$0filt8In;
#X obj 717 952 s \$0filt9In;
#X obj 802 994 s \$0filt11In;
#X obj 760 973 s \$0filt10In;
#X obj 845 1015 s \$0filt12In;
#X obj 207 700 s \$0rateIn;
#X obj 888 1037 s \$0freqIn;
#X obj 95 72 r \$0rate;
#X obj 140 93 r \$0fdbckMult;
#X obj 185 114 r \$0Q;
#X obj 230 115 r \$0fdbckAmt;
#X obj 275 136 r \$0filt1;
#X obj 321 157 r \$0filt2;
#X obj 366 178 r \$0filt3;
#X obj 411 199 r \$0filt4;
#X obj 456 220 r \$0filt5;
#X obj 501 242 r \$0filt6;
#X obj 547 263 r \$0filt7;
#X obj 592 284 r \$0filt8;
#X obj 637 305 r \$0filt9;
#X obj 682 326 r \$0filt10;
#X obj 727 347 r \$0filt11;
#X obj 50 447 pack f f f f f f f f f f f f f f f f f f, f 121;
#X obj 743 373 r \$0filt12;
#X obj 773 419 r \$0freq;
#X msg 23 51 write presets/hillaryPresets.txt;
#X obj 50 491 text set \$0hillaryPresets;
#X obj 165 658 text get \$0hillaryPresets;
#X obj 23 839 text define \$0hillaryPresets;
#X msg 43 809 read presets/hillaryPresets.txt;
#X connect 0 0 48 1;
#X connect 1 0 8 0;
#X connect 2 0 10 0;
#X connect 3 0 7 0;
#X connect 3 0 49 0;
#X connect 4 0 49 0;
#X connect 5 0 4 0;
#X connect 6 0 4 1;
#X connect 8 0 47 0;
#X connect 8 1 44 0;
#X connect 9 0 3 0;
#X connect 9 1 51 0;
#X connect 10 0 9 0;
#X connect 11 1 27 0;
#X connect 11 2 12 0;
#X connect 11 3 13 0;
#X connect 11 4 14 0;
#X connect 11 5 15 0;
#X connect 11 6 16 0;
#X connect 11 7 17 0;
#X connect 11 8 18 0;
#X connect 11 9 19 0;
#X connect 11 10 20 0;
#X connect 11 11 21 0;
#X connect 11 12 22 0;
#X connect 11 13 23 0;
#X connect 11 14 25 0;
#X connect 11 15 24 0;
#X connect 11 16 26 0;
#X connect 11 17 28 0;
#X connect 29 0 44 1;
#X connect 30 0 44 2;
#X connect 31 0 44 3;
#X connect 32 0 44 4;
#X connect 33 0 44 5;
#X connect 34 0 44 6;
#X connect 35 0 44 7;
#X connect 36 0 44 8;
#X connect 37 0 44 9;
#X connect 38 0 44 10;
#X connect 39 0 44 11;
#X connect 40 0 44 12;
#X connect 41 0 44 13;
#X connect 42 0 44 14;
#X connect 43 0 44 15;
#X connect 44 0 48 0;
#X connect 45 0 44 16;
#X connect 46 0 44 17;
#X connect 47 0 50 0;
#X connect 49 0 11 0;
#X connect 51 0 50 0;
#X restore 71 297 pd presetSave;
#X obj 21 39 hradio 16 1 0 8 \$0preset \$0presetIn empty 0 -8 0 10 #fcfcfc #000000 #000000 0;
#X obj 150 39 bng 16 250 50 0 \$0write \$0writeIn wrt 19 3 1 10 #fcfcfc #000000 #000000;
#X obj 187 39 bng 16 250 50 0 \$0load \$0loadIn lod 19 3 1 10 #fcfcfc #000000 #000000;
#X connect 0 0 66 3;
#X connect 1 0 43 0;
#X connect 1 1 44 0;
#X connect 23 0 66 4;
#X connect 24 0 66 2;
#X connect 27 0 29 0;
#X connect 28 0 30 0;
#X connect 29 0 41 0;
#X connect 30 0 42 0;
#X connect 31 0 30 1;
#X connect 31 0 29 1;
#X connect 34 0 62 0;
#X connect 43 0 27 0;
#X connect 44 0 28 0;
#X connect 62 0 61 0;
#X connect 62 1 37 0;
#X connect 62 2 38 0;
#X connect 62 3 39 0;
#X connect 62 4 40 0;
#X connect 62 5 45 0;
#X connect 62 6 46 0;
#X connect 62 7 47 0;
#X connect 62 8 48 0;
#X connect 62 9 49 0;
#X connect 62 10 50 0;
#X connect 62 11 51 0;
#X connect 62 12 52 0;
#X connect 62 13 54 0;
#X connect 62 14 53 0;
#X connect 62 15 55 0;
#X connect 62 16 65 0;
#X connect 63 0 66 0;
#X connect 64 0 66 1;
#X connect 66 0 1 0;
#X coords 0 -1 1 1 293 200 2 20 20;
