#N canvas 513 107 571 386 10;
#X obj 0 8 cnv 15 100 60 empty empty hillary2~\ Help 7 12 1 18 #ffffff #404040 0;
#X obj 1 42 cnv 15 250 320 empty empty empty 20 12 0 14 #e0e0e0 #404040 0;
#X text 7 258 Inlets:;
#X text 26 289 key-word + \$1 in *message* box);
#X text 9 322 1: (signal) left signal out;
#X text 9 336 2: (signal) right signal out;
#X text 8 308 Outlets:;
#X obj 262 69 loadbang;
#X msg 262 111 freq \$1;
#X msg 262 90 80;
#X text 6 49 Duffing-based oscillator \, with built-in;
#X text 6 63 constant-skirt-gain bandpass array;
#X text 7 77 tuned to the Bark Scale.;
#X text 7 274 1: (control) modulation routing (slider;
#X text 6 104 rate affects harmonic content \, freq;
#X text 6 118 changes fundamental freq of the wave \,;
#X text 7 132 dry/wet controls blend between Duffing;
#X text 7 145 osc and bandpass array.;
#X text 7 158 Sliders in the centre can be used to;
#X text 7 171 alter vol of individual bands \, or this;
#X text 7 184 can be automated with 'auto-gain'.;
#X text 7 197 'feedback' controls the amount of;
#X text 8 210 feedback applied in the filter-array \,;
#X text 8 223 use with caution \, since unpleasant;
#X text 8 236 timbres may quickly arise.;
#X obj 262 132 w.hillary2~;
#X connect 7 0 9 0;
#X connect 8 0 25 0;
#X connect 9 0 8 0;
