#N canvas 513 107 571 445 10;
#X obj 0 8 cnv 15 100 60 empty empty hillary~\ Help 7 12 1 18 #ffffff #404040 0;
#X obj 1 42 cnv 15 250 380 empty empty empty 20 12 0 14 #e0e0e0 #404040 0;
#X text 8 318 Inlets:;
#X text 27 349 key-word + \$1 in *message* box);
#X text 10 382 1: (signal) left signal out;
#X text 10 396 2: (signal) right signal out;
#X text 9 368 Outlets:;
#X obj 262 69 loadbang;
#X msg 262 111 freq \$1;
#X msg 262 90 80;
#X text 6 49 Duffing-based oscillator \, with built-in;
#X text 8 334 1: (control) modulation routing (slider;
#X text 6 104 rate affects harmonic content \, freq;
#X text 6 118 changes fundamental freq of the wave \,;
#X text 7 132 dry/wet controls blend between Duffing;
#X text 7 145 osc and bandpass array.;
#X text 7 158 Sliders in the centre can be used to;
#X text 7 171 alter vol of individual bands \, or this;
#X text 7 184 can be automated with 'auto-gain'.;
#X text 7 197 'feedback' controls the amount of;
#X text 8 210 feedback applied in the filter-array \,;
#X text 8 223 use with caution \, since unpleasant;
#X text 8 236 timbres may quickly arise.;
#X text 6 63 resonant bandpass array tuned to the;
#X text 7 77 Bark Scale.;
#X text 8 248 'cross-mod' controls amount of;
#X text 8 261 modulation applied from output of the;
#X text 8 287 interesting.;
#X text 8 274 array. Values around 2000 are;
#X obj 262 133 w.hillary~;
#X connect 7 0 9 0;
#X connect 8 0 29 0;
#X connect 9 0 8 0;
