#N canvas 713 44 972 1043 10;
#X obj 209 297 loadbang;
#N canvas 125 115 1608 624 bandpassfilts 0;
#X obj 23 23 inlet~;
#X obj 42 555 outlet~;
#X obj 243 554 outlet~;
#X obj 97 312 r \$0Q;
#X obj 222 312 r \$0Q;
#X obj 100 555 delwrite~ \$0fdbck1;
#X obj 300 554 delwrite~ \$0fdbck2;
#X obj 22 354 *~ 0.6;
#X obj 22 437 throw~ \$0odd;
#X obj 141 354 *~ 0.6;
#X obj 141 437 throw~ \$0even;
#X obj 22 312 r~ \$0signal;
#X obj 23 275 s~ \$0signal;
#X obj 141 312 r~ \$0signal;
#X obj 42 524 catch~ \$0odd;
#X obj 243 524 catch~ \$0even;
#X obj 348 311 r \$0Q;
#X obj 474 311 r \$0Q;
#X obj 267 353 *~ 0.6;
#X obj 267 436 throw~ \$0odd;
#X obj 393 353 *~ 0.6;
#X obj 393 436 throw~ \$0even;
#X obj 267 311 r~ \$0signal;
#X obj 393 311 r~ \$0signal;
#X obj 601 311 r \$0Q;
#X obj 728 311 r \$0Q;
#X obj 514 353 *~ 0.6;
#X obj 514 436 throw~ \$0odd;
#X obj 641 353 *~ 0.6;
#X obj 641 436 throw~ \$0even;
#X obj 514 310 r~ \$0signal;
#X obj 641 311 r~ \$0signal;
#X obj 857 311 r \$0Q;
#X obj 989 311 r \$0Q;
#X obj 770 353 *~ 0.6;
#X obj 770 436 throw~ \$0odd;
#X obj 902 353 *~ 0.6;
#X obj 902 436 throw~ \$0even;
#X obj 770 311 r~ \$0signal;
#X obj 902 311 r~ \$0signal;
#X obj 1119 311 r \$0Q;
#X obj 1250 311 r \$0Q;
#X obj 1032 353 *~ 0.6;
#X obj 1032 436 throw~ \$0odd;
#X obj 1163 354 *~ 0.6;
#X obj 1163 437 throw~ \$0even;
#X obj 1032 311 r~ \$0signal;
#X obj 1163 311 r~ \$0signal;
#X obj 1379 311 r \$0Q;
#X obj 1516 313 r \$0Q;
#X obj 1292 353 *~ 0.6;
#X obj 1292 436 throw~ \$0odd;
#X obj 1423 355 *~ 0.6;
#X obj 1423 438 throw~ \$0even;
#X obj 1292 311 r~ \$0signal;
#X obj 1423 310 r~ \$0signal;
#X obj 72 23 delread4~ \$0fdbck2 5;
#X obj 268 23 delread4~ \$0fdbck1 5;
#X obj 72 198 *~;
#X obj 156 198 *~;
#X obj 87 175 r \$0fdbckAmt;
#X obj 72 122 fexpr~ tanh($x1);
#X obj 268 122 fexpr~ tanh($x1);
#X obj 22 416 *~;
#X obj 141 416 *~;
#X obj 267 415 *~;
#X obj 393 415 *~;
#X obj 514 415 *~;
#X obj 641 415 *~;
#X obj 770 415 *~;
#X obj 902 415 *~;
#X obj 1032 415 *~;
#X obj 1163 416 *~;
#X obj 1292 415 *~;
#X obj 1423 417 *~;
#X obj 37 394 r \$0filt1;
#X obj 156 394 r \$0filt2;
#X obj 282 394 r \$0filt3;
#X obj 408 394 r \$0filt4;
#X obj 529 394 r \$0filt5;
#X obj 785 395 r \$0filt7;
#X obj 917 395 r \$0filt8;
#X obj 1047 394 r \$0filt9;
#X obj 1178 395 r \$0filt10;
#X obj 1307 394 r \$0filt11;
#X obj 1438 396 r \$0filt12;
#X obj 656 394 r \$0filt6;
#X obj 268 143 fexpr~ $x1 - 1/3 * pow($x1 \, 3);
#X obj 72 143 fexpr~ $x1 - 1/3 * pow($x1 \, 3);
#X obj 22 333 w.resonbp~ 50 1;
#X obj 141 333 w.resonbp~ 250 1;
#X obj 267 332 w.resonbp~ 450 1;
#X obj 393 332 w.resonbp~ 700 1;
#X obj 514 332 w.resonbp~ 1000 1;
#X obj 641 332 w.resonbp~ 1370 1;
#X obj 770 332 w.resonbp~ 1850 1;
#X obj 902 332 w.resonbp~ 2500 1;
#X obj 1032 332 w.resonbp~ 3400 1;
#X obj 1163 333 w.resonbp~ 4800 1;
#X obj 1292 332 w.resonbp~ 7000 1;
#X obj 1423 334 w.resonbp~ 10500 1;
#X obj 72 44 lop~ 6000;
#X obj 72 65 lop~ 6000;
#X obj 72 86 lop~ 6000;
#X obj 268 44 lop~ 6000;
#X obj 268 65 lop~ 6000;
#X obj 268 86 lop~ 6000;
#X obj 175 262 unsig~;
#X floatatom 175 283 5 0 0 0 - - - 0;
#X connect 0 0 12 0;
#X connect 3 0 89 2;
#X connect 4 0 90 2;
#X connect 7 0 63 0;
#X connect 9 0 64 0;
#X connect 11 0 89 0;
#X connect 13 0 90 0;
#X connect 14 0 1 0;
#X connect 14 0 5 0;
#X connect 15 0 2 0;
#X connect 15 0 6 0;
#X connect 16 0 91 2;
#X connect 17 0 92 2;
#X connect 18 0 65 0;
#X connect 20 0 66 0;
#X connect 22 0 91 0;
#X connect 23 0 92 0;
#X connect 24 0 93 2;
#X connect 25 0 94 2;
#X connect 26 0 67 0;
#X connect 28 0 68 0;
#X connect 30 0 93 0;
#X connect 31 0 94 0;
#X connect 32 0 95 2;
#X connect 33 0 96 2;
#X connect 34 0 69 0;
#X connect 36 0 70 0;
#X connect 38 0 95 0;
#X connect 39 0 96 0;
#X connect 40 0 97 2;
#X connect 41 0 98 2;
#X connect 42 0 71 0;
#X connect 44 0 72 0;
#X connect 46 0 97 0;
#X connect 47 0 98 0;
#X connect 48 0 99 2;
#X connect 49 0 100 2;
#X connect 50 0 73 0;
#X connect 52 0 74 0;
#X connect 54 0 99 0;
#X connect 55 0 100 0;
#X connect 56 0 101 0;
#X connect 57 0 104 0;
#X connect 60 0 58 1;
#X connect 60 0 59 1;
#X connect 61 0 88 0;
#X connect 62 0 87 0;
#X connect 63 0 8 0;
#X connect 64 0 10 0;
#X connect 65 0 19 0;
#X connect 66 0 21 0;
#X connect 67 0 27 0;
#X connect 68 0 29 0;
#X connect 69 0 35 0;
#X connect 70 0 37 0;
#X connect 71 0 43 0;
#X connect 72 0 45 0;
#X connect 73 0 51 0;
#X connect 74 0 53 0;
#X connect 75 0 63 1;
#X connect 76 0 64 1;
#X connect 77 0 65 1;
#X connect 78 0 66 1;
#X connect 79 0 67 1;
#X connect 80 0 69 1;
#X connect 81 0 70 1;
#X connect 82 0 71 1;
#X connect 83 0 72 1;
#X connect 84 0 73 1;
#X connect 85 0 74 1;
#X connect 86 0 68 1;
#X connect 87 0 59 0;
#X connect 88 0 58 0;
#X connect 89 0 7 0;
#X connect 90 0 9 0;
#X connect 91 0 18 0;
#X connect 92 0 20 0;
#X connect 93 0 26 0;
#X connect 94 0 28 0;
#X connect 95 0 34 0;
#X connect 96 0 36 0;
#X connect 97 0 42 0;
#X connect 98 0 44 0;
#X connect 99 0 50 0;
#X connect 100 0 52 0;
#X connect 101 0 102 0;
#X connect 102 0 103 0;
#X connect 103 0 61 0;
#X connect 104 0 105 0;
#X connect 105 0 106 0;
#X connect 106 0 62 0;
#X connect 107 0 108 0;
#X restore 181 432 pd bandpassfilts;
#X f 21;
#X obj 21 86 vsl 15 100 0.01 1 1 0 \$0filt1 \$0filt1In 50 0 -9 1 10 #fcfcfc #000000 #000000 0 1;
#X obj 36 86 vsl 15 100 0.01 1 1 0 \$0filt2 \$0filt2In 250 0 109 1 10 #fcfcfc #000000 #000000 0 1;
#X obj 51 86 vsl 15 100 0.01 1 1 0 \$0filt3 \$0filt3In 450 0 -9 1 10 #fcfcfc #000000 #000000 0 1;
#X obj 66 86 vsl 15 100 0.01 1 1 0 \$0filt4 \$0filt4In 700 0 109 1 10 #fcfcfc #000000 #000000 0 1;
#X obj 81 86 vsl 15 100 0.01 1 1 0 \$0filt5 \$0filt5In 1000 0 -9 1 10 #fcfcfc #000000 #000000 0 1;
#X obj 96 86 vsl 15 100 0.01 1 1 0 \$0filt6 \$0filt6In 1370 0 109 1 10 #fcfcfc #000000 #000000 0 1;
#X obj 111 86 vsl 15 100 0.01 1 1 0 \$0filt7 \$0filt7In 1850 0 -9 1 10 #fcfcfc #000000 #000000 0 1;
#X obj 126 86 vsl 15 100 0.01 0.6 1 0 \$0filt8 \$0filt8In 2500 0 109 1 10 #fcfcfc #000000 #000000 0 1;
#X obj 141 86 vsl 15 100 0.01 0.6 1 0 \$0filt9 \$0filt9In 3400 0 -9 1 10 #fcfcfc #000000 #000000 0 1;
#X obj 156 86 vsl 15 100 0 0.5 0 0 \$0filt10 \$0filt10In 4800 0 109 1 10 #fcfcfc #000000 #000000 0 1;
#X obj 171 86 vsl 15 100 0.01 0.5 1 0 \$0filt11 \$0filt11In 7000 0 -9 1 10 #fcfcfc #000000 #000000 0 1;
#X obj 186 86 vsl 15 100 0.01 0.4 1 0 \$0filt12 \$0filt12In 10500 0 109 1 10 #fcfcfc #000000 #000000 0 1;
#X obj 250 181 hsl 60 15 1 5000 0 0 \$0Q \$0QIn Q:\ 424.64 3 8 1 10 #fcfcfc #000000 #000000 0 1;
#X obj 21 23 cnv 15 100 15 empty empty w.hillary2~ 2 8 1 12 #ff0400 #ffffff 0;
#X obj 125 23 hsl 94 15 0 2 0 0 \$0vol empty vol 10 7 1 10 #fcfcfc #000000 #000000 0 1;
#X obj 207 84 bng 15 250 50 0 \$0start empty start 19 7 1 10 #fcfcfc #000000 #000000;
#X obj 207 103 bng 15 250 50 0 \$0stop empty stop 19 7 1 10 #fcfcfc #000000 #000000;
#X obj 207 122 bng 15 250 50 0 \$0randomise empty randomise 19 7 1 10 #fcfcfc #000000 #000000;
#X obj 271 297 r \$0start;
#X obj 273 320 r \$0stop;
#X obj 118 297 r \$0randomise;
#X obj 24 55 hsl 85 15 0.00025 0.5 0 0 \$0rate \$0rateIn rate:\ 0.17dt 2 7 1 10 #fcfcfc #000000 #000000 0 1;
#X obj 210 201 hsl 100 15 0 0.5 0 0 \$0fdbckAmt \$0fdbckAmtIn feedback:\ 0 24 7 1 10 #fcfcfc #000000 #000000 0 1;
#X obj 36 727 clip~ -1 1;
#X obj 254 727 clip~ -1 1;
#X obj 36 872 *~;
#X obj 254 872 *~;
#X obj 269 782 r \$0vol;
#N canvas 260 325 1041 300 startvals 0;
#X obj 27 28 loadbang;
#X msg 27 49 1;
#X obj 27 234 s \$0filt1In;
#X obj 108 234 s \$0filt2In;
#X obj 189 234 s \$0filt3In;
#X obj 270 234 s \$0filt4In;
#X obj 353 234 s \$0filt5In;
#X obj 434 234 s \$0filt6In;
#X obj 515 234 s \$0filt7In;
#X obj 596 234 s \$0filt8In;
#X obj 680 234 s \$0filt9In;
#X obj 757 233 s \$0filt10In;
#X obj 842 234 s \$0filt11In;
#X obj 923 234 s \$0filt12In;
#X obj 101 137 s \$0autoFreq;
#X obj 213 127 s \$0Q;
#X msg 183 53 0;
#X obj 183 74 s \$0dryWetIn;
#X obj 60 115 s \$0driveIn;
#X obj 507 16 loadbang;
#X msg 507 45 set 0.3;
#X obj 507 66 s \$0kIn;
#X msg 564 45 set -1;
#X obj 564 66 s \$0alphaIn;
#X obj 644 66 s \$0betaIn;
#X msg 644 45 set 1;
#X obj 719 66 s \$0gammaIn;
#X msg 719 45 set 0.5;
#X connect 0 0 1 0;
#X connect 0 0 16 0;
#X connect 1 0 2 0;
#X connect 1 0 3 0;
#X connect 1 0 4 0;
#X connect 1 0 5 0;
#X connect 1 0 6 0;
#X connect 1 0 7 0;
#X connect 1 0 8 0;
#X connect 1 0 9 0;
#X connect 1 0 10 0;
#X connect 1 0 11 0;
#X connect 1 0 12 0;
#X connect 1 0 13 0;
#X connect 1 0 14 0;
#X connect 1 0 15 0;
#X connect 1 0 18 0;
#X connect 16 0 17 0;
#X connect 19 0 20 0;
#X connect 19 0 22 0;
#X connect 19 0 25 0;
#X connect 19 0 27 0;
#X connect 20 0 21 0;
#X connect 22 0 23 0;
#X connect 25 0 24 0;
#X connect 27 0 26 0;
#X restore 474 118 pd startvals;
#X obj 474 142 inlet;
#X obj 21 202 cnv 15 106 15 empty empty freq-lvl 3 8 1 12 #000000 #ffffff 0;
#X text 509 142 Automate filter-gains with *frequency-band*-lvl;
#X obj 514 248 s \$0QIn;
#X obj 534 269 s \$0fdbckAmtIn;
#X obj 554 291 s \$0filt1In;
#X obj 36 893 outlet~;
#X obj 254 893 outlet~;
#X obj 574 313 s \$0filt2In;
#X obj 594 335 s \$0filt3In;
#X obj 614 357 s \$0filt4In;
#X obj 634 379 s \$0filt5In;
#X obj 654 401 s \$0filt6In;
#X obj 674 423 s \$0filt7In;
#X obj 694 445 s \$0filt8In;
#X obj 714 469 s \$0filt9In;
#X obj 754 513 s \$0filt11In;
#X obj 734 491 s \$0filt10In;
#X obj 774 535 s \$0filt12In;
#N canvas 1066 148 535 451 sliderdisplay 0;
#X msg 22 116 label \$1;
#X obj 22 32 * 100;
#X obj 22 53 int;
#X obj 22 74 / 100;
#X msg 177 115 label \$1;
#X obj 177 31 * 100;
#X obj 177 52 int;
#X obj 177 73 / 100;
#X obj 177 10 r \$0Q;
#X obj 177 136 s \$0QIn;
#X msg 177 94 symbol Q:\\\ \$1;
#X msg 279 113 label \$1;
#X obj 279 50 int;
#X obj 279 8 r \$0fdbckAmt;
#X obj 279 134 s \$0fdbckAmtIn;
#X msg 279 92 symbol feedback:\\\ \$1;
#X obj 279 29 * 1000;
#X obj 279 71 / 1000;
#X msg 23 271 label \$1;
#X obj 23 208 int;
#X obj 23 166 r \$0autoFreq;
#X obj 23 292 s \$0autoFreqIn;
#X msg 23 250 symbol freq:\\\ \$1Hz;
#X obj 23 187 * 1000;
#X obj 23 229 / 1000;
#X msg 22 95 symbol rate:\\\ \$1dt;
#X obj 22 11 r \$0rate;
#X obj 22 137 s \$0rateIn;
#X msg 182 276 label \$1;
#X obj 182 192 * 100;
#X obj 182 213 int;
#X obj 182 234 / 100;
#X obj 182 171 r \$0freq;
#X msg 182 255 symbol freq:\\\ \$1Hz;
#X obj 182 297 s \$0freqIn;
#X msg 307 276 label \$1;
#X obj 307 192 * 100;
#X obj 307 213 int;
#X obj 307 234 / 100;
#X obj 307 171 r \$0dryWet;
#X obj 307 297 s \$0dryWetIn;
#X msg 307 255 symbol dry/wet:\\\ \$1;
#X connect 0 0 27 0;
#X connect 1 0 2 0;
#X connect 2 0 3 0;
#X connect 3 0 25 0;
#X connect 4 0 9 0;
#X connect 5 0 6 0;
#X connect 6 0 7 0;
#X connect 7 0 10 0;
#X connect 8 0 5 0;
#X connect 10 0 4 0;
#X connect 11 0 14 0;
#X connect 12 0 17 0;
#X connect 13 0 16 0;
#X connect 15 0 11 0;
#X connect 16 0 12 0;
#X connect 17 0 15 0;
#X connect 18 0 21 0;
#X connect 19 0 24 0;
#X connect 20 0 23 0;
#X connect 22 0 18 0;
#X connect 23 0 19 0;
#X connect 24 0 22 0;
#X connect 25 0 0 0;
#X connect 26 0 1 0;
#X connect 28 0 34 0;
#X connect 29 0 30 0;
#X connect 30 0 31 0;
#X connect 31 0 33 0;
#X connect 32 0 29 0;
#X connect 33 0 28 0;
#X connect 35 0 40 0;
#X connect 36 0 37 0;
#X connect 37 0 38 0;
#X connect 38 0 41 0;
#X connect 39 0 36 0;
#X connect 41 0 35 0;
#X restore 38 264 pd sliderdisplay;
#X obj 207 142 tgl 15 0 \$0autoGainOn empty auto-gain 19 7 1 10 #fcfcfc #000000 #000000 0 1;
#N canvas 0 303 1798 541 auto-gain 0;
#X obj 18 41 expr (1 / $f1) * 1000;
#X text 152 42 Converting Hz to ms.;
#X obj 18 20 r \$0autoFreq;
#X obj 18 62 s \$0autoFreqMs;
#X obj 27 118 r \$0autoGainOn;
#X obj 27 210 metro, f 9;
#X obj 27 190 f;
#X obj 51 143 r \$0autoFreqMs;
#X obj 51 164 t b f;
#X obj 27 231 random 1000;
#X obj 27 252 / 1000;
#X obj 27 273 pack f f, f 9;
#X obj 27 294 line;
#X obj 27 315 s \$0filt1In;
#X obj 78 252 r \$0autoFreqMs;
#X obj 1747 115 r \$0autoGainOn;
#X obj 1747 207 metro, f 9;
#X obj 1747 187 f;
#X obj 1771 140 r \$0autoFreqMs;
#X obj 1771 161 t b f;
#X obj 1747 249 / 1000;
#X obj 1747 270 pack f f, f 9;
#X obj 1747 291 line;
#X obj 1798 249 r \$0autoFreqMs;
#X obj 183 118 r \$0autoGainOn;
#X obj 183 210 metro, f 9;
#X obj 183 190 f;
#X obj 207 143 r \$0autoFreqMs;
#X obj 207 164 t b f;
#X obj 183 231 random 1000;
#X obj 183 252 / 1000;
#X obj 183 273 pack f f, f 9;
#X obj 183 294 line;
#X obj 234 252 r \$0autoFreqMs;
#X obj 338 118 r \$0autoGainOn;
#X obj 338 210 metro, f 9;
#X obj 338 190 f;
#X obj 362 143 r \$0autoFreqMs;
#X obj 362 164 t b f;
#X obj 338 231 random 1000;
#X obj 338 252 / 1000;
#X obj 338 273 pack f f, f 9;
#X obj 338 294 line;
#X obj 389 252 r \$0autoFreqMs;
#X obj 495 117 r \$0autoGainOn;
#X obj 495 209 metro, f 9;
#X obj 495 189 f;
#X obj 519 142 r \$0autoFreqMs;
#X obj 519 163 t b f;
#X obj 495 230 random 1000;
#X obj 495 251 / 1000;
#X obj 495 272 pack f f, f 9;
#X obj 495 293 line;
#X obj 546 251 r \$0autoFreqMs;
#X obj 650 117 r \$0autoGainOn;
#X obj 650 209 metro, f 9;
#X obj 650 189 f;
#X obj 674 142 r \$0autoFreqMs;
#X obj 674 163 t b f;
#X obj 650 230 random 1000;
#X obj 650 251 / 1000;
#X obj 650 272 pack f f, f 9;
#X obj 650 293 line;
#X obj 701 251 r \$0autoFreqMs;
#X obj 810 117 r \$0autoGainOn;
#X obj 810 209 metro, f 9;
#X obj 810 189 f;
#X obj 834 142 r \$0autoFreqMs;
#X obj 834 163 t b f;
#X obj 810 230 random 1000;
#X obj 810 251 / 1000;
#X obj 810 272 pack f f, f 9;
#X obj 810 293 line;
#X obj 861 251 r \$0autoFreqMs;
#X obj 965 117 r \$0autoGainOn;
#X obj 965 209 metro, f 9;
#X obj 965 189 f;
#X obj 989 142 r \$0autoFreqMs;
#X obj 989 163 t b f;
#X obj 965 230 random 1000;
#X obj 965 251 / 1000;
#X obj 965 272 pack f f, f 9;
#X obj 965 293 line;
#X obj 1016 251 r \$0autoFreqMs;
#X obj 1122 116 r \$0autoGainOn;
#X obj 1122 208 metro, f 9;
#X obj 1122 188 f;
#X obj 1146 141 r \$0autoFreqMs;
#X obj 1146 162 t b f;
#X obj 1122 250 / 1000;
#X obj 1122 271 pack f f, f 9;
#X obj 1122 292 line;
#X obj 1173 250 r \$0autoFreqMs;
#X obj 1277 116 r \$0autoGainOn;
#X obj 1277 208 metro, f 9;
#X obj 1277 188 f;
#X obj 1301 141 r \$0autoFreqMs;
#X obj 1301 162 t b f;
#X obj 1277 250 / 1000;
#X obj 1277 271 pack f f, f 9;
#X obj 1277 292 line;
#X obj 1328 250 r \$0autoFreqMs;
#X obj 1437 116 r \$0autoGainOn;
#X obj 1437 208 metro, f 9;
#X obj 1437 188 f;
#X obj 1461 141 r \$0autoFreqMs;
#X obj 1461 162 t b f;
#X obj 1437 250 / 1000;
#X obj 1437 271 pack f f, f 9;
#X obj 1437 292 line;
#X obj 1488 250 r \$0autoFreqMs;
#X obj 1592 116 r \$0autoGainOn;
#X obj 1592 208 metro, f 9;
#X obj 1592 188 f;
#X obj 1616 141 r \$0autoFreqMs;
#X obj 1616 162 t b f;
#X obj 1592 250 / 1000;
#X obj 1592 271 pack f f, f 9;
#X obj 1592 292 line;
#X obj 1643 250 r \$0autoFreqMs;
#X obj 338 315 s \$0filt3In;
#X obj 495 314 s \$0filt4In;
#X obj 650 314 s \$0filt5In;
#X obj 810 314 s \$0filt6In;
#X obj 965 314 s \$0filt7In;
#X obj 1122 313 s \$0filt8In;
#X obj 1277 313 s \$0filt9In;
#X obj 1437 313 s \$0filt10In;
#X obj 1592 313 s \$0filt11In;
#X obj 183 315 s \$0filt2In;
#X obj 1747 312 s \$0filt12In;
#X obj 1122 229 random 600;
#X obj 1277 229 random 600;
#X obj 1437 229 random 500;
#X obj 1592 229 random 500;
#X obj 1747 228 random 400;
#X connect 0 0 3 0;
#X connect 2 0 0 0;
#X connect 4 0 6 0;
#X connect 4 0 6 1;
#X connect 5 0 9 0;
#X connect 6 0 5 0;
#X connect 7 0 8 0;
#X connect 8 0 6 0;
#X connect 8 1 5 1;
#X connect 9 0 10 0;
#X connect 10 0 11 0;
#X connect 11 0 12 0;
#X connect 12 0 13 0;
#X connect 14 0 11 1;
#X connect 15 0 17 0;
#X connect 15 0 17 1;
#X connect 16 0 135 0;
#X connect 17 0 16 0;
#X connect 18 0 19 0;
#X connect 19 0 17 0;
#X connect 19 1 16 1;
#X connect 20 0 21 0;
#X connect 21 0 22 0;
#X connect 22 0 130 0;
#X connect 23 0 21 1;
#X connect 24 0 26 0;
#X connect 24 0 26 1;
#X connect 25 0 29 0;
#X connect 26 0 25 0;
#X connect 27 0 28 0;
#X connect 28 0 26 0;
#X connect 28 1 25 1;
#X connect 29 0 30 0;
#X connect 30 0 31 0;
#X connect 31 0 32 0;
#X connect 32 0 129 0;
#X connect 33 0 31 1;
#X connect 34 0 36 0;
#X connect 34 0 36 1;
#X connect 35 0 39 0;
#X connect 36 0 35 0;
#X connect 37 0 38 0;
#X connect 38 0 36 0;
#X connect 38 1 35 1;
#X connect 39 0 40 0;
#X connect 40 0 41 0;
#X connect 41 0 42 0;
#X connect 42 0 120 0;
#X connect 43 0 41 1;
#X connect 44 0 46 0;
#X connect 44 0 46 1;
#X connect 45 0 49 0;
#X connect 46 0 45 0;
#X connect 47 0 48 0;
#X connect 48 0 46 0;
#X connect 48 1 45 1;
#X connect 49 0 50 0;
#X connect 50 0 51 0;
#X connect 51 0 52 0;
#X connect 52 0 121 0;
#X connect 53 0 51 1;
#X connect 54 0 56 0;
#X connect 54 0 56 1;
#X connect 55 0 59 0;
#X connect 56 0 55 0;
#X connect 57 0 58 0;
#X connect 58 0 56 0;
#X connect 58 1 55 1;
#X connect 59 0 60 0;
#X connect 60 0 61 0;
#X connect 61 0 62 0;
#X connect 62 0 122 0;
#X connect 63 0 61 1;
#X connect 64 0 66 0;
#X connect 64 0 66 1;
#X connect 65 0 69 0;
#X connect 66 0 65 0;
#X connect 67 0 68 0;
#X connect 68 0 66 0;
#X connect 68 1 65 1;
#X connect 69 0 70 0;
#X connect 70 0 71 0;
#X connect 71 0 72 0;
#X connect 72 0 123 0;
#X connect 73 0 71 1;
#X connect 74 0 76 0;
#X connect 74 0 76 1;
#X connect 75 0 79 0;
#X connect 76 0 75 0;
#X connect 77 0 78 0;
#X connect 78 0 76 0;
#X connect 78 1 75 1;
#X connect 79 0 80 0;
#X connect 80 0 81 0;
#X connect 81 0 82 0;
#X connect 82 0 124 0;
#X connect 83 0 81 1;
#X connect 84 0 86 0;
#X connect 84 0 86 1;
#X connect 85 0 131 0;
#X connect 86 0 85 0;
#X connect 87 0 88 0;
#X connect 88 0 86 0;
#X connect 88 1 85 1;
#X connect 89 0 90 0;
#X connect 90 0 91 0;
#X connect 91 0 125 0;
#X connect 92 0 90 1;
#X connect 93 0 95 0;
#X connect 93 0 95 1;
#X connect 94 0 132 0;
#X connect 95 0 94 0;
#X connect 96 0 97 0;
#X connect 97 0 95 0;
#X connect 97 1 94 1;
#X connect 98 0 99 0;
#X connect 99 0 100 0;
#X connect 100 0 126 0;
#X connect 101 0 99 1;
#X connect 102 0 104 0;
#X connect 102 0 104 1;
#X connect 103 0 133 0;
#X connect 104 0 103 0;
#X connect 105 0 106 0;
#X connect 106 0 104 0;
#X connect 106 1 103 1;
#X connect 107 0 108 0;
#X connect 108 0 109 0;
#X connect 109 0 127 0;
#X connect 110 0 108 1;
#X connect 111 0 113 0;
#X connect 111 0 113 1;
#X connect 112 0 134 0;
#X connect 113 0 112 0;
#X connect 114 0 115 0;
#X connect 115 0 113 0;
#X connect 115 1 112 1;
#X connect 116 0 117 0;
#X connect 117 0 118 0;
#X connect 118 0 128 0;
#X connect 119 0 117 1;
#X connect 131 0 89 0;
#X connect 132 0 98 0;
#X connect 133 0 107 0;
#X connect 134 0 116 0;
#X connect 135 0 20 0;
#X restore 146 264 pd auto-gain;
#X obj 210 162 hsl 100 15 0.001 30 1 0 \$0autoFreq \$0autoFreqIn freq:\ 0.965Hz 6 7 1 10 #fcfcfc #000000 #000000 0 1;
#X obj 114 55 hsl 85 15 20 500 0 0 \$0freq \$0freqIn freq:\ 168.57Hz 2 7 1 10 #fcfcfc #000000 #000000 0 1;
#X obj 474 206 s \$0rateIn;
#X obj 37 298 r \$0rate;
#X obj 51 319 r \$0freq;
#X obj 802 557 s \$0freqIn;
#X obj 140 476 / 4;
#X obj 94 453 expr 1-$f1;
#X obj 94 474 / 4;
#X obj 73 495 osc~;
#X obj 119 497 osc~;
#X obj 119 518 -~ 1;
#X obj 73 516 -~ 1;
#X obj 119 539 abs~;
#X obj 73 537 abs~;
#X obj 94 432 r \$0dryWet;
#X obj 204 55 hsl 85 15 0 1 0 0 \$0dryWet \$0dryWetIn dry/wet:\ 0 20 7 1 10 #fcfcfc #000000 #000000 0 1;
#X obj 181 576 *~;
#X obj 304 576 *~;
#X obj 36 591 *~;
#X obj 37 429 *~ 0.3;
#X text 471 18 Oscillator based around a Duffing oscialltor \, passed through an array of 12 resonant bandpass filters (resonance decay) \, tuned to the odd frequencies in the Bark scale (inspired by Verbos Bark Filter). The filter array incorporates ONE feedback loop to re-introduce the signal back through the filters.;
#X obj 304 597 lop~ 3000;
#X obj 304 618 lop~ 3000;
#X obj 304 639 lop~ 3000;
#X obj 181 597 lop~ 3000;
#X obj 181 618 lop~ 3000;
#X obj 181 639 lop~ 3000;
#X obj 304 474 *~ 1.2;
#X obj 181 474 *~ 1.2;
#X obj 494 227 s \$0dryWetIn;
#X obj 51 340 clip -20 20000;
#X obj 254 749 expr~ $v1 - 1/3 * pow($v1 \, 3);
#X obj 36 749 expr~ $v1 - 1/3 * pow($v1 \, 3);
#X obj 254 706 *~;
#X obj 36 706 *~;
#X obj 60 649 r \$0drive;
#X obj 60 670 line~ 5;
#X obj 224 23 hsl 65 15 1 10 0 0 \$0drive \$0driveIn drive 10 7 1 10 #fcfcfc #000000 #000000 0 1;
#X obj 474 163 route rate dry/wet Q feedback 50-lvl 250-lvl 450-lvl 700-lvl 1000-lvl 1370-lvl 1850-lvl 2500-lvl 3400-lvl 4800-lvl 7000-lvl 10500-lvl freq drive;
#X obj 827 585 s \$0driveIn;
#X obj 291 54 bng 16 250 50 0 \$0show empty xtra 2 -8 1 10 #fcfcfc #000000 #000000;
#N canvas 1178 451 322 132 \$0extra 0;
#X obj 1 1 cnv 16 320 130 empty empty coefficient\ control 5 12 1 14 #dfdfdf #404040 0;
#X floatatom 17 34 10 0 0 1 k \$0kIn \$0k 0;
#X floatatom 17 55 10 0 0 1 alpha \$0alphaIn \$0alpha 0;
#X floatatom 17 76 10 0 0 1 beta \$0betaIn \$0beta 0;
#X floatatom 17 97 10 0 0 1 gamma \$0gammaIn \$0gamma 0;
#X obj 137 30 cnv 16 16 16 empty empty defaults: 0 8 1 12 #e0e0e0 #404040 0;
#X obj 144 46 cnv 16 16 16 empty empty k:\ 0.3 0 8 1 12 #e0e0e0 #404040 0;
#X obj 144 62 cnv 16 16 16 empty empty alpha:\ -1 0 8 1 12 #e0e0e0 #404040 0;
#X obj 144 80 cnv 16 16 16 empty empty beta:\ 1 0 8 1 12 #e0e0e0 #404040 0;
#X obj 144 97 cnv 16 16 16 empty empty gamma:\ 0.5 0 8 1 12 #e0e0e0 #404040 0;
#X restore 344 111 pd \$0extra;
#X obj 344 39 r \$0show;
#X msg 344 60 vis 1;
#X obj 344 81 s pd-\$0extra;
#N canvas 310 504 540 300 \$0coeffs 0;
#X msg 41 41 k \$1;
#X obj 41 20 r \$0k;
#X obj 41 132 outlet;
#X obj 84 20 r \$0alpha;
#X msg 84 41 alpha \$1;
#X obj 150 20 r \$0beta;
#X msg 150 41 beta \$1;
#X obj 213 20 r \$0gamma;
#X msg 213 41 gamma \$1;
#X connect 0 0 2 0;
#X connect 1 0 0 0;
#X connect 3 0 4 0;
#X connect 4 0 2 0;
#X connect 5 0 6 0;
#X connect 6 0 2 0;
#X connect 7 0 8 0;
#X connect 8 0 2 0;
#X restore 356 313 pd \$0coeffs;
#X obj 269 803 line~ 5;
#X obj 304 453 fexpr~ tanh($x1);
#X obj 181 453 fexpr~ tanh($x1);
#X obj 37 369 clip 0 0.5;
#X obj 37 408 abstractions/duffing~, f 48;
#N canvas 237 50 1060 1021 presetSave 0;
#X obj 102 462 r \$0preset;
#X obj 20 15 r \$0write;
#X obj 162 508 loadbang;
#X msg 162 610 0;
#X obj 222 608 f;
#X obj 222 565 r \$0load;
#X obj 237 586 r \$0preset;
#X obj 79 672 s \$0presetIn;
#X obj 20 36 t b b;
#X obj 162 580 t b b;
#X obj 162 529 delay 5;
#X obj 289 734 s \$0QIn;
#X obj 332 754 s \$0fdbckAmtIn;
#X obj 374 775 s \$0filt1In;
#X obj 417 796 s \$0filt2In;
#X obj 459 817 s \$0filt3In;
#X obj 502 838 s \$0filt4In;
#X obj 544 858 s \$0filt5In;
#X obj 587 879 s \$0filt6In;
#X obj 629 900 s \$0filt7In;
#X obj 672 921 s \$0filt8In;
#X obj 714 942 s \$0filt9In;
#X obj 791 984 s \$0filt11In;
#X obj 757 963 s \$0filt10In;
#X obj 838 1005 s \$0filt12In;
#X obj 204 692 s \$0rateIn;
#X obj 882 1028 s \$0freqIn;
#X obj 247 713 s \$0dryWetIn;
#X obj 929 1053 s \$0driveIn;
#X obj 162 671 unpack f f f f f f f f f f f f f f f f f f f, f 121;
#X obj 87 79 r \$0rate;
#X obj 47 439 pack f f f f f f f f f f f f f f f f f f f, f 121;
#X obj 127 100 r \$0dryWet;
#X obj 167 121 r \$0Q;
#X obj 207 121 r \$0fdbckAmt;
#X obj 247 142 r \$0filt1;
#X obj 288 163 r \$0filt2;
#X obj 328 185 r \$0filt3;
#X obj 368 205 r \$0filt4;
#X obj 408 226 r \$0filt5;
#X obj 448 247 r \$0filt6;
#X obj 488 268 r \$0filt7;
#X obj 529 289 r \$0filt8;
#X obj 569 310 r \$0filt9;
#X obj 609 331 r \$0filt10;
#X obj 649 352 r \$0filt11;
#X obj 689 373 r \$0filt12;
#X obj 729 394 r \$0freq;
#X obj 770 416 r \$0drive;
#X msg 20 57 write presets/hillary2Presets.txt;
#X obj 47 483 text set \$0hillary2Presets;
#X obj 162 650 text get \$0hillary2Presets;
#X msg 40 801 read presets/hillary2Presets.txt;
#X obj 20 831 text define \$0hillary2Presets;
#X connect 0 0 50 1;
#X connect 1 0 8 0;
#X connect 2 0 10 0;
#X connect 3 0 7 0;
#X connect 3 0 51 0;
#X connect 4 0 51 0;
#X connect 5 0 4 0;
#X connect 6 0 4 1;
#X connect 8 0 49 0;
#X connect 8 1 31 0;
#X connect 9 0 3 0;
#X connect 9 1 52 0;
#X connect 10 0 9 0;
#X connect 29 1 25 0;
#X connect 29 2 27 0;
#X connect 29 3 11 0;
#X connect 29 4 12 0;
#X connect 29 5 13 0;
#X connect 29 6 14 0;
#X connect 29 7 15 0;
#X connect 29 8 16 0;
#X connect 29 9 17 0;
#X connect 29 10 18 0;
#X connect 29 11 19 0;
#X connect 29 12 20 0;
#X connect 29 13 21 0;
#X connect 29 14 23 0;
#X connect 29 15 22 0;
#X connect 29 16 24 0;
#X connect 29 17 26 0;
#X connect 29 18 28 0;
#X connect 30 0 31 1;
#X connect 31 0 50 0;
#X connect 32 0 31 2;
#X connect 33 0 31 3;
#X connect 34 0 31 4;
#X connect 35 0 31 5;
#X connect 36 0 31 6;
#X connect 37 0 31 7;
#X connect 38 0 31 8;
#X connect 39 0 31 9;
#X connect 40 0 31 10;
#X connect 41 0 31 11;
#X connect 42 0 31 12;
#X connect 43 0 31 13;
#X connect 44 0 31 14;
#X connect 45 0 31 15;
#X connect 46 0 31 16;
#X connect 47 0 31 17;
#X connect 48 0 31 18;
#X connect 49 0 53 0;
#X connect 51 0 29 0;
#X connect 52 0 53 0;
#X restore 469 461 pd presetSave;
#X obj 21 39 hradio 16 1 0 8 \$0preset \$0presetIn empty 0 -8 0 10 #fcfcfc #000000 #000000 0;
#X obj 150 39 bng 16 250 50 0 \$0write \$0writeIn wrt 19 3 1 10 #fcfcfc #000000 #000000;
#X obj 187 39 bng 16 250 50 0 \$0load \$0loadIn lod 19 3 1 10 #fcfcfc #000000 #000000;
#X connect 0 0 104 3;
#X connect 1 0 102 0;
#X connect 1 1 101 0;
#X connect 20 0 104 3;
#X connect 21 0 104 4;
#X connect 22 0 104 2;
#X connect 25 0 86 0;
#X connect 26 0 85 0;
#X connect 27 0 37 0;
#X connect 28 0 38 0;
#X connect 29 0 100 0;
#X connect 31 0 92 0;
#X connect 56 0 103 0;
#X connect 57 0 84 0;
#X connect 59 0 63 1;
#X connect 60 0 61 0;
#X connect 61 0 62 1;
#X connect 62 0 65 0;
#X connect 63 0 64 0;
#X connect 64 0 66 0;
#X connect 65 0 67 0;
#X connect 66 0 71 1;
#X connect 66 0 70 1;
#X connect 67 0 72 1;
#X connect 68 0 60 0;
#X connect 68 0 59 0;
#X connect 70 0 78 0;
#X connect 71 0 75 0;
#X connect 72 0 87 0;
#X connect 72 0 88 0;
#X connect 73 0 72 0;
#X connect 75 0 76 0;
#X connect 76 0 77 0;
#X connect 77 0 87 0;
#X connect 78 0 79 0;
#X connect 79 0 80 0;
#X connect 80 0 88 0;
#X connect 81 0 71 0;
#X connect 82 0 70 0;
#X connect 84 0 104 1;
#X connect 85 0 28 0;
#X connect 86 0 27 0;
#X connect 87 0 26 0;
#X connect 88 0 25 0;
#X connect 89 0 90 0;
#X connect 90 0 88 1;
#X connect 90 0 87 1;
#X connect 92 0 55 0;
#X connect 92 1 83 0;
#X connect 92 2 34 0;
#X connect 92 3 35 0;
#X connect 92 4 36 0;
#X connect 92 5 39 0;
#X connect 92 6 40 0;
#X connect 92 7 41 0;
#X connect 92 8 42 0;
#X connect 92 9 43 0;
#X connect 92 10 44 0;
#X connect 92 11 45 0;
#X connect 92 12 46 0;
#X connect 92 13 48 0;
#X connect 92 14 47 0;
#X connect 92 15 49 0;
#X connect 92 16 58 0;
#X connect 92 17 93 0;
#X connect 96 0 97 0;
#X connect 97 0 98 0;
#X connect 99 0 104 5;
#X connect 100 0 28 1;
#X connect 100 0 27 1;
#X connect 101 0 81 0;
#X connect 102 0 82 0;
#X connect 103 0 104 0;
#X connect 104 0 1 0;
#X connect 104 0 73 0;
#X coords 0 -1 1 1 293 200 2 20 20;
