#N canvas 399 207 1349 721 10;
#X obj 21 23 cnv 15 60 15 empty empty lfo~ 3 7 1 12 #551312 #ffffff 0;
#X obj 24 39 hsl 128 15 0 30 0 0 \$0freq \$0freqIn freq:\ 30Hz 7 7 1 10 #fcfcfc #000000 #000000 0 1;
#X obj 24 54 hsl 128 15 0.001 1000 1 0 \$0amt \$0amtIn amt:\ x1 7 7 1 10 #fcfcfc #000000 #000000 0 1;
#X obj 21 69 hradio 20 1 0 5 \$0waveSel \$0startWave sin\ \ \ tri\ \ \ saw\ sqr\ \ s&h 1 26 1 9 #fcfcfc #000000 #000000 0;
#N canvas 1153 529 450 278 (subpatch) 0;
#X array \$0wave 441 float 1;
#A 0 -1 -1 -1 -1 -1 -1 -1 -1 -1 -1 -1 -1 -1 -1 -1 -1 -1 -1 -1 -1 -1 -1 -1 -1 -1 -1 -1 -1 -1 -1 -1 -1 -1 -1 -1 -1 -1 -1 -1 -1 -1 -1 -1 -1 -1 -1 -1 -1 -1 -1 -1 -1 -1 -1 -1 -1 -1 -1 -1 -1 -1 -1 -1 -1 -1 -1 -1 -1 -1 -1 -1 -1 -1 -1 -1 -1 -1 -1 -1 -1 -1 -1 -1 -1 -1 -1 -1 -1 -1 -1 -1 -1 -1 -1 -1 -1 -1 -1 -1 -1 -1 -1 -1 -1 -1 -1 -1 -1 -1 -1 -1 -1 -1 -1 -1 -1 -1 -1 -1 -1 -1 -1 -1 -1 -1 -1 -1 -1 -1 -1 -1 -1 -1 -1 -1 -1 -1 -1 -1 -1 -1 -1 -1 -1 -1 -1 -1 -1 -1 -1 -1 -1 -1 -1 -1 -1 -1 -1 -1 -1 -1 -1 -1 -1 -1 -1 -1 -1 -1 -1 -1 -1 -1 -1 -1 -1 -1 -1 -1 -1 -1 -1 -1 -1 -1 -1 -1 -1 -1 -1 -1 -1 -1 -1 -1 -1 -1 -1 -1 -1 -1 -1 -1 -1 -1 -1 -1 -1 -1 -1 -1 -1 -1 -1 -1 -1 -1 -1 -1 -1 -1 1 1 1 1 1 1 1 1 1 1 1 1 1 1 1 1 1 1 1 1 1 1 1 1 1 1 1 1 1 1 1 1 1 1 1 1 1 1 1 1 1 1 1 1 1 1 1 1 1 1 1 1 1 1 1 1 1 1 1 1 1 1 1 1 1 1 1 1 1 1 1 1 1 1 1 1 1 1 1 1 1 1 1 1 1 1 1 1 1 1 1 1 1 1 1 1 1 1 1 1 1 1 1 1 1 1 1 1 1 1 1 1 1 1 1 1 1 1 1 1 1 1 1 1 1 1 1 1 1 1 1 1 1 1 1 1 1 1 1 1 1 1 1 1 1 1 1 1 1 1 1 1 1 1 1 1 1 1 1 1 1 1 1 1 1 1 1 1 1 1 1 1 1 1 1 1 1 1 1 1 1 1 1 1 1 1 1 1 1 1 1 1 1 1 1 1 1 1 1 1 1 1 1 1 1 1 1 1 1 1 1 1 1 1 1 1 1 1 1 1;
#X coords 0 1.5 440 -1.5 55 30 1 0 0;
#X restore 154 39 graph;
#X obj 20 116 r \$0waveSel;
#X obj 334 296 bng 15 250 50 0 empty empty empty 17 7 0 10 #fcfcfc #000000 #000000;
#X obj 334 316 t b b;
#X obj 356 371 phasor~ 100;
#X obj 356 392 *~ 2;
#X obj 356 413 -~ 1;
#X msg 419 350 0;
#X obj 334 473 tabwrite~ \$0wave;
#X obj 20 290 bng 15 250 50 0 empty empty empty 17 7 0 10 #fcfcfc #000000 #000000;
#X obj 20 310 t b b;
#X obj 20 467 tabwrite~ \$0wave;
#X msg 63 344 0.5;
#X obj 140 506 -~ 1;
#X obj 140 527 clip~ 0 1;
#X obj 192 573 +~;
#X obj 140 485 *~ 2;
#X obj 221 506 -~ 1;
#X obj 221 527 clip~ 0 1;
#X obj 221 485 *~ 2;
#X obj 140 464 phasor~ 100;
#X obj 42 365 osc~ 100;
#X obj 192 594 *~ 2;
#X obj 192 615 -~ 1;
#X obj 152 290 bng 15 250 50 0 empty empty empty 17 7 0 10 #fcfcfc #000000 #000000;
#X obj 152 310 t b b;
#X obj 152 669 tabwrite~ \$0wave;
#X obj 221 464 phasor~ -100;
#X msg 290 443 0.5, f 4;
#X obj 505 446 phasor~ 100;
#X obj 505 467 +~;
#X obj 505 488 -~ 1;
#X obj 584 446 phasor~ -100;
#X obj 418 290 bng 15 250 50 0 empty empty empty 17 7 0 10 #fcfcfc #000000 #000000;
#X obj 492 618 tabwrite~ \$0wave;
#X obj 492 354 t b b b;
#X msg 568 425 0;
#X msg 653 425 0.5;
#X obj 430 442 s \$0wave;
#X obj 430 400 delay 15;
#X msg 430 421 normalize 1;
#X obj 1058 189 r \$0freq;
#X obj 1058 210 line~;
#X obj 1058 231 phasor~;
#X obj 1058 252 *~ 441;
#X obj 1058 273 tabread4~ \$0wave;
#X obj 1058 338 *~;
#X obj 1073 295 r \$0amt;
#X obj 1073 316 line~;
#X obj 154 69 tgl 20 0 \$0biPolar \$0startBi bi\ \ \ on/off 6 10 1 10 #fcfcfc #000000 #000000 0 1;
#X obj 1127 295 r \$0biPolar;
#X obj 1127 316 sel 0 1, f 26;
#X obj 1058 441 *~;
#X msg 1127 337 1;
#X msg 1158 337 0;
#X obj 1087 420 abs~;
#X obj 1087 441 *~;
#X msg 1203 337 1;
#X msg 1236 337 0;
#X obj 239 21 loadbang;
#X msg 239 42 0;
#X obj 239 63 s \$0startWave;
#X obj 328 64 s \$0startBi;
#X obj 1058 547 outlet;
#N canvas 463 124 450 300 go 0;
#X obj 104 13 loadbang;
#X obj 104 33 tgl 15 0 empty empty empty 17 7 0 10 #fcfcfc #000000 #000000 0 1;
#X obj 30 84 snapshot~;
#X obj 30 15 inlet~;
#X obj 30 105 outlet;
#X obj 229 229 block~ 32;
#X obj 104 53 metro 1;
#X connect 0 0 1 0;
#X connect 1 0 6 0;
#X connect 2 0 4 0;
#X connect 3 0 2 0;
#X connect 6 0 2 0;
#X restore 1058 501 pd go;
#X text 27 238 Waveform selector. All waves run continuously \, when selected they're written into a wavetable to be played.;
#X text 960 116 Playback portion. A phasor~ plays a wavetable at the desired frequency. I then use snapshot~ inside an abstraction \, banged continuously by a 10ms metro \, to convert it to control rate. The 'bi' control switches between a bi-polar wave and a uni-polar wave \, by switching between an abs~ object \, to keep output values > 1;
#X obj 20 269 sel 0 1 2 3 4, f 144;
#X obj 847 439 r \$0waveSel;
#X obj 847 460 sel 4;
#X obj 874 480 bng 15 250 50 0 empty empty empty 17 7 0 10 #fcfcfc #000000 #000000;
#X obj 753 460 symbol \$0wave;
#N canvas 800 425 450 300 s&h 0;
#X obj 15 36 inlet~;
#X obj 71 36 inlet;
#X obj 15 155 tabsend~ \$0wave;
#X obj 318 253 block~ 4096;
#X connect 0 0 2 0;
#X connect 1 0 2 0;
#X restore 720 564 pd s&h;
#X obj 771 365 r \$0freq;
#X obj 771 386 phasor~;
#X obj 720 407 samphold~;
#X obj 720 387 noise~;
#X msg 753 481 set \$1;
#X obj 766 564 table \$0empty;
#X obj 874 500 symbol \$0empty;
#X msg 874 521 set \$1;
#X obj 404 21 r \$0freq;
#X msg 404 106 symbol freq:\\\ \$1Hz;
#X msg 404 127 label \$1;
#X text 401 167 For freq value to be printed onto slider.;
#X obj 45 149 sel 4, f 18;
#X msg 45 170 resize 4096;
#X obj 45 191 s \$0wave;
#X msg 150 170 resize 441;
#X obj 404 148 s \$0freqIn;
#X obj 530 21 r \$0amt;
#X msg 530 106 symbol x\$1;
#X obj 530 148 s \$0amtIn;
#X msg 530 127 label amt:\\\ \$1;
#X obj 530 42 * 1000;
#X obj 530 63 int;
#X obj 530 84 / 1000;
#X obj 296 107 s \$0amt;
#X msg 296 86 1;
#X obj 404 63 int;
#X obj 404 42 * 100;
#X obj 404 84 / 100;
#X obj 711 47 inlet;
#X obj 711 68 route freq amt;
#X obj 711 89 s \$0freqIn;
#X obj 751 110 s \$0amtIn;
#X connect 5 0 71 0;
#X connect 5 0 89 0;
#X connect 6 0 7 0;
#X connect 7 0 12 0;
#X connect 7 1 11 0;
#X connect 8 0 9 0;
#X connect 9 0 10 0;
#X connect 10 0 12 0;
#X connect 11 0 8 1;
#X connect 13 0 14 0;
#X connect 14 0 15 0;
#X connect 14 1 16 0;
#X connect 16 0 25 1;
#X connect 17 0 18 0;
#X connect 18 0 19 0;
#X connect 19 0 26 0;
#X connect 20 0 17 0;
#X connect 21 0 22 0;
#X connect 22 0 19 1;
#X connect 23 0 21 0;
#X connect 24 0 20 0;
#X connect 25 0 15 0;
#X connect 26 0 27 0;
#X connect 27 0 30 0;
#X connect 28 0 29 0;
#X connect 29 0 30 0;
#X connect 29 1 32 0;
#X connect 31 0 23 0;
#X connect 32 0 24 1;
#X connect 32 0 31 1;
#X connect 33 0 34 0;
#X connect 34 0 35 0;
#X connect 35 0 38 0;
#X connect 36 0 34 1;
#X connect 37 0 39 0;
#X connect 39 0 38 0;
#X connect 39 0 43 0;
#X connect 39 1 40 0;
#X connect 39 2 41 0;
#X connect 40 0 33 1;
#X connect 41 0 36 1;
#X connect 43 0 44 0;
#X connect 44 0 42 0;
#X connect 45 0 46 0;
#X connect 46 0 47 0;
#X connect 47 0 48 0;
#X connect 48 0 49 0;
#X connect 49 0 50 0;
#X connect 50 0 56 0;
#X connect 50 0 59 0;
#X connect 51 0 52 0;
#X connect 52 0 50 1;
#X connect 54 0 55 0;
#X connect 55 0 57 0;
#X connect 55 0 58 0;
#X connect 55 1 61 0;
#X connect 55 1 62 0;
#X connect 56 0 68 0;
#X connect 57 0 60 1;
#X connect 58 0 56 1;
#X connect 59 0 60 0;
#X connect 60 0 68 0;
#X connect 61 0 56 1;
#X connect 62 0 60 1;
#X connect 63 0 64 0;
#X connect 63 0 102 0;
#X connect 64 0 65 0;
#X connect 64 0 66 0;
#X connect 68 0 67 0;
#X connect 71 0 13 0;
#X connect 71 1 28 0;
#X connect 71 2 6 0;
#X connect 71 3 37 0;
#X connect 71 4 75 0;
#X connect 72 0 73 0;
#X connect 73 1 74 0;
#X connect 74 0 83 0;
#X connect 75 0 81 0;
#X connect 77 0 78 0;
#X connect 78 0 79 1;
#X connect 79 0 76 0;
#X connect 80 0 79 0;
#X connect 81 0 76 1;
#X connect 83 0 84 0;
#X connect 84 0 76 1;
#X connect 85 0 104 0;
#X connect 86 0 87 0;
#X connect 87 0 93 0;
#X connect 89 0 90 0;
#X connect 89 1 92 0;
#X connect 90 0 91 0;
#X connect 92 0 91 0;
#X connect 94 0 98 0;
#X connect 95 0 97 0;
#X connect 97 0 96 0;
#X connect 98 0 99 0;
#X connect 99 0 100 0;
#X connect 100 0 95 0;
#X connect 102 0 101 0;
#X connect 103 0 105 0;
#X connect 104 0 103 0;
#X connect 105 0 86 0;
#X connect 106 0 107 0;
#X connect 107 0 108 0;
#X connect 107 1 109 0;
#X coords 0 -1 1 1 190 81 2 20 20;
