#N canvas 184 482 969 605 10;
#X obj 81 349 inlet~;
#X text 80 332 signal;
#X text 213 105 centre freq;
#X obj 645 75 v b0\$0;
#X obj 645 98 v a0\$0;
#X obj 693 75 v a2\$0;
#X obj 693 98 v b1\$0;
#X obj 741 75 v b2\$0;
#X obj 440 47 inlet;
#X text 479 47 Q;
#X obj 741 98 v omega\$0;
#X obj 789 75 v alphaq\$0;
#X obj 609 159 samplerate~;
#X obj 609 180 / 2;
#X obj 609 201 v nyquist\$0;
#X text 17 554 Adapted from ELSE externals' [resonant~] (https://github.com/porres/pd-else);
#X obj 173 106 inlet;
#X text 556 17 If \$2 = 0 \, send 1 to avoid divide by 0;
#X text 474 246 $f2 = freq in;
#X text 474 259 $f3 = Q;
#X obj 81 370 fexpr~ $x2 * $x1 + $x3 * $x1[-2] + $x4 * $y1[-1] + $x5 * $y1[-2];
#X obj 81 444 outlet~;
#X obj 440 67 f \$2;
#X obj 173 136 f \$1;
#X obj 440 88 expr if($f1 == 0 \, 1 \, $f1);
#X obj 173 157 expr if($f1 == 0 \, 20 \, $f1);
#X obj 308 18 loadbang;
#X obj 308 60 t b b b;
#X obj 308 39 delay 5;
#X obj 440 109 t b f;
#X obj 173 221 expr omega\$0 = $f1 * 3.14159265359/nyquist\$0 \; alphaq\$0 = sin(omega\$0) / (2*$f2) \; b0\$0 = alphaq\$0 + 1 \; a0\$0 = alphaq\$0 * $f2 / b0\$0 \; a2\$0 = -a0\$0 \; b1\$0 = 2*cos(omega\$0) / b0\$0 \; b2\$0 = (alphaq\$0 - 1) / b0\$0 \;;
#X floatatom 173 200 5 0 0 0 - - - 0;
#X floatatom 440 200 5 0 0 0 - - - 0;
#X obj 173 178 clip 20 20000;
#X floatatom 536 174 5 0 0 0 - - - 0;
#X obj 440 178 clip 50 10000;
#X obj 81 423 fexpr~ tanh($x1);
#X obj 81 402 *~ 0.01;
#X obj 440 130 delay 10;
#X connect 0 0 20 0;
#X connect 8 0 22 0;
#X connect 12 0 13 0;
#X connect 13 0 14 0;
#X connect 16 0 23 0;
#X connect 20 0 37 0;
#X connect 22 0 24 0;
#X connect 23 0 25 0;
#X connect 24 0 29 0;
#X connect 25 0 33 0;
#X connect 26 0 28 0;
#X connect 27 0 23 0;
#X connect 27 1 22 0;
#X connect 27 2 12 0;
#X connect 28 0 27 0;
#X connect 29 0 38 0;
#X connect 29 1 34 0;
#X connect 29 1 35 0;
#X connect 30 3 20 1;
#X connect 30 4 20 2;
#X connect 30 5 20 3;
#X connect 30 6 20 4;
#X connect 31 0 30 0;
#X connect 32 0 30 1;
#X connect 33 0 31 0;
#X connect 35 0 32 0;
#X connect 36 0 21 0;
#X connect 37 0 36 0;
#X connect 38 0 23 0;
