#N canvas 1203 158 467 420 10;
#X obj 0 8 cnv 15 100 60 empty empty w.sampler1~\ Help 7 12 1 18 #ffffff #404040 0;
#X obj 1 42 cnv 15 250 350 empty empty empty 20 12 0 14 #e0e0e0 #404040 0;
#X text 8 270 Inlets:;
#X text 10 330 1: (signal) left signal out;
#X text 10 344 2: (signal) right signal out;
#X text 9 316 Outlets:;
#X obj 259 43 w.sampler1~;
#X text 6 49 Simple unsynced \, stereo looper.;
#X text 6 62 You can sample up to 2 minutes of;
#X text 6 75 audio.;
#X text 7 128 To record:;
#X text 7 141 Click 'bind' \, then any key on your;
#X text 7 154 keyboard.;
#X text 6 88 You will need to disable key-repeats;
#X text 6 101 in your system to use this sampler.;
#X text 7 167 Make sure the sampler is 'on'.;
#X text 7 180 Hold shift+key for as long as you'd;
#X text 7 193 like to sample.;
#X text 7 220 To clear samples \, hold the bound key;
#X text 7 233 for 2s or longer. Press the key to;
#X text 7 246 mute the sampler.;
#X text 8 286 1: Left audio in;
#X text 8 299 2: Right audio in;
