#N canvas 338 200 1249 853 10;
#X obj 102 23 tgl 16 1 \$0mute \$0padON on 3 7 1 10 #ffffff #000000 #000000 0 1;
#X obj 317 268 table \$0left;
#X obj 317 294 table \$0right;
#X obj 479 13 key;
#X obj 484 168 sel;
#X obj 517 99 r \$0padLetter;
#X obj 517 123 - 32;
#X obj 620 168 sel;
#X obj 670 16 keyup;
#X obj 484 192 timer;
#X floatatom 484 216 10 0 0 0 - - - 0;
#X obj 484 312 *;
#X obj 516 263 samplerate~;
#X obj 484 239 t f b;
#X msg 620 192 stop;
#X obj 616 262 tabwrite~ \$0left;
#X obj 744 262 tabwrite~ \$0right;
#X obj 673 99 inlet~;
#X obj 744 99 inlet~;
#X obj 236 121 pack f f;
#X obj 268 70 samplerate~;
#X obj 268 94 * 60;
#X msg 236 145 resize \$2;
#X obj 236 169 s \$0left;
#X obj 304 169 s \$0right;
#X obj 236 22 loadbang;
#X obj 236 46 t b b;
#X msg 317 348 \$1 60;
#X obj 317 372 expr ($f1 / $f2);
#X obj 317 324 r \$0speed;
#X floatatom 317 396 5 0 0 0 - - - 0;
#X obj 317 419 f;
#X obj 317 443 /;
#X obj 484 336 /;
#X obj 484 360 t b f;
#X obj 317 467 phasor~;
#X msg 363 443 0;
#X obj 317 491 *~;
#X obj 317 515 +~ 1;
#X obj 516 287 / 1000;
#X obj 443 434 r \$0pan;
#X obj 443 458 sig~;
#X obj 443 507 +~ 1;
#X obj 443 483 *~ -1;
#X obj 317 563 *~;
#X obj 502 563 *~;
#X obj 317 635 *~;
#X obj 502 635 *~;
#X obj 403 563 r \$0vol;
#X obj 403 587 sig~;
#X obj 317 709 *~;
#X obj 502 709 *~;
#X obj 384 677 line~ 5;
#X obj 317 733 outlet~;
#X obj 502 733 outlet~;
#X obj 67 469 key;
#X obj 67 493 sel;
#X obj 137 447 r \$0padLetter;
#X obj 384 653 r \$0mute;
#X obj 67 578 s \$0padON;
#X msg 61 736 const 0;
#X obj 61 799 s \$0left;
#X obj 121 799 s \$0right;
#X obj 637 331 f;
#X obj 24 85 hsl 117 15 0 1 0 0 \$0vol \$0volIn vol:\ 0.5 15 8 1 10 #fcfcfc #000000 #000000 0 1;
#X obj 24 55 hsl 117 15 -2 2 0 0 \$0speed \$0speedin speed:\ x39.47 15 8 1 10 #fcfcfc #000000 #000000 0 1;
#X obj 24 70 hsl 117 15 0 1 0 0 \$0pan \$0panin pan:\ 8.09 15 8 0 10 #fcfcfc #000000 #000000 0 1;
#X obj 21 23 cnv 15 80 16 empty empty w.sampler1~ 4 8 1 12 #9c00ff #ffffff 0;
#X obj 29 209 loadbang;
#X msg 29 230 1;
#X msg 108 230 0.5;
#X obj 29 251 s \$0speedin;
#X obj 108 251 s \$0panin;
#X obj 99 492 sel;
#X obj 99 468 keyup;
#X obj 67 514 timer;
#X obj 67 556 sel 1;
#X obj 67 535 < 500;
#X obj 61 628 key;
#X obj 61 652 sel;
#X obj 131 606 r \$0padLetter;
#X obj 93 651 sel;
#X obj 93 627 keyup;
#X obj 61 673 timer;
#X obj 61 715 sel 1;
#X obj 61 694 > 1000;
#X obj 317 539 tabread~ \$0left;
#X obj 502 539 tabread~ \$0right;
#N canvas 268 363 679 644 sliderdisplay 0;
#X msg 22 115 label \$1;
#X obj 22 53 int;
#X obj 22 11 r \$0speed;
#X obj 22 136 s \$0speedin;
#X msg 22 94 symbol speed:\\\ x\$1;
#X obj 22 32 * 100;
#X obj 22 74 / 100;
#X msg 150 115 label \$1;
#X obj 150 53 int;
#X obj 150 11 r \$0pan;
#X msg 150 94 symbol pan:\\\ \$1;
#X obj 150 136 s \$0panin;
#X msg 318 125 label \$1;
#X obj 318 63 int;
#X obj 318 21 r \$0vol;
#X obj 318 146 s \$0volIn;
#X msg 318 104 symbol vol:\\\ \$1;
#X obj 318 84 / 100;
#X obj 318 42 * 100;
#X obj 150 32 * 100;
#X obj 150 74 / 100;
#X connect 0 0 3 0;
#X connect 1 0 6 0;
#X connect 2 0 5 0;
#X connect 4 0 0 0;
#X connect 5 0 1 0;
#X connect 6 0 4 0;
#X connect 7 0 11 0;
#X connect 8 0 20 0;
#X connect 9 0 19 0;
#X connect 10 0 7 0;
#X connect 12 0 15 0;
#X connect 13 0 17 0;
#X connect 14 0 18 0;
#X connect 16 0 12 0;
#X connect 17 0 16 0;
#X connect 18 0 13 0;
#X connect 19 0 8 0;
#X connect 20 0 10 0;
#X restore 27 178 pd sliderdisplay;
#N canvas 150 194 450 278 (subpatch) 0;
#X array \$0buffer 316 float 0;
#X coords 0 1 315 -1 66 45 1 0 0;
#X restore 152 72 graph;
#X obj 869 262 tabwrite~ \$0buffer;
#X obj 170 284 key;
#X obj 170 305 spigot;
#X floatatom 170 326 5 0 0 0 - - - 0;
#X obj 170 346 t f b;
#X obj 170 388 s \$0padLetter;
#X obj 203 284 r \$0bind;
#X obj 197 367 s \$0bindIn;
#X obj 21 100 tgl 16 0 \$0bind \$0bindIn bind 20 8 1 10 #fcfcfc #000000 #000000 0 1;
#X msg 412 272 resize \$1;
#X obj 412 293 s \$0buffer;
#X obj 374 20 loadbang;
#X msg 374 41 resize 1000;
#X obj 374 62 s \$0buffer;
#X obj 187 799 s \$0buffer;
#X obj 994 36 inlet;
#X obj 994 78 s \$0padON;
#X obj 1026 99 s \$0speedin;
#X obj 1058 122 s \$0panin;
#X obj 1090 147 s \$0volIn;
#X obj 994 57 route on speed pan vol overdub;
#X obj 1135 175 s \$0overdubIn;
#X obj 869 241 *~ 0.25;
#N canvas 537 49 999 950 presetSave 1;
#X obj 126 397 r \$0preset;
#X obj 44 107 r \$0write;
#X obj 186 443 loadbang;
#X msg 186 545 0;
#X obj 246 543 f;
#X obj 246 500 r \$0load;
#X obj 261 521 r \$0preset;
#X obj 103 607 s \$0presetIn;
#X obj 44 128 t b b;
#X obj 186 515 t b b;
#X obj 186 464 delay 5;
#X obj 330 626 s \$0padON;
#X obj 475 626 s \$0speedin;
#X obj 619 626 s \$0panin;
#X obj 764 626 s \$0volIn;
#X obj 909 626 s \$0overdubIn;
#X obj 186 606 unpack f f f f f f, f 121;
#X obj 71 374 pack f f f f f f, f 121;
#X obj 215 354 r \$0mute;
#X obj 360 354 r \$0speed;
#X obj 504 354 r \$0pan;
#X obj 649 354 r \$0vol;
#X obj 794 353 r \$0overdub;
#X msg 44 149 write presets/sampler1Presets.txt;
#X msg 64 736 read presets/sampler1Presets.txt;
#X obj 71 418 text set \$0sampler1Presets;
#X obj 44 766 text define \$0sampler1Presets;
#X obj 186 585 text get \$0sampler1Presets;
#X connect 0 0 25 1;
#X connect 1 0 8 0;
#X connect 2 0 10 0;
#X connect 3 0 7 0;
#X connect 3 0 27 0;
#X connect 4 0 27 0;
#X connect 5 0 4 0;
#X connect 6 0 4 1;
#X connect 8 0 23 0;
#X connect 8 1 17 0;
#X connect 9 0 3 0;
#X connect 9 1 24 0;
#X connect 10 0 9 0;
#X connect 16 1 11 0;
#X connect 16 2 12 0;
#X connect 16 3 13 0;
#X connect 16 4 14 0;
#X connect 16 5 15 0;
#X connect 17 0 25 0;
#X connect 18 0 17 1;
#X connect 19 0 17 2;
#X connect 20 0 17 3;
#X connect 21 0 17 4;
#X connect 22 0 17 5;
#X connect 23 0 26 0;
#X connect 24 0 26 0;
#X connect 27 0 16 0;
#X restore 18 290 pd presetSave;
#X obj 21 39 hradio 16 1 0 8 \$0preset \$0presetIn empty 0 -8 0 10 #fcfcfc #000000 #000000 0;
#X obj 150 39 bng 16 250 50 0 \$0write \$0writeIn wrt 19 3 1 10 #fcfcfc #000000 #000000;
#X obj 187 39 bng 16 250 50 0 \$0load \$0loadIn lod 19 3 1 10 #fcfcfc #000000 #000000;
#X connect 3 0 4 0;
#X connect 4 0 9 0;
#X connect 4 0 15 0;
#X connect 4 0 16 0;
#X connect 4 0 63 0;
#X connect 4 0 90 0;
#X connect 5 0 6 0;
#X connect 6 0 4 1;
#X connect 6 0 7 1;
#X connect 7 0 9 1;
#X connect 7 0 14 0;
#X connect 7 0 36 0;
#X connect 8 0 7 0;
#X connect 9 0 10 0;
#X connect 10 0 13 0;
#X connect 10 0 99 0;
#X connect 11 0 33 0;
#X connect 11 0 37 1;
#X connect 12 0 39 0;
#X connect 13 0 11 0;
#X connect 13 1 12 0;
#X connect 14 0 15 0;
#X connect 14 0 16 0;
#X connect 14 0 90 0;
#X connect 17 0 15 0;
#X connect 17 0 112 0;
#X connect 18 0 16 0;
#X connect 18 0 112 0;
#X connect 19 0 22 0;
#X connect 20 0 21 0;
#X connect 21 0 19 1;
#X connect 21 0 33 1;
#X connect 21 0 63 1;
#X connect 22 0 23 0;
#X connect 22 0 24 0;
#X connect 25 0 26 0;
#X connect 26 0 19 0;
#X connect 26 1 20 0;
#X connect 27 0 28 0;
#X connect 28 0 30 0;
#X connect 29 0 27 0;
#X connect 30 0 31 0;
#X connect 30 0 31 1;
#X connect 31 0 32 0;
#X connect 32 0 35 0;
#X connect 33 0 34 0;
#X connect 34 0 31 0;
#X connect 34 1 32 1;
#X connect 35 0 37 0;
#X connect 36 0 35 1;
#X connect 37 0 38 0;
#X connect 38 0 86 0;
#X connect 38 0 87 0;
#X connect 39 0 11 1;
#X connect 40 0 41 0;
#X connect 41 0 43 0;
#X connect 41 0 45 1;
#X connect 42 0 44 1;
#X connect 43 0 42 0;
#X connect 44 0 46 0;
#X connect 45 0 47 0;
#X connect 46 0 50 0;
#X connect 47 0 51 0;
#X connect 48 0 49 0;
#X connect 49 0 46 1;
#X connect 49 0 47 1;
#X connect 50 0 53 0;
#X connect 51 0 54 0;
#X connect 52 0 50 1;
#X connect 52 0 51 1;
#X connect 55 0 56 0;
#X connect 56 0 75 0;
#X connect 57 0 56 1;
#X connect 57 0 73 1;
#X connect 58 0 52 0;
#X connect 60 0 61 0;
#X connect 60 0 62 0;
#X connect 60 0 104 0;
#X connect 63 0 37 1;
#X connect 68 0 69 0;
#X connect 68 0 70 0;
#X connect 69 0 71 0;
#X connect 70 0 72 0;
#X connect 73 0 75 1;
#X connect 74 0 73 0;
#X connect 75 0 77 0;
#X connect 76 0 59 0;
#X connect 77 0 76 0;
#X connect 78 0 79 0;
#X connect 79 0 83 0;
#X connect 80 0 79 1;
#X connect 80 0 81 1;
#X connect 81 0 83 1;
#X connect 82 0 81 0;
#X connect 83 0 85 0;
#X connect 84 0 60 0;
#X connect 85 0 84 0;
#X connect 86 0 44 0;
#X connect 87 0 45 0;
#X connect 91 0 92 0;
#X connect 92 0 93 0;
#X connect 93 0 94 0;
#X connect 94 0 95 0;
#X connect 94 1 97 0;
#X connect 96 0 92 1;
#X connect 99 0 100 0;
#X connect 101 0 102 0;
#X connect 102 0 103 0;
#X connect 105 0 110 0;
#X connect 110 0 106 0;
#X connect 110 1 107 0;
#X connect 110 2 108 0;
#X connect 110 3 109 0;
#X connect 110 4 111 0;
#X connect 112 0 90 0;
#X coords 0 -1 1 1 201 100 2 20 20;
