#N canvas 529 328 1177 627 10;
#X obj 24 55 hsl 110 15 1 1000 1 0 \$0attack \$0attackIn attack:\ 1ms 6 7 1 10 #fcfcfc #000000 #000000 0 1;
#X obj 21 23 cnv 15 100 15 empty empty thumper~ 2 8 1 12 #ffc7c6 #404040 0;
#X obj 121 23 tgl 15 0 \$0triggerOn \$0triggerOnIn trigger\ mode 19 7 1 10 #fcfcfc #000000 #000000 0 1;
#X obj 24 70 hsl 110 15 1 1000 1 0 \$0hold \$0holdIn hold:\ 39ms 6 7 1 10 #fcfcfc #000000 #000000 0 1;
#X obj 24 85 hsl 110 15 1 1000 1 0 \$0release \$0releaseIn release:\ 8ms 6 7 1 10 #fcfcfc #000000 #000000 0 1;
#X obj 34 146 inlet~;
#X obj 132 146 inlet~;
#X obj 325 468 vline~;
#X text 32 130 left;
#X text 130 130 right;
#X obj 325 33 inlet;
#X text 323 17 trigger;
#X obj 934 162 inlet;
#X text 932 146 routing;
#X obj 35 471 *~;
#X obj 133 471 *~;
#N canvas 63 107 615 300 sliderdisplay 0;
#X msg 22 74 label \$1;
#X obj 22 32 int;
#X obj 22 11 r \$0attack;
#X obj 22 95 s \$0attackIn;
#X msg 22 53 symbol attack:\\\ \$1ms;
#X msg 157 74 label \$1;
#X obj 157 32 int;
#X obj 157 11 r \$0hold;
#X obj 157 95 s \$0holdIn;
#X msg 157 53 symbol hold:\\\ \$1ms;
#X msg 280 74 label \$1;
#X obj 280 32 int;
#X obj 280 11 r \$0release;
#X obj 280 95 s \$0releaseIn;
#X msg 424 117 label \$1;
#X obj 424 53 int;
#X msg 424 96 symbol thresh:\\\ \$1;
#X obj 424 138 s \$0threshIn;
#X msg 280 53 symbol release:\\\ \$1ms;
#X obj 424 11 r \$0thresh;
#X obj 424 32 * 1000;
#X obj 424 74 / 1000;
#X connect 0 0 3 0;
#X connect 1 0 4 0;
#X connect 2 0 1 0;
#X connect 4 0 0 0;
#X connect 5 0 8 0;
#X connect 6 0 9 0;
#X connect 7 0 6 0;
#X connect 9 0 5 0;
#X connect 10 0 13 0;
#X connect 11 0 18 0;
#X connect 12 0 11 0;
#X connect 14 0 17 0;
#X connect 15 0 21 0;
#X connect 16 0 14 0;
#X connect 18 0 10 0;
#X connect 19 0 20 0;
#X connect 20 0 15 0;
#X connect 21 0 16 0;
#X restore 610 255 pd sliderdisplay;
#X msg 325 447 1 \$2 \, 0 \$3 \$4;
#X obj 325 426 pack f f f f;
#X msg 325 256 1;
#X obj 348 361 r \$0attack;
#X obj 394 405 r \$0release;
#X obj 371 383 r \$0hold;
#X obj 35 492 outlet~;
#X obj 133 492 outlet~;
#X obj 325 123 sig~;
#X obj 325 144 threshold~;
#X obj 139 55 hsl 68 15 0 1 0 0 \$0thresh \$0threshIn thresh:\ 0.507 4 7 1 10 #fcfcfc #000000 #000000 0 1;
#X text 609 58 AHR envelope \, trigger mode off=thresh-mode on \; former takes a simple bang to trigger envelope \, latter bangs only when a value exceeds a threshold \, and then once the value goes below the threshold.;
#X obj 389 7 r \$0thresh;
#X obj 325 205 spigot;
#X obj 382 205 spigot;
#X obj 358 185 tgl 15 0 empty empty empty 17 7 0 10 #fcfcfc #000000 #000000 0 1;
#X obj 415 185 tgl 15 0 empty empty empty 17 7 0 10 #fcfcfc #000000 #000000 0 1;
#X obj 396 144 loadbang;
#X msg 389 123 set \$1 5 \$1 5;
#X obj 325 226 t b b b;
#X obj 382 226 t b b b;
#X obj 325 332 spigot;
#X obj 358 268 r \$0triggerOn;
#X obj 610 128 loadbang;
#X msg 610 212 0;
#X obj 610 233 s \$0triggerOnIn;
#X obj 202 248 spigot;
#X obj 237 13 r \$0triggerOn;
#X msg 202 269 1;
#X text 200 208 Trigger mode.;
#X msg 358 310 1;
#X msg 390 310 0;
#X obj 358 289 sel 0 1;
#X msg 632 154 1;
#X obj 632 175 s \$0attackIn;
#X msg 713 154 50;
#X obj 713 175 s \$0holdIn;
#X obj 783 175 s \$0releaseIn;
#X msg 569 166 0.5;
#X obj 569 187 s \$0threshIn;
#X obj 934 183 route attack hold release thresh;
#X obj 934 204 s \$0attackIn;
#X obj 981 225 s \$0holdIn;
#X obj 1028 246 s \$0releaseIn;
#X obj 1075 268 s \$0threshIn;
#X obj 325 103 spigot;
#X obj 368 57 sel 0 1;
#X msg 368 78 1;
#X msg 400 77 0;
#N canvas 147 88 999 950 presetSave 1;
#X obj 126 397 r \$0preset;
#X obj 44 107 r \$0write;
#X obj 186 443 loadbang;
#X msg 186 545 0;
#X obj 246 543 f;
#X obj 246 500 r \$0load;
#X obj 261 521 r \$0preset;
#X obj 103 607 s \$0presetIn;
#X obj 44 128 t b b;
#X obj 186 515 t b b;
#X obj 186 464 delay 5;
#X obj 366 627 s \$0attackIn;
#X obj 547 627 s \$0holdIn;
#X obj 728 627 s \$0releaseIn;
#X obj 909 627 s \$0threshIn;
#X obj 186 606 unpack f f f f f, f 121;
#X obj 71 374 pack f f f f f, f 121;
#X obj 251 353 r \$0attack;
#X obj 432 353 r \$0hold;
#X obj 613 353 r \$0release;
#X obj 794 353 r \$0thresh;
#X msg 44 149 write presets/thumperPresets.txt;
#X msg 64 736 read presets/thumperPresets.txt;
#X obj 44 766 text define \$0thumperPresets;
#X obj 71 418 text set \$0thumperPresets;
#X obj 186 585 text get \$0thumperPresets;
#X connect 0 0 24 1;
#X connect 1 0 8 0;
#X connect 2 0 10 0;
#X connect 3 0 7 0;
#X connect 3 0 25 0;
#X connect 4 0 25 0;
#X connect 5 0 4 0;
#X connect 6 0 4 1;
#X connect 8 0 21 0;
#X connect 8 1 16 0;
#X connect 9 0 3 0;
#X connect 9 1 22 0;
#X connect 10 0 9 0;
#X connect 15 1 11 0;
#X connect 15 2 12 0;
#X connect 15 3 13 0;
#X connect 15 4 14 0;
#X connect 16 0 24 0;
#X connect 17 0 16 1;
#X connect 18 0 16 2;
#X connect 19 0 16 3;
#X connect 20 0 16 4;
#X connect 21 0 23 0;
#X connect 22 0 23 0;
#X connect 25 0 15 0;
#X restore 613 320 pd presetSave;
#X obj 21 39 hradio 16 1 0 8 \$0preset \$0presetIn empty 0 -8 0 10 #fcfcfc #000000 #000000 0;
#X obj 150 39 bng 16 250 50 0 \$0write \$0writeIn wrt 19 3 1 10 #fcfcfc #000000 #000000;
#X obj 187 39 bng 16 250 50 0 \$0load \$0loadIn lod 19 3 1 10 #fcfcfc #000000 #000000;
#X connect 5 0 14 0;
#X connect 6 0 15 0;
#X connect 7 0 15 1;
#X connect 7 0 14 1;
#X connect 10 0 43 0;
#X connect 10 0 62 0;
#X connect 12 0 57 0;
#X connect 14 0 23 0;
#X connect 15 0 24 0;
#X connect 17 0 7 0;
#X connect 18 0 17 0;
#X connect 19 0 38 0;
#X connect 20 0 18 1;
#X connect 21 0 18 3;
#X connect 22 0 18 2;
#X connect 25 0 26 0;
#X connect 26 0 30 0;
#X connect 26 1 31 0;
#X connect 29 0 35 0;
#X connect 30 0 36 0;
#X connect 31 0 37 0;
#X connect 32 0 30 1;
#X connect 33 0 31 1;
#X connect 34 0 32 0;
#X connect 35 0 26 0;
#X connect 36 0 19 0;
#X connect 36 1 32 0;
#X connect 36 2 33 0;
#X connect 37 0 19 0;
#X connect 37 1 33 0;
#X connect 37 2 32 0;
#X connect 38 0 18 0;
#X connect 39 0 49 0;
#X connect 40 0 41 0;
#X connect 40 0 50 0;
#X connect 40 0 52 0;
#X connect 40 0 55 0;
#X connect 41 0 42 0;
#X connect 43 0 45 0;
#X connect 44 0 43 1;
#X connect 44 0 63 0;
#X connect 45 0 18 0;
#X connect 47 0 38 1;
#X connect 48 0 38 1;
#X connect 49 0 47 0;
#X connect 49 1 48 0;
#X connect 50 0 51 0;
#X connect 52 0 53 0;
#X connect 52 0 54 0;
#X connect 55 0 56 0;
#X connect 57 0 58 0;
#X connect 57 1 59 0;
#X connect 57 2 60 0;
#X connect 57 3 61 0;
#X connect 62 0 25 0;
#X connect 63 0 64 0;
#X connect 63 1 65 0;
#X connect 64 0 62 1;
#X connect 65 0 62 1;
#X coords 0 -1 1 1 200 83 2 20 20;
