#N canvas 426 260 461 286 10;
#X obj 1 5 cnv 15 100 60 empty empty thumper~\ Help 7 12 1 18 #ffffff #404040 0;
#X obj 1 35 cnv 15 250 250 empty empty empty 20 12 0 14 #e0e0e0 #404040 0;
#X text 10 123 Inlets:;
#X text 11 151 2: (signal) right line-in;
#X text 11 137 1: (signal) left line-in;
#X text 9 251 1: (signal) left signal out;
#X text 9 265 2: (signal) right signal out;
#X text 8 237 Outlets:;
#X obj 259 36 thumper~;
#X text 11 166 3: (control) value 0<x<1 \, bang in;
#X text 30 181 trigger mode;
#X text 30 210 key-word + \$1 in *message* box);
#X text 11 195 4: (control) modulation routing (slider;
#X text 8 41 AHR envelope. When trigger mode is off \,;
#X text 8 55 third inlet activates env when a value;
#X text 9 69 goes above the thresh value.;
#X text 9 82 When trigger is on \, a bang activates;
#X text 9 95 the Env.;
