#N canvas 516 301 458 632 12;
#X obj 280 231 inlet~;
#X text 51 27 frequency;
#X text 277 29 max slope;
#X obj 49 300 phasor~;
#X obj 298 259 noise~;
#X obj 280 289 *~;
#N canvas 0 23 619 522 \$0-smootherstep 0;
#X obj 79 54 inlet~;
#X obj 97 101 *~;
#X obj 79 179 *~;
#X obj 79 272 *~ 10;
#X obj 179 179 *~;
#X obj 132 222 *~;
#X obj 179 272 *~ 15;
#X obj 132 272 *~ 6;
#X obj 161 325 -~;
#X obj 80 433 outlet~;
#X connect 0 0 1 0;
#X connect 0 0 1 1;
#X connect 0 0 2 0;
#X connect 1 0 2 1;
#X connect 1 0 4 0;
#X connect 1 0 4 1;
#X connect 1 0 5 1;
#X connect 2 0 3 0;
#X connect 2 0 5 0;
#X connect 3 0 9 0;
#X connect 4 0 6 0;
#X connect 5 0 7 0;
#X connect 6 0 8 1;
#X connect 7 0 8 0;
#X connect 8 0 9 0;
#X restore 49 345 pd \$0-smootherstep;
#X obj 49 162 pdcontrol;
#N canvas 0 23 462 462 \$0-slopes 0;
#X obj 299 141 samphold~;
#X obj 139 230 rzero_rev~ 0;
#X obj 80 269 samphold~;
#X obj 61 25 inlet~;
#X obj 299 25 inlet~;
#X obj 62 371 outlet~;
#X obj 281 371 outlet~;
#X obj 62 296 *~;
#X obj 259 230 -~ 1;
#X obj 281 253 *~;
#X connect 0 0 1 0;
#X connect 0 0 9 1;
#X connect 1 0 2 0;
#X connect 2 0 7 1;
#X connect 3 0 0 1;
#X connect 3 0 2 1;
#X connect 3 0 7 0;
#X connect 3 0 8 0;
#X connect 4 0 0 0;
#X connect 7 0 5 0;
#X connect 8 0 9 0;
#X connect 9 0 6 0;
#X restore 199 345 pd \$0-slopes;
#X obj 49 231 inlet~;
#X obj 49 191 unpack 0 0;
#X obj 49 67 loadbang;
#X msg 49 130 args 0;
#X obj 49 404 *~;
#X obj 49 447 -~;
#X obj 262 404 *~;
#X obj 49 510 outlet~;
#X obj 49 92 t b b;
#X msg 280 130 2;
#X text 15 553 Matt Barber's Perlin Noise Abstraction from \; https://m.facebook.com/groups/puredata/permalink/10157981097149495/?comment_id=10157991630604495
;
#X obj 114 510 outlet~;
#X connect 0 0 5 0;
#X connect 3 0 8 0;
#X connect 3 0 6 0;
#X connect 4 0 5 1;
#X connect 5 0 8 1;
#X connect 6 0 13 0;
#X connect 6 0 15 0;
#X connect 7 0 10 0;
#X connect 8 0 13 1;
#X connect 8 0 14 0;
#X connect 8 1 15 1;
#X connect 9 0 3 0;
#X connect 10 0 9 0;
#X connect 10 1 0 0;
#X connect 11 0 17 0;
#X connect 12 0 7 0;
#X connect 13 0 14 1;
#X connect 14 0 16 0;
#X connect 15 0 20 0;
#X connect 17 0 12 0;
#X connect 17 1 18 0;
#X connect 18 0 0 0;
